<svg width="636" height="598" viewBox="0 0 636 598" fill="none" xmlns="http://www.w3.org/2000/svg">
<circle cx="314.862" cy="298.862" r="298.862" fill="black" fill-opacity="0.2"/>
<g clip-path="url(#clip0)">
<path d="M332.193 145.307C331.634 145.307 331.053 145.096 330.618 144.653C329.726 143.768 329.726 142.313 330.597 141.427L343.659 127.892L330.618 114.63C329.747 113.745 329.747 112.29 330.618 111.405C331.488 110.519 332.919 110.519 333.79 111.405L348.406 126.269C349.277 127.154 349.277 128.588 348.427 129.494L333.811 144.653C333.354 145.075 332.774 145.307 332.193 145.307Z" fill="white"/>
<path d="M334.432 130.148H289.38C288.136 130.148 287.12 129.115 287.12 127.85C287.12 126.585 288.136 125.552 289.38 125.552H334.453C335.697 125.552 336.713 126.585 336.713 127.85C336.692 129.115 335.676 130.148 334.432 130.148Z" fill="white"/>
</g>
<g clip-path="url(#clip1)">
<path d="M303.997 449.954C304.556 449.954 305.137 450.165 305.572 450.607C306.464 451.493 306.464 452.948 305.593 453.833L292.531 467.369L305.572 480.63C306.443 481.516 306.443 482.97 305.572 483.856C304.702 484.741 303.271 484.741 302.4 483.856L287.784 468.992C286.913 468.107 286.913 466.673 287.763 465.766L302.379 450.607C302.836 450.186 303.416 449.954 303.997 449.954Z" fill="white"/>
<path d="M301.757 465.113L346.81 465.113C348.054 465.113 349.07 466.146 349.07 467.411C349.07 468.676 348.054 469.709 346.81 469.709L301.737 469.709C300.493 469.709 299.477 468.676 299.477 467.411C299.498 466.146 300.514 465.113 301.757 465.113Z" fill="white"/>
</g>
<g clip-path="url(#clip2)">
<path d="M500.804 311.547C500.804 310.987 501.015 310.406 501.458 309.971C502.343 309.079 503.798 309.079 504.683 309.95L518.219 323.012L531.48 309.971C532.366 309.1 533.821 309.1 534.706 309.971C535.592 310.842 535.592 312.272 534.706 313.143L519.842 327.76C518.957 328.63 517.523 328.63 516.617 327.78L501.458 313.164C501.036 312.708 500.804 312.127 500.804 311.547Z" fill="white"/>
<path d="M515.963 313.786L515.963 268.733C515.963 267.489 516.996 266.473 518.261 266.473C519.526 266.473 520.559 267.489 520.559 268.733L520.559 313.806C520.559 315.05 519.526 316.066 518.261 316.066C516.996 316.045 515.963 315.03 515.963 313.786Z" fill="white"/>
</g>
<g clip-path="url(#clip3)">
<path d="M140.761 283.35C140.761 283.91 140.55 284.49 140.107 284.925C139.222 285.817 137.767 285.817 136.881 284.946L123.346 271.884L110.084 284.925C109.199 285.796 107.744 285.796 106.859 284.925C105.973 284.055 105.973 282.624 106.859 281.753L121.723 267.137C122.608 266.266 124.042 266.266 124.948 267.116L140.107 281.733C140.529 282.189 140.761 282.769 140.761 283.35Z" fill="white"/>
<path d="M125.602 281.111L125.602 326.163C125.602 327.407 124.569 328.423 123.304 328.423C122.039 328.423 121.006 327.407 121.006 326.163L121.006 281.09C121.006 279.846 122.039 278.83 123.304 278.83C124.569 278.851 125.602 279.867 125.602 281.111Z" fill="white"/>
</g>
<circle cx="121.72" cy="127.997" r="119.666" stroke="url(#paint0_linear)" stroke-width="3"/>
<path d="M90.6259 102.709L88.7059 101.489C88.1659 101.589 87.4859 101.629 86.8059 101.629H77.2459C76.3059 101.629 75.4259 101.589 74.7859 101.549C74.8459 102.069 74.8859 102.689 74.8859 103.229V107.449C74.8859 107.989 74.8459 108.469 74.7859 109.089H77.7259C77.6659 108.469 77.6459 107.749 77.6459 107.449V104.109H87.2459C87.0459 106.269 86.4259 108.489 85.4259 110.109C83.8459 112.609 80.7659 114.269 78.0659 114.929L80.3059 117.209C83.5059 116.089 86.2259 114.089 87.8859 111.469C89.4459 109.049 89.9059 106.149 90.2659 104.049C90.3259 103.769 90.5059 103.009 90.6259 102.709ZM104.046 100.509L101.126 99.5494C100.946 100.229 100.526 101.149 100.226 101.649C99.2259 103.369 97.4859 105.949 93.9859 108.089L96.2259 109.749C98.1859 108.409 99.9259 106.649 101.266 104.909H106.886C106.566 106.409 105.406 108.809 104.046 110.369C102.306 112.349 100.086 114.089 95.9859 115.309L98.3459 117.429C102.106 115.949 104.526 114.109 106.426 111.789C108.226 109.549 109.366 106.889 109.906 105.109C110.066 104.609 110.346 104.049 110.566 103.669L108.526 102.409C108.066 102.549 107.406 102.649 106.786 102.649H102.766C102.786 102.609 102.806 102.589 102.826 102.549C103.066 102.109 103.586 101.209 104.046 100.509ZM130.626 102.709L128.706 101.489C128.166 101.589 127.486 101.629 126.806 101.629H117.246C116.306 101.629 115.426 101.589 114.786 101.549C114.846 102.069 114.886 102.689 114.886 103.229V107.449C114.886 107.989 114.846 108.469 114.786 109.089H117.726C117.666 108.469 117.646 107.749 117.646 107.449V104.109H127.246C127.046 106.269 126.426 108.489 125.426 110.109C123.846 112.609 120.766 114.269 118.066 114.929L120.306 117.209C123.506 116.089 126.226 114.089 127.886 111.469C129.446 109.049 129.906 106.149 130.266 104.049C130.326 103.769 130.506 103.009 130.626 102.709ZM144.046 100.509L141.126 99.5494C140.946 100.229 140.526 101.149 140.226 101.649C139.226 103.369 137.486 105.949 133.986 108.089L136.226 109.749C138.186 108.409 139.926 106.649 141.266 104.909H146.886C146.566 106.409 145.406 108.809 144.046 110.369C142.306 112.349 140.086 114.089 135.986 115.309L138.346 117.429C142.106 115.949 144.526 114.109 146.426 111.789C148.226 109.549 149.366 106.889 149.906 105.109C150.066 104.609 150.346 104.049 150.566 103.669L148.526 102.409C148.066 102.549 147.406 102.649 146.786 102.649H142.766C142.786 102.609 142.806 102.589 142.826 102.549C143.066 102.109 143.586 101.209 144.046 100.509ZM161.686 100.449L158.706 100.149C158.746 101.409 158.566 102.869 158.286 104.369C157.266 104.469 156.326 104.529 155.706 104.549C154.966 104.569 154.306 104.609 153.566 104.549L153.806 107.269C154.426 107.169 155.466 107.029 156.046 106.929C156.406 106.889 157.046 106.809 157.766 106.729C157.026 109.469 155.646 113.509 153.706 116.129L156.306 117.169C158.146 114.229 159.626 109.489 160.386 106.449C160.966 106.409 161.466 106.369 161.786 106.369C163.026 106.369 163.726 106.589 163.726 108.189C163.726 110.169 163.446 112.589 162.906 113.729C162.586 114.389 162.086 114.589 161.406 114.589C160.886 114.589 159.726 114.389 158.966 114.169L159.386 116.809C160.066 116.949 161.026 117.089 161.786 117.089C163.306 117.089 164.406 116.649 165.066 115.249C165.926 113.509 166.206 110.269 166.206 107.909C166.206 105.029 164.706 104.089 162.586 104.089C162.166 104.089 161.586 104.129 160.906 104.169C161.046 103.449 161.206 102.709 161.326 102.109C161.426 101.609 161.566 100.969 161.686 100.449ZM170.586 98.7894L168.986 99.4294C169.546 100.189 170.186 101.369 170.606 102.189L172.186 101.509C171.846 100.809 171.106 99.5494 170.586 98.7894ZM168.206 99.6894L166.626 100.349C167.086 100.989 167.586 101.949 167.986 102.709L166.186 103.489C167.606 105.249 169.026 108.769 169.546 110.989L172.086 109.829C171.526 108.049 170.026 104.709 168.826 102.849L169.806 102.429C169.426 101.689 168.706 100.429 168.206 99.6894ZM43.4059 134.029V136.609H61.8059V134.029H43.4059ZM78.1459 132.029C77.8859 133.929 77.4659 135.589 76.8259 137.009C76.1659 135.509 75.7059 133.829 75.3659 132.029H78.1459ZM81.7259 132.029V129.809H76.1059C76.3859 128.769 76.6459 127.669 76.8459 126.549L74.3859 126.169C74.0059 128.589 73.3259 130.949 72.3459 132.789C71.8859 131.829 71.2059 130.769 70.5859 129.889L68.7459 130.769C69.0059 131.189 69.2859 131.649 69.5459 132.129L66.8659 132.289C67.3059 131.389 67.7459 130.369 68.1459 129.409H72.4659V127.249H63.3659V129.409H65.6259C65.3459 130.389 64.9659 131.509 64.5859 132.429L63.1459 132.509L63.4059 134.689C65.3859 134.509 68.0059 134.289 70.5259 134.069C70.6459 134.329 70.7459 134.589 70.8259 134.829L71.0659 134.709C71.6259 135.089 72.6059 135.909 73.0259 136.309C73.3059 135.969 73.5859 135.589 73.8459 135.169C74.2459 136.729 74.7659 138.169 75.4059 139.449C74.6259 140.429 73.6859 141.249 72.5459 141.929L72.4659 140.289C71.3259 140.449 70.1459 140.629 68.9859 140.769V138.769H72.0259V136.629H68.9859V134.709H66.7059V136.629H63.8059V138.769H66.7059V141.089C65.3859 141.249 64.1859 141.409 63.1859 141.509L63.5259 143.929C65.5659 143.609 68.2859 143.209 70.9459 142.789C71.3859 143.329 72.0259 144.349 72.2459 144.889C74.0859 144.029 75.5459 142.949 76.7259 141.629C77.7259 142.969 78.9659 144.049 80.4859 144.869C80.8659 144.209 81.5859 143.249 82.1259 142.769C80.5259 142.029 79.2459 140.909 78.2459 139.509C79.4059 137.489 80.1459 135.009 80.6059 132.029H81.7259ZM95.6459 126.989H92.7459C92.8059 127.229 92.8859 127.909 92.9459 128.729C92.9659 128.889 92.9659 129.089 92.9859 129.349C90.2659 129.389 86.6259 129.469 84.3459 129.469L84.4059 131.889C86.8659 131.749 89.9859 131.629 93.0059 131.589C93.0259 132.029 93.0259 132.489 93.0259 132.929C92.7659 132.889 92.5059 132.869 92.2259 132.869C90.0459 132.869 88.2259 134.349 88.2259 136.609C88.2259 139.049 90.1259 140.289 91.6659 140.289C91.9859 140.289 92.2859 140.249 92.5659 140.189C91.4659 141.389 89.7059 142.049 87.6859 142.469L89.8259 144.589C94.7059 143.229 96.2259 139.909 96.2259 137.309C96.2259 136.269 95.9859 135.329 95.5059 134.569C95.5059 133.689 95.4859 132.589 95.4859 131.569C98.2059 131.569 100.066 131.609 101.266 131.669L101.286 129.309C100.246 129.289 97.5059 129.329 95.4859 129.329C95.5059 129.089 95.5059 128.869 95.5059 128.709C95.5259 128.389 95.6059 127.309 95.6459 126.989ZM90.6259 136.569C90.6259 135.509 91.3859 134.969 92.1659 134.969C92.7059 134.969 93.1859 135.209 93.4659 135.669C93.7459 137.429 93.0059 138.069 92.1659 138.069C91.3659 138.069 90.6259 137.489 90.6259 136.569ZM110.386 140.749C110.386 140.249 110.866 139.789 111.626 139.789C112.706 139.789 113.446 140.629 113.566 141.929C113.206 141.969 112.826 141.989 112.406 141.989C111.206 141.989 110.386 141.489 110.386 140.749ZM106.986 127.869L107.066 130.469C107.526 130.409 108.166 130.349 108.706 130.309C109.766 130.249 112.526 130.129 113.546 130.109C112.566 130.969 110.486 132.649 109.366 133.569C108.186 134.549 105.766 136.589 104.346 137.729L106.166 139.609C108.306 137.169 110.306 135.549 113.366 135.549C115.726 135.549 117.526 136.769 117.526 138.569C117.526 139.789 116.966 140.709 115.866 141.289C115.586 139.389 114.086 137.869 111.606 137.869C109.486 137.869 108.026 139.369 108.026 140.989C108.026 142.989 110.126 144.269 112.906 144.269C117.746 144.269 120.146 141.769 120.146 138.609C120.146 135.689 117.566 133.569 114.166 133.569C113.526 133.569 112.926 133.629 112.266 133.789C113.526 132.789 115.626 131.029 116.706 130.269C117.166 129.929 117.646 129.649 118.106 129.349L116.806 127.569C116.566 127.649 116.106 127.709 115.286 127.789C114.146 127.889 109.866 127.969 108.806 127.969C108.246 127.969 107.546 127.949 106.986 127.869ZM130.926 126.629C130.786 129.269 131.066 138.349 123.086 142.769C123.886 143.329 124.666 144.049 125.086 144.669C129.306 142.089 131.406 138.229 132.486 134.629C133.606 138.309 135.846 142.429 140.366 144.669C140.746 144.029 141.466 143.209 142.206 142.649C134.746 139.149 133.746 130.529 133.586 127.769C133.606 127.349 133.626 126.949 133.646 126.629H130.926ZM154.326 138.229L151.946 137.989C151.786 138.789 151.586 139.749 151.586 140.669C151.586 142.689 153.406 143.849 156.766 143.849C158.366 143.849 159.726 143.709 160.846 143.569L160.946 141.009C159.506 141.269 158.126 141.429 156.786 141.429C154.646 141.429 154.046 140.769 154.046 139.889C154.046 139.449 154.166 138.789 154.326 138.229ZM152.066 127.149L149.006 126.909C149.066 127.369 149.026 128.189 148.946 128.929C148.906 129.249 148.846 129.629 148.766 130.069C148.146 130.109 147.546 130.129 146.966 130.129C146.146 130.129 145.466 130.089 144.446 129.969L144.506 132.469C145.206 132.509 145.966 132.549 146.926 132.549C147.346 132.549 147.786 132.529 148.246 132.509C148.126 133.089 147.966 133.649 147.826 134.189C147.086 136.989 145.566 141.189 144.366 143.189L147.146 144.129C148.266 141.749 149.606 137.669 150.326 134.869C150.546 134.049 150.746 133.169 150.926 132.309C152.266 132.149 153.626 131.929 154.826 131.649V129.149C153.726 129.409 152.606 129.629 151.486 129.789C151.546 129.509 151.606 129.249 151.646 129.029C151.726 128.589 151.906 127.689 152.066 127.149ZM153.246 133.189V135.529C154.506 135.389 155.746 135.329 157.106 135.329C158.326 135.329 159.546 135.449 160.546 135.569L160.606 133.169C159.426 133.049 158.226 132.989 157.086 132.989C155.806 132.989 154.366 133.089 153.246 133.189ZM171.646 127.169L168.806 127.049C168.846 127.709 168.826 128.209 168.706 129.069C168.666 129.309 168.626 129.589 168.586 129.889C167.366 129.869 165.866 129.709 164.666 129.509V131.989C165.686 132.089 166.866 132.149 168.126 132.169C167.606 134.369 166.806 137.029 165.846 138.889L168.206 139.729C168.406 139.389 168.546 139.129 168.766 138.849C169.966 137.329 172.006 136.509 174.306 136.509C176.266 136.509 177.286 137.509 177.286 138.709C177.286 141.649 172.866 142.189 168.486 141.469L169.186 144.049C175.646 144.749 179.986 143.129 179.986 138.629C179.986 136.069 177.846 134.349 174.606 134.349C172.826 134.349 171.266 134.709 169.646 135.609C169.946 134.629 170.266 133.349 170.546 132.129C173.226 131.989 176.406 131.609 178.486 131.269L178.446 128.889C176.026 129.409 173.326 129.709 171.046 129.829C171.086 129.609 171.126 129.389 171.166 129.209C171.306 128.549 171.426 127.869 171.646 127.169ZM189.186 127.169L186.686 128.189C187.586 130.309 188.546 132.449 189.466 134.149C187.546 135.569 186.146 137.229 186.146 139.429C186.146 142.869 189.166 143.969 193.146 143.969C195.746 143.969 197.866 143.769 199.566 143.469L199.606 140.589C197.826 141.029 195.126 141.329 193.066 141.329C190.286 141.329 188.906 140.569 188.906 139.129C188.906 137.729 190.026 136.589 191.686 135.489C193.506 134.309 196.026 133.149 197.266 132.529C198.006 132.149 198.646 131.809 199.246 131.449L197.866 129.129C197.346 129.569 196.766 129.909 196.006 130.349C195.066 130.889 193.326 131.749 191.686 132.709C190.886 131.169 189.946 129.249 189.186 127.169ZM108.146 163.369V168.349H103.686V162.309H109.826V155.049H107.326V159.989H103.686V153.369H101.246V159.989H97.8059V155.049H95.4459V162.309H101.246V168.349H97.0659V163.369H94.6459V171.849H97.0659V170.689H108.146V171.829H110.626V163.369H108.146ZM118.906 159.169C120.426 157.989 121.706 156.689 122.566 155.469C123.486 156.709 124.866 158.009 126.406 159.169H118.906ZM117.926 161.349H127.266V159.769C128.366 160.529 129.526 161.189 130.626 161.709C131.046 161.009 131.566 160.149 132.166 159.529C129.006 158.409 125.826 156.129 123.706 153.189H121.226C119.726 155.549 116.546 158.389 113.146 159.889C113.646 160.409 114.266 161.309 114.546 161.889C115.706 161.329 116.866 160.649 117.926 159.889V161.349ZM114.386 165.209H119.026C118.606 166.389 118.046 167.709 117.506 168.829L114.486 168.929L114.806 171.249C118.206 171.089 123.146 170.889 127.846 170.629C128.166 171.069 128.446 171.489 128.646 171.869L130.866 170.529C129.926 169.029 128.066 166.949 126.286 165.389L124.186 166.489C124.846 167.089 125.526 167.809 126.146 168.529C124.106 168.609 122.046 168.689 120.126 168.749C120.726 167.629 121.386 166.389 121.966 165.209H130.926V163.009H114.386V165.209ZM146.286 163.569C146.286 166.689 143.086 168.329 138.126 168.889L139.566 171.369C145.126 170.609 149.086 167.949 149.086 163.669C149.086 160.529 146.866 158.729 143.706 158.729C141.366 158.729 139.126 159.309 137.666 159.649C137.006 159.789 136.146 159.929 135.466 159.989L136.226 162.849C136.806 162.629 137.586 162.309 138.166 162.149C139.186 161.849 141.166 161.169 143.366 161.169C145.246 161.169 146.286 162.249 146.286 163.569ZM138.426 153.969L138.026 156.369C140.326 156.769 144.666 157.169 147.006 157.329L147.406 154.869C145.286 154.849 140.746 154.469 138.426 153.969Z" fill="white"/>
<path d="M119.642 76.0032V52.0832L113.57 56.7752L109.568 51.3012L120.286 43.4352H127.37V76.0032H119.642Z" fill="white"/>
<circle cx="514.834" cy="127.997" r="119.666" stroke="url(#paint1_linear)" stroke-width="3"/>
<path d="M483.739 102.709L481.819 101.489C481.279 101.589 480.599 101.629 479.919 101.629H470.359C469.419 101.629 468.539 101.589 467.899 101.549C467.959 102.069 467.999 102.689 467.999 103.229V107.449C467.999 107.989 467.959 108.469 467.899 109.089H470.839C470.779 108.469 470.759 107.749 470.759 107.449V104.109H480.359C480.159 106.269 479.539 108.489 478.539 110.109C476.959 112.609 473.879 114.269 471.179 114.929L473.419 117.209C476.619 116.089 479.339 114.089 480.999 111.469C482.559 109.049 483.019 106.149 483.379 104.049C483.439 103.769 483.619 103.009 483.739 102.709ZM497.159 100.509L494.239 99.5494C494.059 100.229 493.639 101.149 493.339 101.649C492.339 103.369 490.599 105.949 487.099 108.089L489.339 109.749C491.299 108.409 493.039 106.649 494.379 104.909H499.999C499.679 106.409 498.519 108.809 497.159 110.369C495.419 112.349 493.199 114.089 489.099 115.309L491.459 117.429C495.219 115.949 497.639 114.109 499.539 111.789C501.339 109.549 502.479 106.889 503.019 105.109C503.179 104.609 503.459 104.049 503.679 103.669L501.639 102.409C501.179 102.549 500.519 102.649 499.899 102.649H495.879C495.899 102.609 495.919 102.589 495.939 102.549C496.179 102.109 496.699 101.209 497.159 100.509ZM523.739 102.709L521.819 101.489C521.279 101.589 520.599 101.629 519.919 101.629H510.359C509.419 101.629 508.539 101.589 507.899 101.549C507.959 102.069 507.999 102.689 507.999 103.229V107.449C507.999 107.989 507.959 108.469 507.899 109.089H510.839C510.779 108.469 510.759 107.749 510.759 107.449V104.109H520.359C520.159 106.269 519.539 108.489 518.539 110.109C516.959 112.609 513.879 114.269 511.179 114.929L513.419 117.209C516.619 116.089 519.339 114.089 520.999 111.469C522.559 109.049 523.019 106.149 523.379 104.049C523.439 103.769 523.619 103.009 523.739 102.709ZM537.159 100.509L534.239 99.5494C534.059 100.229 533.639 101.149 533.339 101.649C532.339 103.369 530.599 105.949 527.099 108.089L529.339 109.749C531.299 108.409 533.039 106.649 534.379 104.909H539.999C539.679 106.409 538.519 108.809 537.159 110.369C535.419 112.349 533.199 114.089 529.099 115.309L531.459 117.429C535.219 115.949 537.639 114.109 539.539 111.789C541.339 109.549 542.479 106.889 543.019 105.109C543.179 104.609 543.459 104.049 543.679 103.669L541.639 102.409C541.179 102.549 540.519 102.649 539.899 102.649H535.879C535.899 102.609 535.919 102.589 535.939 102.549C536.179 102.109 536.699 101.209 537.159 100.509ZM564.239 109.069C564.239 104.709 561.119 101.269 556.159 101.269C550.979 101.269 546.979 105.209 546.979 109.829C546.979 113.209 548.819 115.649 551.039 115.649C553.219 115.649 554.939 113.169 556.139 109.129C556.719 107.249 557.059 105.409 557.339 103.709C560.039 104.169 561.539 106.229 561.539 108.989C561.539 111.909 559.539 113.749 556.979 114.349C556.439 114.469 555.879 114.589 555.119 114.669L556.619 117.049C561.659 116.269 564.239 113.289 564.239 109.069ZM549.539 109.569C549.539 107.369 551.319 104.449 554.619 103.769C554.399 105.429 554.019 107.129 553.559 108.609C552.739 111.309 551.959 112.569 551.119 112.569C550.339 112.569 549.539 111.589 549.539 109.569ZM459.419 129.889H451.979V128.689H459.419V129.889ZM459.419 132.749H451.979V131.549H459.419V132.749ZM459.419 135.629H451.979V134.429H459.419V135.629ZM461.879 126.889H449.639V137.429H461.879V126.889ZM464.599 140.549V138.349H446.819V140.549H452.579C451.219 141.409 448.639 142.449 446.599 143.009C447.119 143.509 447.839 144.309 448.239 144.829C450.279 144.229 452.899 143.149 454.679 142.129L452.639 140.549H464.599ZM456.739 142.229C458.899 143.009 461.179 144.089 462.479 144.849L464.879 143.229C463.379 142.489 460.799 141.429 458.579 140.649L456.739 142.229ZM473.659 137.829C472.879 138.049 472.059 138.269 471.279 138.489V135.069H473.359V132.889H471.279V129.409H473.579V127.209H466.579V129.409H468.979V132.889H466.759V135.069H468.979V139.089C467.899 139.369 466.919 139.629 466.099 139.809L466.719 142.049C468.779 141.449 471.459 140.669 473.979 139.929L473.659 137.829ZM476.579 134.949H481.799V136.189H476.579V134.949ZM476.579 131.909H481.799V133.149H476.579V131.909ZM476.579 128.869H481.799V130.109H476.579V128.869ZM482.039 142.709C481.699 142.709 481.659 142.629 481.659 142.049V138.129H484.119V126.929H474.359V138.129H475.819C475.559 140.469 474.919 142.109 471.299 143.009C471.779 143.469 472.379 144.389 472.619 144.969C476.879 143.709 477.799 141.389 478.159 138.129H479.379V142.049C479.379 144.069 479.779 144.749 481.619 144.749H483.119C484.599 144.749 485.119 144.009 485.319 141.269C484.719 141.129 483.799 140.749 483.339 140.389C483.299 142.389 483.199 142.709 482.859 142.709H482.039ZM491.399 126.429C490.199 129.449 488.099 132.389 485.939 134.209C486.379 134.809 487.059 136.129 487.319 136.729C487.979 136.109 488.659 135.389 489.299 134.609V144.809H491.679V131.249C492.479 129.929 493.179 128.569 493.759 127.209L491.399 126.429ZM498.759 142.389C497.799 142.389 497.659 142.189 497.659 141.009V135.969C499.999 134.849 502.479 133.509 504.459 132.109L502.699 130.029C501.379 131.169 499.539 132.449 497.659 133.529V126.689H495.259V140.989C495.259 143.809 495.979 144.609 498.499 144.609H501.919C504.279 144.609 504.899 143.349 505.179 139.909C504.539 139.769 503.539 139.309 502.979 138.889C502.819 141.709 502.659 142.389 501.699 142.389H498.759ZM514.659 129.129V131.689C517.179 131.929 520.799 131.909 523.259 131.689V129.109C521.099 129.369 517.119 129.469 514.659 129.129ZM516.259 137.669L513.959 137.449C513.739 138.469 513.619 139.269 513.619 140.049C513.619 142.109 515.279 143.329 518.719 143.329C520.979 143.329 522.579 143.189 523.879 142.949L523.839 140.249C522.079 140.609 520.599 140.769 518.819 140.769C516.779 140.769 516.019 140.229 516.019 139.349C516.019 138.809 516.099 138.329 516.259 137.669ZM511.579 127.789L508.779 127.549C508.759 128.189 508.639 128.949 508.579 129.509C508.359 131.049 507.739 134.429 507.739 137.429C507.739 140.149 508.119 142.589 508.519 143.969L510.839 143.809C510.819 143.529 510.799 143.209 510.799 142.989C510.799 142.789 510.839 142.349 510.899 142.049C511.119 140.989 511.779 138.809 512.339 137.149L511.099 136.169C510.819 136.829 510.499 137.529 510.199 138.209C510.139 137.809 510.119 137.289 510.119 136.909C510.119 134.909 510.819 130.909 511.079 129.569C511.159 129.209 511.419 128.209 511.579 127.789ZM537.419 135.849V138.509H533.939V135.849H537.419ZM539.599 140.589V133.769H531.799V141.989H533.939V140.589H539.599ZM543.999 129.509H535.659C536.139 128.629 536.639 127.589 537.059 126.589L534.039 126.169C533.799 127.169 533.399 128.429 532.979 129.509H527.459V144.829H529.839V131.829H541.599V142.029C541.599 142.389 541.479 142.489 541.099 142.489C540.699 142.509 539.359 142.529 538.179 142.449C538.519 143.089 538.879 144.169 538.959 144.849C540.759 144.849 542.039 144.809 542.879 144.429C543.719 144.049 543.999 143.369 543.999 142.069V129.509ZM561.259 127.209H558.359C558.439 127.529 558.539 128.089 558.579 128.589C558.619 129.129 558.639 130.169 558.659 131.289C557.899 131.309 557.119 131.329 556.399 131.329C555.339 131.329 554.359 131.249 553.379 131.109V133.649C554.359 133.689 555.599 133.749 556.459 133.749C557.199 133.749 557.939 133.729 558.699 133.709C558.699 133.989 558.699 134.229 558.699 134.429C558.699 137.809 558.379 139.589 556.839 141.189C556.279 141.809 555.279 142.449 554.519 142.789L556.819 144.609C560.819 142.069 561.179 139.169 561.179 134.449C561.179 134.249 561.179 133.949 561.179 133.609C562.299 133.549 563.339 133.469 564.139 133.369L564.159 130.769C563.339 130.929 562.279 131.049 561.159 131.129C561.159 130.029 561.159 128.989 561.159 128.569C561.179 128.129 561.199 127.649 561.259 127.209ZM551.319 127.549L548.359 127.249C548.339 127.749 548.319 128.429 548.219 128.989C547.979 130.609 547.579 133.689 547.579 136.969C547.579 139.449 548.279 142.249 548.719 143.449L550.939 143.229C550.919 142.949 550.899 142.609 550.899 142.409C550.899 142.169 550.939 141.729 551.019 141.429C551.259 140.289 551.799 138.269 552.379 136.549L551.139 135.749C550.799 136.489 550.439 137.449 550.179 138.069C549.639 135.589 550.339 131.389 550.839 129.169C550.939 128.749 551.139 128.029 551.319 127.549ZM567.119 129.349L567.379 132.089C569.699 131.589 573.779 131.149 575.659 130.949C574.319 131.969 572.699 134.249 572.699 137.129C572.699 141.449 576.659 143.709 580.839 143.989L581.779 141.249C578.399 141.069 575.319 139.869 575.319 136.589C575.319 134.209 577.119 131.609 579.539 130.969C580.599 130.729 582.319 130.729 583.399 130.709L583.379 128.149C581.979 128.189 579.779 128.329 577.719 128.489C574.059 128.809 570.759 129.109 569.099 129.249C568.699 129.289 567.919 129.329 567.119 129.349ZM485.297 156.569L483.717 155.089C483.337 155.209 482.237 155.269 481.677 155.269H470.897C470.057 155.269 469.217 155.189 468.457 155.069V157.849C469.397 157.769 470.057 157.709 470.897 157.709H481.317C480.797 158.689 479.237 160.449 477.637 161.429L479.717 163.089C481.677 161.689 483.577 159.169 484.517 157.609C484.697 157.309 485.077 156.829 485.297 156.569ZM477.137 159.269H474.237C474.337 159.909 474.377 160.449 474.377 161.069C474.377 164.349 473.897 166.469 471.357 168.229C470.617 168.769 469.897 169.109 469.257 169.329L471.597 171.229C477.037 168.309 477.137 164.229 477.137 159.269ZM486.441 162.329L487.701 164.849C490.161 164.129 492.701 163.049 494.761 161.969V168.369C494.761 169.249 494.701 170.509 494.621 170.989H497.781C497.641 170.489 497.601 169.249 497.601 168.369V160.289C499.541 159.009 501.461 157.449 502.981 155.949L500.821 153.889C499.521 155.469 497.241 157.469 495.181 158.749C492.961 160.109 490.021 161.409 486.441 162.329ZM508.961 155.009V157.589C509.561 157.549 510.421 157.529 511.101 157.529H517.641C518.341 157.529 519.121 157.549 519.801 157.589V155.009C519.121 155.109 518.321 155.169 517.641 155.169H511.101C510.421 155.169 509.601 155.109 508.961 155.009ZM506.641 160.129V162.749C507.201 162.709 507.981 162.669 508.561 162.669H514.061C513.981 164.349 513.641 165.849 512.821 167.089C512.021 168.269 510.621 169.409 509.201 169.949L511.541 171.649C513.321 170.749 514.861 169.209 515.561 167.809C516.281 166.409 516.721 164.729 516.841 162.669H521.661C522.221 162.669 522.981 162.689 523.481 162.729V160.129C522.961 160.209 522.081 160.249 521.661 160.249H508.561C507.941 160.249 507.241 160.209 506.641 160.129ZM521.001 153.629L519.401 154.289C519.941 155.049 520.561 156.249 520.981 157.069L522.581 156.369C522.201 155.629 521.501 154.369 521.001 153.629ZM523.361 152.729L521.781 153.389C522.321 154.149 522.961 155.309 523.381 156.149L524.981 155.449C524.621 154.749 523.881 153.489 523.361 152.729ZM544.301 156.569L542.721 155.089C542.341 155.209 541.241 155.269 540.681 155.269H529.901C529.061 155.269 528.221 155.189 527.461 155.069V157.849C528.401 157.769 529.061 157.709 529.901 157.709H540.321C539.801 158.689 538.241 160.449 536.641 161.429L538.721 163.089C540.681 161.689 542.581 159.169 543.521 157.609C543.701 157.309 544.081 156.829 544.301 156.569ZM536.141 159.269H533.241C533.341 159.909 533.381 160.449 533.381 161.069C533.381 164.349 532.901 166.469 530.361 168.229C529.621 168.769 528.901 169.109 528.261 169.329L530.601 171.229C536.041 168.309 536.141 164.229 536.141 159.269ZM554.921 154.069L552.281 153.849C552.241 154.569 552.101 155.349 551.881 156.149C551.561 156.149 551.221 156.149 550.921 156.149C549.901 156.149 548.421 156.069 547.401 155.909V158.249C548.501 158.329 549.961 158.369 550.781 158.369C550.861 158.369 550.941 158.369 551.041 158.369C550.141 160.169 548.721 161.949 546.621 163.889L548.761 165.489C549.441 164.609 550.021 163.889 550.621 163.289C551.381 162.549 552.621 161.909 553.741 161.909C554.301 161.909 554.841 162.089 555.141 162.589C552.861 163.769 550.461 165.369 550.461 167.929C550.461 170.509 552.781 171.269 555.921 171.269C557.801 171.269 560.261 171.109 561.581 170.929L561.661 168.349C559.901 168.689 557.681 168.909 555.981 168.909C554.021 168.909 553.081 168.609 553.081 167.509C553.081 166.509 553.881 165.729 555.381 164.869C555.361 165.749 555.341 166.709 555.281 167.309H557.681C557.661 166.389 557.621 164.909 557.601 163.789C558.821 163.229 559.961 162.789 560.861 162.429C561.541 162.169 562.601 161.769 563.241 161.589L562.241 159.269C561.501 159.649 560.801 159.969 560.021 160.309C559.201 160.669 558.361 161.009 557.321 161.489C556.881 160.469 555.881 159.949 554.661 159.949C554.001 159.949 552.921 160.109 552.401 160.349C552.801 159.769 553.201 159.049 553.541 158.309C555.701 158.249 558.161 158.089 560.061 157.809L560.081 155.489C558.321 155.789 556.321 155.969 554.421 156.069C554.681 155.229 554.821 154.569 554.921 154.069ZM491.259 190.369V195.349H486.799V189.309H492.939V182.049H490.439V186.989H486.799V180.369H484.359V186.989H480.919V182.049H478.559V189.309H484.359V195.349H480.179V190.369H477.759V198.849H480.179V197.689H491.259V198.829H493.739V190.369H491.259ZM503.119 181.249L499.899 181.209C500.079 182.009 500.159 182.969 500.159 183.909C500.159 185.629 499.959 190.889 499.959 193.569C499.959 196.989 502.079 198.429 505.359 198.429C509.919 198.429 512.759 195.749 514.039 193.829L512.219 191.629C510.779 193.809 508.679 195.709 505.379 195.709C503.819 195.709 502.619 195.049 502.619 193.029C502.619 190.549 502.779 186.069 502.859 183.909C502.899 183.109 502.999 182.089 503.119 181.249ZM529.679 192.769V196.029H521.779V192.769H529.679ZM519.439 198.869H521.779V198.129H529.679V198.869H532.119V190.669H519.439V198.869ZM521.659 186.589C523.299 185.289 524.699 183.869 525.639 182.529C526.599 183.849 528.079 185.289 529.739 186.589H521.659ZM524.299 180.189C522.799 182.629 519.599 185.649 516.159 187.309C516.679 187.809 517.339 188.669 517.659 189.249C518.719 188.669 519.779 188.009 520.759 187.289V188.689H530.719V187.309C531.719 188.029 532.759 188.689 533.779 189.209C534.199 188.469 534.739 187.689 535.319 187.069C532.139 185.789 528.899 183.249 526.759 180.189H524.299ZM549.399 190.569C549.399 193.689 546.199 195.329 541.239 195.889L542.679 198.369C548.239 197.609 552.199 194.949 552.199 190.669C552.199 187.529 549.979 185.729 546.819 185.729C544.479 185.729 542.239 186.309 540.779 186.649C540.119 186.789 539.259 186.929 538.579 186.989L539.339 189.849C539.919 189.629 540.699 189.309 541.279 189.149C542.299 188.849 544.279 188.169 546.479 188.169C548.359 188.169 549.399 189.249 549.399 190.569ZM541.539 180.969L541.139 183.369C543.439 183.769 547.779 184.169 550.119 184.329L550.519 181.869C548.399 181.849 543.859 181.469 541.539 180.969Z" fill="white"/>
<path d="M502.865 76.0032V69.5632L515.561 58.0632C516.358 57.2965 517.002 56.5145 517.493 55.7172C517.984 54.9198 518.229 54.0305 518.229 53.0492C518.229 51.8838 517.861 50.9485 517.125 50.2432C516.389 49.5072 515.408 49.1392 514.181 49.1392C512.893 49.1392 511.835 49.5992 511.007 50.5192C510.21 51.4085 509.734 52.5892 509.581 54.0612L502.175 53.0492C502.359 51.3932 502.804 49.9212 503.509 48.6332C504.245 47.3452 505.165 46.2565 506.269 45.3672C507.373 44.4472 508.63 43.7572 510.041 43.2972C511.482 42.8065 513 42.5612 514.595 42.5612C516.098 42.5612 517.554 42.7605 518.965 43.1592C520.376 43.5578 521.633 44.1712 522.737 44.9992C523.841 45.8272 524.715 46.8698 525.359 48.1272C526.034 49.3845 526.371 50.8565 526.371 52.5432C526.371 53.7085 526.218 54.7665 525.911 55.7172C525.604 56.6372 525.175 57.4958 524.623 58.2932C524.102 59.0905 523.488 59.8418 522.783 60.5472C522.108 61.2218 521.403 61.8965 520.667 62.5712L513.123 69.2872H526.417V76.0032H502.865Z" fill="white"/>
<circle cx="121.72" cy="467.263" r="119.666" stroke="url(#paint2_linear)" stroke-width="3"/>
<path d="M90.6259 441.975L88.7059 440.755C88.1659 440.855 87.4859 440.895 86.8059 440.895H77.2459C76.3059 440.895 75.4259 440.855 74.7859 440.815C74.8459 441.335 74.8859 441.955 74.8859 442.495V446.715C74.8859 447.255 74.8459 447.735 74.7859 448.355H77.7259C77.6659 447.735 77.6459 447.015 77.6459 446.715V443.375H87.2459C87.0459 445.535 86.4259 447.755 85.4259 449.375C83.8459 451.875 80.7659 453.535 78.0659 454.195L80.3059 456.475C83.5059 455.355 86.2259 453.355 87.8859 450.735C89.4459 448.315 89.9059 445.415 90.2659 443.315C90.3259 443.035 90.5059 442.275 90.6259 441.975ZM104.046 439.775L101.126 438.815C100.946 439.495 100.526 440.415 100.226 440.915C99.2259 442.635 97.4859 445.215 93.9859 447.355L96.2259 449.015C98.1859 447.675 99.9259 445.915 101.266 444.175H106.886C106.566 445.675 105.406 448.075 104.046 449.635C102.306 451.615 100.086 453.355 95.9859 454.575L98.3459 456.695C102.106 455.215 104.526 453.375 106.426 451.055C108.226 448.815 109.366 446.155 109.906 444.375C110.066 443.875 110.346 443.315 110.566 442.935L108.526 441.675C108.066 441.815 107.406 441.915 106.786 441.915H102.766C102.786 441.875 102.806 441.855 102.826 441.815C103.066 441.375 103.586 440.475 104.046 439.775ZM130.626 441.975L128.706 440.755C128.166 440.855 127.486 440.895 126.806 440.895H117.246C116.306 440.895 115.426 440.855 114.786 440.815C114.846 441.335 114.886 441.955 114.886 442.495V446.715C114.886 447.255 114.846 447.735 114.786 448.355H117.726C117.666 447.735 117.646 447.015 117.646 446.715V443.375H127.246C127.046 445.535 126.426 447.755 125.426 449.375C123.846 451.875 120.766 453.535 118.066 454.195L120.306 456.475C123.506 455.355 126.226 453.355 127.886 450.735C129.446 448.315 129.906 445.415 130.266 443.315C130.326 443.035 130.506 442.275 130.626 441.975ZM144.046 439.775L141.126 438.815C140.946 439.495 140.526 440.415 140.226 440.915C139.226 442.635 137.486 445.215 133.986 447.355L136.226 449.015C138.186 447.675 139.926 445.915 141.266 444.175H146.886C146.566 445.675 145.406 448.075 144.046 449.635C142.306 451.615 140.086 453.355 135.986 454.575L138.346 456.695C142.106 455.215 144.526 453.375 146.426 451.055C148.226 448.815 149.366 446.155 149.906 444.375C150.066 443.875 150.346 443.315 150.566 442.935L148.526 441.675C148.066 441.815 147.406 441.915 146.786 441.915H142.766C142.786 441.875 142.806 441.855 142.826 441.815C143.066 441.375 143.586 440.475 144.046 439.775ZM171.126 448.335C171.126 443.975 168.006 440.535 163.046 440.535C157.866 440.535 153.866 444.475 153.866 449.095C153.866 452.475 155.706 454.915 157.926 454.915C160.106 454.915 161.826 452.435 163.026 448.395C163.606 446.515 163.946 444.675 164.226 442.975C166.926 443.435 168.426 445.495 168.426 448.255C168.426 451.175 166.426 453.015 163.866 453.615C163.326 453.735 162.766 453.855 162.006 453.935L163.506 456.315C168.546 455.535 171.126 452.555 171.126 448.335ZM156.426 448.835C156.426 446.635 158.206 443.715 161.506 443.035C161.286 444.695 160.906 446.395 160.446 447.875C159.626 450.575 158.846 451.835 158.006 451.835C157.226 451.835 156.426 450.855 156.426 448.835ZM73.7259 476.695H71.2659V474.435H73.7259V476.695ZM78.0259 474.435V473.795C78.7859 474.375 79.6059 474.875 80.4859 475.295C80.8459 474.655 81.5659 473.715 82.1259 473.255C80.9859 472.795 79.9459 472.175 79.0059 471.415C79.8859 470.795 80.8459 470.015 81.6659 469.255L79.9259 468.015C79.3659 468.695 78.4859 469.515 77.6659 470.175C77.3659 469.835 77.0659 469.495 76.7859 469.135C77.6059 468.535 78.5259 467.755 79.3459 467.015L77.5459 465.735C77.0859 466.295 76.4259 466.995 75.7659 467.595C75.3659 466.915 75.0459 466.195 74.7659 465.455L72.6259 466.055C73.5059 468.415 74.7059 470.495 76.2659 472.175H69.0259C70.4259 470.735 71.5659 468.955 72.2659 466.855L70.6859 466.115L70.2659 466.195H65.0459V468.235H69.1259C68.7659 468.875 68.3459 469.475 67.8659 470.035C67.3059 469.555 66.5459 468.975 65.9459 468.555L64.4459 469.795C65.1059 470.295 65.9059 470.975 66.4259 471.495C65.4059 472.375 64.2659 473.075 63.1059 473.555C63.5659 473.995 64.2259 474.815 64.5459 475.355C65.4659 474.915 66.3659 474.395 67.2059 473.775V474.435H68.8859V476.695H64.6059V478.875H68.5659C68.0659 480.215 66.8659 481.455 64.1059 482.295C64.6059 482.735 65.3259 483.655 65.6259 484.195C69.3259 482.955 70.6459 480.975 71.0859 478.875H73.7259V481.055C73.7259 483.275 74.2659 483.975 76.4259 483.975H78.6059C80.3659 483.975 80.9859 483.175 81.2259 480.535C80.5459 480.395 79.5859 479.995 79.0859 479.595C79.0059 481.475 78.9059 481.875 78.3859 481.875H76.8459C76.2859 481.875 76.2059 481.755 76.2059 481.035V478.875H80.4659V476.695H76.2059V474.435H78.0259ZM99.3859 475.115C98.5659 475.875 97.3659 476.775 96.2459 477.515C95.7459 476.695 95.3659 475.815 95.0459 474.835H101.406V472.815H93.7259V471.695H99.9859V469.795H93.7259V468.775H100.766V466.755H93.7259V465.435H91.3459V466.755H84.4659V468.775H91.3459V469.795H85.4059V471.695H91.3459V472.815H83.7259V474.835H89.8059C87.9259 476.135 85.3659 477.275 82.9859 477.895C83.4859 478.375 84.1659 479.275 84.5059 479.815C85.6059 479.475 86.7259 479.035 87.8259 478.495V481.355C86.8259 481.555 85.8859 481.735 85.1059 481.875L85.8059 484.075C88.2859 483.535 91.6459 482.835 94.7859 482.095L94.5659 479.935C93.1259 480.255 91.6259 480.575 90.2059 480.875V477.155C91.1659 476.535 92.0659 475.855 92.8259 475.135C94.1459 479.575 96.3459 482.615 100.566 484.055C100.906 483.395 101.586 482.435 102.106 481.935C100.126 481.375 98.5659 480.395 97.3859 479.075C98.6259 478.415 100.106 477.495 101.366 476.595L99.3859 475.115ZM112.306 466.335L109.666 466.115C109.626 466.835 109.486 467.615 109.266 468.415C108.946 468.415 108.606 468.415 108.306 468.415C107.286 468.415 105.806 468.335 104.786 468.175V470.515C105.886 470.595 107.346 470.635 108.166 470.635C108.246 470.635 108.326 470.635 108.426 470.635C107.526 472.435 106.106 474.215 104.006 476.155L106.146 477.755C106.826 476.875 107.406 476.155 108.006 475.555C108.766 474.815 110.006 474.175 111.126 474.175C111.686 474.175 112.226 474.355 112.526 474.855C110.246 476.035 107.846 477.635 107.846 480.195C107.846 482.775 110.166 483.535 113.306 483.535C115.186 483.535 117.646 483.375 118.966 483.195L119.046 480.615C117.286 480.955 115.066 481.175 113.366 481.175C111.406 481.175 110.466 480.875 110.466 479.775C110.466 478.775 111.266 477.995 112.766 477.135C112.746 478.015 112.726 478.975 112.666 479.575H115.066C115.046 478.655 115.006 477.175 114.986 476.055C116.206 475.495 117.346 475.055 118.246 474.695C118.926 474.435 119.986 474.035 120.626 473.855L119.626 471.535C118.886 471.915 118.186 472.235 117.406 472.575C116.586 472.935 115.746 473.275 114.706 473.755C114.266 472.735 113.266 472.215 112.046 472.215C111.386 472.215 110.306 472.375 109.786 472.615C110.186 472.035 110.586 471.315 110.926 470.575C113.086 470.515 115.546 470.355 117.446 470.075L117.466 467.755C115.706 468.055 113.706 468.235 111.806 468.335C112.066 467.495 112.206 466.835 112.306 466.335ZM130.006 466.515L126.786 466.475C126.966 467.275 127.046 468.235 127.046 469.175C127.046 470.895 126.846 476.155 126.846 478.835C126.846 482.255 128.966 483.695 132.246 483.695C136.806 483.695 139.646 481.015 140.926 479.095L139.106 476.895C137.666 479.075 135.566 480.975 132.266 480.975C130.706 480.975 129.506 480.315 129.506 478.295C129.506 475.815 129.666 471.335 129.746 469.175C129.786 468.375 129.886 467.355 130.006 466.515ZM156.566 478.035V481.295H148.666V478.035H156.566ZM146.326 484.135H148.666V483.395H156.566V484.135H159.006V475.935H146.326V484.135ZM148.546 471.855C150.186 470.555 151.586 469.135 152.526 467.795C153.486 469.115 154.966 470.555 156.626 471.855H148.546ZM151.186 465.455C149.686 467.895 146.486 470.915 143.046 472.575C143.566 473.075 144.226 473.935 144.546 474.515C145.606 473.935 146.666 473.275 147.646 472.555V473.955H157.606V472.575C158.606 473.295 159.646 473.955 160.666 474.475C161.086 473.735 161.626 472.955 162.206 472.335C159.026 471.055 155.786 468.515 153.646 465.455H151.186ZM167.786 468.075L164.706 468.035C164.826 468.655 164.866 469.515 164.866 470.075C164.866 471.295 164.886 473.635 165.086 475.475C165.646 480.835 167.546 482.815 169.746 482.815C171.346 482.815 172.606 481.595 173.926 478.115L171.926 475.675C171.546 477.275 170.746 479.615 169.806 479.615C168.546 479.615 167.946 477.635 167.666 474.755C167.546 473.315 167.526 471.815 167.546 470.515C167.546 469.955 167.646 468.795 167.786 468.075ZM177.786 468.535L175.246 469.355C177.426 471.835 178.486 476.695 178.806 479.915L181.426 478.895C181.206 475.835 179.686 470.835 177.786 468.535ZM59.0259 496.475C58.2659 495.635 56.6459 494.435 55.4659 493.675L53.7459 495.415C54.9859 496.295 56.5459 497.575 57.2459 498.435L59.0259 496.475ZM57.7259 501.535C56.0859 503.355 54.3059 505.195 53.2059 506.275L54.7259 508.295C56.0859 506.955 57.7059 505.215 59.1059 503.595L57.7259 501.535ZM66.0059 498.255H68.8259C68.4659 499.395 67.9659 500.535 67.5659 501.295C68.1259 501.515 69.1059 501.995 69.5859 502.275C70.3659 500.835 71.3259 498.775 71.8859 496.775L70.1259 495.755L69.6659 495.875H62.7859C63.1059 494.935 63.3659 493.955 63.5859 492.955L61.1059 492.495C60.4859 495.695 59.2859 498.775 57.5859 500.615C58.1859 500.895 59.3459 501.535 59.8259 501.915C60.5859 500.935 61.3059 499.675 61.9059 498.255H63.5059V500.315C63.5059 502.535 62.1659 506.955 56.7659 509.115C57.1859 509.555 57.9259 510.555 58.2059 511.115C62.2459 509.355 64.2859 505.955 64.7659 504.175C65.1459 505.955 67.0059 509.475 70.5859 511.115C70.9659 510.495 71.6459 509.515 72.1059 508.935C67.2059 506.795 66.0059 502.435 66.0059 500.295V498.255ZM91.1259 502.335C91.1259 497.975 88.0059 494.535 83.0459 494.535C77.8659 494.535 73.8659 498.475 73.8659 503.095C73.8659 506.475 75.7059 508.915 77.9259 508.915C80.1059 508.915 81.8259 506.435 83.0259 502.395C83.6059 500.515 83.9459 498.675 84.2259 496.975C86.9259 497.435 88.4259 499.495 88.4259 502.255C88.4259 505.175 86.4259 507.015 83.8659 507.615C83.3259 507.735 82.7659 507.855 82.0059 507.935L83.5059 510.315C88.5459 509.535 91.1259 506.555 91.1259 502.335ZM76.4259 502.835C76.4259 500.635 78.2059 497.715 81.5059 497.035C81.2859 498.695 80.9059 500.395 80.4459 501.875C79.6259 504.575 78.8459 505.835 78.0059 505.835C77.2259 505.835 76.4259 504.855 76.4259 502.835ZM110.626 495.975L108.706 494.755C108.166 494.855 107.486 494.895 106.806 494.895H97.2459C96.3059 494.895 95.4259 494.855 94.7859 494.815C94.8459 495.335 94.8859 495.955 94.8859 496.495V500.715C94.8859 501.255 94.8459 501.735 94.7859 502.355H97.7259C97.6659 501.735 97.6459 501.015 97.6459 500.715V497.375H107.246C107.046 499.535 106.426 501.755 105.426 503.375C103.846 505.875 100.766 507.535 98.0659 508.195L100.306 510.475C103.506 509.355 106.226 507.355 107.886 504.735C109.446 502.315 109.906 499.415 110.266 497.315C110.326 497.035 110.506 496.275 110.626 495.975ZM124.046 493.775L121.126 492.815C120.946 493.495 120.526 494.415 120.226 494.915C119.226 496.635 117.486 499.215 113.986 501.355L116.226 503.015C118.186 501.675 119.926 499.915 121.266 498.175H126.886C126.566 499.675 125.406 502.075 124.046 503.635C122.306 505.615 120.086 507.355 115.986 508.575L118.346 510.695C122.106 509.215 124.526 507.375 126.426 505.055C128.226 502.815 129.366 500.155 129.906 498.375C130.066 497.875 130.346 497.315 130.566 496.935L128.526 495.675C128.066 495.815 127.406 495.915 126.786 495.915H122.766C122.786 495.875 122.806 495.855 122.826 495.815C123.066 495.375 123.586 494.475 124.046 493.775ZM150.626 495.975L148.706 494.755C148.166 494.855 147.486 494.895 146.806 494.895H137.246C136.306 494.895 135.426 494.855 134.786 494.815C134.846 495.335 134.886 495.955 134.886 496.495V500.715C134.886 501.255 134.846 501.735 134.786 502.355H137.726C137.666 501.735 137.646 501.015 137.646 500.715V497.375H147.246C147.046 499.535 146.426 501.755 145.426 503.375C143.846 505.875 140.766 507.535 138.066 508.195L140.306 510.475C143.506 509.355 146.226 507.355 147.886 504.735C149.446 502.315 149.906 499.415 150.266 497.315C150.326 497.035 150.506 496.275 150.626 495.975ZM164.046 493.775L161.126 492.815C160.946 493.495 160.526 494.415 160.226 494.915C159.226 496.635 157.486 499.215 153.986 501.355L156.226 503.015C158.186 501.675 159.926 499.915 161.266 498.175H166.886C166.566 499.675 165.406 502.075 164.046 503.635C162.306 505.615 160.086 507.355 155.986 508.575L158.346 510.695C162.106 509.215 164.526 507.375 166.426 505.055C168.226 502.815 169.366 500.155 169.906 498.375C170.066 497.875 170.346 497.315 170.566 496.935L168.526 495.675C168.066 495.815 167.406 495.915 166.786 495.915H162.766C162.786 495.875 162.806 495.855 162.826 495.815C163.066 495.375 163.586 494.475 164.046 493.775ZM182.306 493.335L179.666 493.115C179.626 493.835 179.486 494.615 179.266 495.415C178.946 495.415 178.606 495.415 178.306 495.415C177.286 495.415 175.806 495.335 174.786 495.175V497.515C175.886 497.595 177.346 497.635 178.166 497.635C178.246 497.635 178.326 497.635 178.426 497.635C177.526 499.435 176.106 501.215 174.006 503.155L176.146 504.755C176.826 503.875 177.406 503.155 178.006 502.555C178.766 501.815 180.006 501.175 181.126 501.175C181.686 501.175 182.226 501.355 182.526 501.855C180.246 503.035 177.846 504.635 177.846 507.195C177.846 509.775 180.166 510.535 183.306 510.535C185.186 510.535 187.646 510.375 188.966 510.195L189.046 507.615C187.286 507.955 185.066 508.175 183.366 508.175C181.406 508.175 180.466 507.875 180.466 506.775C180.466 505.775 181.266 504.995 182.766 504.135C182.746 505.015 182.726 505.975 182.666 506.575H185.066C185.046 505.655 185.006 504.175 184.986 503.055C186.206 502.495 187.346 502.055 188.246 501.695C188.926 501.435 189.986 501.035 190.626 500.855L189.626 498.535C188.886 498.915 188.186 499.235 187.406 499.575C186.586 499.935 185.746 500.275 184.706 500.755C184.266 499.735 183.266 499.215 182.046 499.215C181.386 499.215 180.306 499.375 179.786 499.615C180.186 499.035 180.586 498.315 180.926 497.575C183.086 497.515 185.546 497.355 187.446 497.075L187.466 494.755C185.706 495.055 183.706 495.235 181.806 495.335C182.066 494.495 182.206 493.835 182.306 493.335ZM86.8659 521.235L86.9659 523.815C87.4859 523.735 88.1859 523.675 88.5859 523.655C89.5059 523.595 91.2259 523.535 92.0259 523.495C91.5659 524.435 90.9859 525.795 90.4259 527.115C86.4059 527.295 83.5859 529.655 83.5859 532.755C83.5859 534.775 84.9059 535.995 86.6659 535.995C88.0259 535.995 88.9859 535.435 89.7859 534.235C90.4859 533.135 91.3259 531.135 92.0459 529.435C93.7659 529.675 95.3659 530.275 96.7859 531.055C96.1259 532.875 94.7259 534.775 91.7059 536.075L93.8259 537.815C96.5059 536.415 98.0259 534.655 98.9059 532.395C99.5259 532.855 100.106 533.315 100.626 533.795L101.786 531.015C101.206 530.615 100.486 530.155 99.6459 529.675C99.8459 528.555 99.9459 527.315 100.026 525.975L97.4059 525.675C97.4659 526.275 97.4659 527.075 97.4059 527.855C97.3859 528.075 97.3659 528.295 97.3459 528.535C96.0459 527.975 94.5659 527.495 93.0059 527.255C93.7259 525.555 94.4859 523.815 95.0059 522.955C95.1659 522.675 95.4059 522.415 95.6859 522.115L94.0859 520.875C93.7459 521.015 93.2259 521.135 92.7259 521.155C91.7859 521.235 89.6659 521.335 88.5259 521.335C88.0859 521.335 87.4059 521.295 86.8659 521.235ZM85.9259 532.375C85.9259 531.115 87.1859 529.755 89.4259 529.415C88.8659 530.675 88.3259 531.935 87.8059 532.675C87.4459 533.175 87.1659 533.375 86.7659 533.375C86.3059 533.375 85.9259 533.035 85.9259 532.375ZM103.666 525.415L104.806 528.215C106.886 527.315 111.626 525.315 114.566 525.315C116.966 525.315 118.266 526.755 118.266 528.635C118.266 532.115 114.026 533.675 108.606 533.815L109.766 536.475C116.806 536.115 121.126 533.215 121.126 528.675C121.126 524.975 118.286 522.895 114.666 522.895C111.746 522.895 107.666 524.335 106.126 524.815C105.406 525.015 104.406 525.295 103.666 525.415ZM138.146 520.475H135.246C135.326 520.795 135.426 521.355 135.466 521.855C135.506 522.395 135.526 523.435 135.546 524.555C134.786 524.575 134.006 524.595 133.286 524.595C132.226 524.595 131.246 524.515 130.266 524.375V526.915C131.246 526.955 132.486 527.015 133.346 527.015C134.086 527.015 134.826 526.995 135.586 526.975C135.586 527.255 135.586 527.495 135.586 527.695C135.586 531.075 135.266 532.855 133.726 534.455C133.166 535.075 132.166 535.715 131.406 536.055L133.706 537.875C137.706 535.335 138.066 532.435 138.066 527.715C138.066 527.515 138.066 527.215 138.066 526.875C139.186 526.815 140.226 526.735 141.026 526.635L141.046 524.035C140.226 524.195 139.166 524.315 138.046 524.395C138.046 523.295 138.046 522.255 138.046 521.835C138.066 521.395 138.086 520.915 138.146 520.475ZM128.206 520.815L125.246 520.515C125.226 521.015 125.206 521.695 125.106 522.255C124.866 523.875 124.466 526.955 124.466 530.235C124.466 532.715 125.166 535.515 125.606 536.715L127.826 536.495C127.806 536.215 127.786 535.875 127.786 535.675C127.786 535.435 127.826 534.995 127.906 534.695C128.146 533.555 128.686 531.535 129.266 529.815L128.026 529.015C127.686 529.755 127.326 530.715 127.066 531.335C126.526 528.855 127.226 524.655 127.726 522.435C127.826 522.015 128.026 521.295 128.206 520.815ZM150.386 534.015C150.386 533.515 150.866 533.055 151.626 533.055C152.706 533.055 153.446 533.895 153.566 535.195C153.206 535.235 152.826 535.255 152.406 535.255C151.206 535.255 150.386 534.755 150.386 534.015ZM146.986 521.135L147.066 523.735C147.526 523.675 148.166 523.615 148.706 523.575C149.766 523.515 152.526 523.395 153.546 523.375C152.566 524.235 150.486 525.915 149.366 526.835C148.186 527.815 145.766 529.855 144.346 530.995L146.166 532.875C148.306 530.435 150.306 528.815 153.366 528.815C155.726 528.815 157.526 530.035 157.526 531.835C157.526 533.055 156.966 533.975 155.866 534.555C155.586 532.655 154.086 531.135 151.606 531.135C149.486 531.135 148.026 532.635 148.026 534.255C148.026 536.255 150.126 537.535 152.906 537.535C157.746 537.535 160.146 535.035 160.146 531.875C160.146 528.955 157.566 526.835 154.166 526.835C153.526 526.835 152.926 526.895 152.266 527.055C153.526 526.055 155.626 524.295 156.706 523.535C157.166 523.195 157.646 522.915 158.106 522.615L156.806 520.835C156.566 520.915 156.106 520.975 155.286 521.055C154.146 521.155 149.866 521.235 148.806 521.235C148.246 521.235 147.546 521.215 146.986 521.135Z" fill="white"/>
<path d="M130.314 408.921V415.269H123.092V408.921H107.774V402.435L121.022 382.701H130.268V402.665H134.776V408.921H130.314ZM123.138 390.613H123L115.272 402.665H123.138V390.613Z" fill="white"/>
<circle cx="513.103" cy="467.263" r="119.666" stroke="url(#paint3_linear)" stroke-width="3"/>
<path d="M483.566 441.835L481.986 440.355C481.606 440.475 480.506 440.535 479.946 440.535H469.166C468.326 440.535 467.486 440.455 466.726 440.335V443.115C467.666 443.035 468.326 442.975 469.166 442.975H479.586C479.066 443.955 477.506 445.715 475.906 446.695L477.986 448.355C479.946 446.955 481.846 444.435 482.786 442.875C482.966 442.575 483.346 442.095 483.566 441.835ZM475.406 444.535H472.506C472.606 445.175 472.646 445.715 472.646 446.335C472.646 449.615 472.166 451.735 469.626 453.495C468.886 454.035 468.166 454.375 467.526 454.595L469.866 456.495C475.306 453.575 475.406 449.495 475.406 444.535ZM484.71 447.595L485.97 450.115C488.43 449.395 490.97 448.315 493.03 447.235V453.635C493.03 454.515 492.97 455.775 492.89 456.255H496.05C495.91 455.755 495.87 454.515 495.87 453.635V445.555C497.81 444.275 499.73 442.715 501.25 441.215L499.09 439.155C497.79 440.735 495.51 442.735 493.45 444.015C491.23 445.375 488.29 446.675 484.71 447.595ZM507.23 440.275V442.855C507.83 442.815 508.69 442.795 509.37 442.795H515.91C516.61 442.795 517.39 442.815 518.07 442.855V440.275C517.39 440.375 516.59 440.435 515.91 440.435H509.37C508.69 440.435 507.87 440.375 507.23 440.275ZM504.91 445.395V448.015C505.47 447.975 506.25 447.935 506.83 447.935H512.33C512.25 449.615 511.91 451.115 511.09 452.355C510.29 453.535 508.89 454.675 507.47 455.215L509.81 456.915C511.59 456.015 513.13 454.475 513.83 453.075C514.55 451.675 514.99 449.995 515.11 447.935H519.93C520.49 447.935 521.25 447.955 521.75 447.995V445.395C521.23 445.475 520.35 445.515 519.93 445.515H506.83C506.21 445.515 505.51 445.475 504.91 445.395ZM519.27 438.895L517.67 439.555C518.21 440.315 518.83 441.515 519.25 442.335L520.85 441.635C520.47 440.895 519.77 439.635 519.27 438.895ZM521.63 437.995L520.05 438.655C520.59 439.415 521.23 440.575 521.65 441.415L523.25 440.715C522.89 440.015 522.15 438.755 521.63 437.995ZM542.57 441.835L540.99 440.355C540.61 440.475 539.51 440.535 538.95 440.535H528.17C527.33 440.535 526.49 440.455 525.73 440.335V443.115C526.67 443.035 527.33 442.975 528.17 442.975H538.59C538.07 443.955 536.51 445.715 534.91 446.695L536.99 448.355C538.95 446.955 540.85 444.435 541.79 442.875C541.97 442.575 542.35 442.095 542.57 441.835ZM534.41 444.535H531.51C531.61 445.175 531.65 445.715 531.65 446.335C531.65 449.615 531.17 451.735 528.63 453.495C527.89 454.035 527.17 454.375 526.53 454.595L528.87 456.495C534.31 453.575 534.41 449.495 534.41 444.535ZM553.19 439.335L550.55 439.115C550.51 439.835 550.37 440.615 550.15 441.415C549.83 441.415 549.49 441.415 549.19 441.415C548.17 441.415 546.69 441.335 545.67 441.175V443.515C546.77 443.595 548.23 443.635 549.05 443.635C549.13 443.635 549.21 443.635 549.31 443.635C548.41 445.435 546.99 447.215 544.89 449.155L547.03 450.755C547.71 449.875 548.29 449.155 548.89 448.555C549.65 447.815 550.89 447.175 552.01 447.175C552.57 447.175 553.11 447.355 553.41 447.855C551.13 449.035 548.73 450.635 548.73 453.195C548.73 455.775 551.05 456.535 554.19 456.535C556.07 456.535 558.53 456.375 559.85 456.195L559.93 453.615C558.17 453.955 555.95 454.175 554.25 454.175C552.29 454.175 551.35 453.875 551.35 452.775C551.35 451.775 552.15 450.995 553.65 450.135C553.63 451.015 553.61 451.975 553.55 452.575H555.95C555.93 451.655 555.89 450.175 555.87 449.055C557.09 448.495 558.23 448.055 559.13 447.695C559.81 447.435 560.87 447.035 561.51 446.855L560.51 444.535C559.77 444.915 559.07 445.235 558.29 445.575C557.47 445.935 556.63 446.275 555.59 446.755C555.15 445.735 554.15 445.215 552.93 445.215C552.27 445.215 551.19 445.375 550.67 445.615C551.07 445.035 551.47 444.315 551.81 443.575C553.97 443.515 556.43 443.355 558.33 443.075L558.35 440.755C556.59 441.055 554.59 441.235 552.69 441.335C552.95 440.495 553.09 439.835 553.19 439.335ZM437.311 467.675V470.175C437.891 470.135 438.531 470.115 439.251 470.115H441.431V473.515H438.171C437.551 473.515 436.551 473.455 435.991 473.415V476.035C436.591 475.995 437.591 475.935 438.171 475.935H441.431V479.795C441.431 481.815 442.331 483.075 445.991 483.075C447.871 483.075 450.131 482.995 451.431 482.915L451.611 480.215C450.011 480.375 448.251 480.495 446.451 480.495C444.851 480.495 444.171 480.095 444.171 478.995V475.935H450.271C450.711 475.935 451.611 475.935 452.171 475.995L452.151 473.435C451.631 473.475 450.631 473.515 450.211 473.515H444.171V470.115H448.871C449.591 470.115 450.151 470.155 450.671 470.175V467.675C450.211 467.735 449.551 467.775 448.871 467.775H439.251C438.531 467.775 437.891 467.715 437.311 467.675ZM470.551 467.735L467.431 466.935C466.891 469.795 465.571 473.255 463.651 475.575C461.871 477.735 459.171 479.715 456.051 480.775L458.331 483.115C461.411 481.875 464.211 479.435 465.911 477.315C467.531 475.295 468.831 472.275 469.671 469.975C469.911 469.335 470.191 468.455 470.551 467.735ZM482.831 468.395V470.955C485.351 471.195 488.971 471.175 491.431 470.955V468.375C489.271 468.635 485.291 468.735 482.831 468.395ZM484.431 476.935L482.131 476.715C481.911 477.735 481.791 478.535 481.791 479.315C481.791 481.375 483.451 482.595 486.891 482.595C489.151 482.595 490.751 482.455 492.051 482.215L492.011 479.515C490.251 479.875 488.771 480.035 486.991 480.035C484.951 480.035 484.191 479.495 484.191 478.615C484.191 478.075 484.271 477.595 484.431 476.935ZM479.751 467.055L476.951 466.815C476.931 467.455 476.811 468.215 476.751 468.775C476.531 470.315 475.911 473.695 475.911 476.695C475.911 479.415 476.291 481.855 476.691 483.235L479.011 483.075C478.991 482.795 478.971 482.475 478.971 482.255C478.971 482.055 479.011 481.615 479.071 481.315C479.291 480.255 479.951 478.075 480.511 476.415L479.271 475.435C478.991 476.095 478.671 476.795 478.371 477.475C478.311 477.075 478.291 476.555 478.291 476.175C478.291 474.175 478.991 470.175 479.251 468.835C479.331 468.475 479.591 467.475 479.751 467.055ZM507.126 466.255H504.226C504.286 466.495 504.366 467.175 504.426 467.995C504.446 468.155 504.446 468.355 504.466 468.615C501.746 468.655 498.106 468.735 495.826 468.735L495.886 471.155C498.346 471.015 501.466 470.895 504.486 470.855C504.506 471.295 504.506 471.755 504.506 472.195C504.246 472.155 503.986 472.135 503.706 472.135C501.526 472.135 499.706 473.615 499.706 475.875C499.706 478.315 501.606 479.555 503.146 479.555C503.466 479.555 503.766 479.515 504.046 479.455C502.946 480.655 501.186 481.315 499.166 481.735L501.306 483.855C506.186 482.495 507.706 479.175 507.706 476.575C507.706 475.535 507.466 474.595 506.986 473.835C506.986 472.955 506.966 471.855 506.966 470.835C509.686 470.835 511.546 470.875 512.746 470.935L512.766 468.575C511.726 468.555 508.986 468.595 506.966 468.595C506.986 468.355 506.986 468.135 506.986 467.975C507.006 467.655 507.086 466.575 507.126 466.255ZM502.106 475.835C502.106 474.775 502.866 474.235 503.646 474.235C504.186 474.235 504.666 474.475 504.946 474.935C505.226 476.695 504.486 477.335 503.646 477.335C502.846 477.335 502.106 476.755 502.106 475.835ZM521.866 480.015C521.866 479.515 522.346 479.055 523.106 479.055C524.186 479.055 524.926 479.895 525.046 481.195C524.686 481.235 524.306 481.255 523.886 481.255C522.686 481.255 521.866 480.755 521.866 480.015ZM518.466 467.135L518.546 469.735C519.006 469.675 519.646 469.615 520.186 469.575C521.246 469.515 524.006 469.395 525.026 469.375C524.046 470.235 521.966 471.915 520.846 472.835C519.666 473.815 517.246 475.855 515.826 476.995L517.646 478.875C519.786 476.435 521.786 474.815 524.846 474.815C527.206 474.815 529.006 476.035 529.006 477.835C529.006 479.055 528.446 479.975 527.346 480.555C527.066 478.655 525.566 477.135 523.086 477.135C520.966 477.135 519.506 478.635 519.506 480.255C519.506 482.255 521.606 483.535 524.386 483.535C529.226 483.535 531.626 481.035 531.626 477.875C531.626 474.955 529.046 472.835 525.646 472.835C525.006 472.835 524.406 472.895 523.746 473.055C525.006 472.055 527.106 470.295 528.186 469.535C528.646 469.195 529.126 468.915 529.586 468.615L528.286 466.835C528.046 466.915 527.586 466.975 526.766 467.055C525.626 467.155 521.346 467.235 520.286 467.235C519.726 467.235 519.026 467.215 518.466 467.135ZM545.806 477.495L543.426 477.255C543.266 478.055 543.066 479.015 543.066 479.935C543.066 481.955 544.886 483.115 548.246 483.115C549.846 483.115 551.206 482.975 552.326 482.835L552.426 480.275C550.986 480.535 549.606 480.695 548.266 480.695C546.126 480.695 545.526 480.035 545.526 479.155C545.526 478.715 545.646 478.055 545.806 477.495ZM543.546 466.415L540.486 466.175C540.546 466.635 540.506 467.455 540.426 468.195C540.386 468.515 540.326 468.895 540.246 469.335C539.626 469.375 539.026 469.395 538.446 469.395C537.626 469.395 536.946 469.355 535.926 469.235L535.986 471.735C536.686 471.775 537.446 471.815 538.406 471.815C538.826 471.815 539.266 471.795 539.726 471.775C539.606 472.355 539.446 472.915 539.306 473.455C538.566 476.255 537.046 480.455 535.846 482.455L538.626 483.395C539.746 481.015 541.086 476.935 541.806 474.135C542.026 473.315 542.226 472.435 542.406 471.575C543.746 471.415 545.106 471.195 546.306 470.915V468.415C545.206 468.675 544.086 468.895 542.966 469.055C543.026 468.775 543.086 468.515 543.126 468.295C543.206 467.855 543.386 466.955 543.546 466.415ZM544.726 472.455V474.795C545.986 474.655 547.226 474.595 548.586 474.595C549.806 474.595 551.026 474.715 552.026 474.835L552.086 472.435C550.906 472.315 549.706 472.255 548.566 472.255C547.286 472.255 545.846 472.355 544.726 472.455ZM568.046 466.695L565.286 466.435C565.286 466.895 565.226 467.755 565.126 468.335C565.086 468.635 565.026 468.955 564.946 469.295C563.406 469.355 561.926 469.735 560.406 470.495C560.266 470.075 560.146 469.655 560.046 469.275C559.886 468.675 559.726 468.015 559.606 467.355L556.986 468.175C557.346 468.895 557.566 469.535 557.786 470.255C557.966 470.795 558.126 471.335 558.326 471.875C556.506 473.475 555.366 475.915 555.366 478.195C555.366 480.775 556.886 482.175 558.546 482.175C560.026 482.175 561.146 481.515 562.486 480.055C562.686 480.315 562.926 480.575 563.166 480.835L565.186 479.235C564.806 478.875 564.446 478.455 564.086 478.035C565.226 476.295 566.106 473.995 566.806 471.675C568.806 472.215 570.046 473.875 570.046 476.095C570.046 478.595 568.306 480.855 563.926 481.215L565.446 483.535C569.606 482.895 572.626 480.475 572.626 476.235C572.626 472.735 570.546 470.195 567.406 469.475C567.466 469.215 567.526 468.975 567.586 468.715C567.706 468.215 567.886 467.235 568.046 466.695ZM557.706 477.995C557.706 476.755 558.246 475.335 559.186 474.235C559.766 475.735 560.406 477.095 561.046 478.075C560.306 478.975 559.566 479.595 558.846 479.595C558.126 479.595 557.706 478.975 557.706 477.995ZM561.126 472.675C562.066 472.115 563.126 471.695 564.346 471.555C563.886 473.035 563.286 474.595 562.566 475.875C562.086 475.075 561.586 473.915 561.126 472.675ZM583.026 468.395V470.955C585.546 471.195 589.166 471.175 591.626 470.955V468.375C589.466 468.635 585.486 468.735 583.026 468.395ZM584.626 476.935L582.326 476.715C582.106 477.735 581.986 478.535 581.986 479.315C581.986 481.375 583.646 482.595 587.086 482.595C589.346 482.595 590.946 482.455 592.246 482.215L592.206 479.515C590.446 479.875 588.966 480.035 587.186 480.035C585.146 480.035 584.386 479.495 584.386 478.615C584.386 478.075 584.466 477.595 584.626 476.935ZM579.946 467.055L577.146 466.815C577.126 467.455 577.006 468.215 576.946 468.775C576.726 470.315 576.106 473.695 576.106 476.695C576.106 479.415 576.486 481.855 576.886 483.235L579.206 483.075C579.186 482.795 579.166 482.475 579.166 482.255C579.166 482.055 579.206 481.615 579.266 481.315C579.486 480.255 580.146 478.075 580.706 476.415L579.466 475.435C579.186 476.095 578.866 476.795 578.566 477.475C578.506 477.075 578.486 476.555 578.486 476.175C578.486 474.175 579.186 470.175 579.446 468.835C579.526 468.475 579.786 467.475 579.946 467.055ZM458.068 502.775C457.388 504.535 456.208 506.695 454.968 508.335L457.768 509.515C458.808 508.015 459.988 505.735 460.708 503.795C461.408 501.935 462.128 499.195 462.408 497.775C462.488 497.335 462.728 496.355 462.888 495.775L459.968 495.175C459.728 497.715 458.968 500.555 458.068 502.775ZM467.948 502.355C468.748 504.515 469.468 507.055 470.028 509.415L472.988 508.455C472.428 506.475 471.368 503.295 470.668 501.475C469.908 499.555 468.528 496.475 467.708 494.915L465.048 495.775C465.888 497.315 467.188 500.255 467.948 502.355ZM484.068 497.495L481.688 498.275C482.188 499.315 483.068 501.735 483.308 502.715L485.708 501.875C485.428 500.955 484.448 498.355 484.068 497.495ZM491.448 498.955L488.648 498.055C488.408 500.555 487.448 503.215 486.088 504.915C484.428 506.995 481.648 508.515 479.448 509.095L481.548 511.235C483.888 510.355 486.388 508.675 488.248 506.275C489.608 504.515 490.448 502.435 490.968 500.415C491.088 500.015 491.208 499.595 491.448 498.955ZM479.428 498.555L477.028 499.415C477.508 500.295 478.508 502.955 478.848 504.035L481.288 503.115C480.888 501.995 479.928 499.575 479.428 498.555ZM504.608 493.335H501.668C501.748 493.815 501.808 494.735 501.808 495.175C501.808 495.775 501.788 496.355 501.768 496.915H498.908C498.148 496.915 497.108 496.855 496.268 496.775V499.395C497.128 499.315 498.228 499.315 498.908 499.315H501.548C501.108 502.355 500.108 504.595 498.248 506.435C497.448 507.255 496.448 507.935 495.628 508.395L497.948 510.275C501.528 507.735 503.428 504.595 504.168 499.315H508.668C508.668 501.475 508.408 505.475 507.828 506.735C507.608 507.215 507.328 507.435 506.688 507.435C505.908 507.435 504.868 507.335 503.888 507.155L504.208 509.835C505.168 509.915 506.368 509.995 507.508 509.995C508.888 509.995 509.648 509.475 510.088 508.455C510.948 506.415 511.188 500.835 511.268 498.675C511.268 498.455 511.348 497.935 511.408 497.615L509.668 496.775C509.188 496.855 508.668 496.915 508.168 496.915H504.408C504.448 496.335 504.468 495.735 504.488 495.115C504.508 494.635 504.548 493.795 504.608 493.335ZM518.848 508.215L521.228 510.255C524.388 508.715 526.608 506.535 528.168 504.115C529.628 501.875 530.428 499.435 530.948 497.095C531.088 496.515 531.308 495.535 531.548 494.755L528.308 494.315C528.328 494.815 528.248 495.815 528.048 496.735C527.728 498.375 527.168 500.635 525.688 502.775C524.248 504.875 522.088 506.855 518.848 508.215ZM518.428 494.415L515.868 495.735C516.788 497.015 518.248 499.635 519.248 501.775L521.888 500.275C521.148 498.875 519.428 495.815 518.428 494.415ZM538.788 494.175L536.908 496.175C538.368 497.195 540.868 499.375 541.908 500.495L543.948 498.415C542.788 497.195 540.188 495.115 538.788 494.175ZM536.288 507.495L537.968 510.135C540.788 509.655 543.368 508.535 545.388 507.315C548.608 505.375 551.268 502.615 552.788 499.915L551.228 497.095C549.968 499.795 547.368 502.855 543.948 504.875C542.008 506.035 539.408 507.055 536.288 507.495ZM563.688 493.335L561.048 493.115C561.008 493.835 560.868 494.615 560.648 495.415C560.328 495.415 559.988 495.415 559.688 495.415C558.668 495.415 557.188 495.335 556.168 495.175V497.515C557.268 497.595 558.728 497.635 559.548 497.635C559.628 497.635 559.708 497.635 559.808 497.635C558.908 499.435 557.488 501.215 555.388 503.155L557.528 504.755C558.208 503.875 558.788 503.155 559.388 502.555C560.148 501.815 561.388 501.175 562.508 501.175C563.068 501.175 563.608 501.355 563.908 501.855C561.628 503.035 559.228 504.635 559.228 507.195C559.228 509.775 561.548 510.535 564.688 510.535C566.568 510.535 569.028 510.375 570.348 510.195L570.428 507.615C568.668 507.955 566.448 508.175 564.748 508.175C562.788 508.175 561.848 507.875 561.848 506.775C561.848 505.775 562.648 504.995 564.148 504.135C564.128 505.015 564.108 505.975 564.048 506.575H566.448C566.428 505.655 566.388 504.175 566.368 503.055C567.588 502.495 568.728 502.055 569.628 501.695C570.308 501.435 571.368 501.035 572.008 500.855L571.008 498.535C570.268 498.915 569.568 499.235 568.788 499.575C567.968 499.935 567.128 500.275 566.088 500.755C565.648 499.735 564.648 499.215 563.428 499.215C562.768 499.215 561.688 499.375 561.168 499.615C561.568 499.035 561.968 498.315 562.308 497.575C564.468 497.515 566.928 497.355 568.828 497.075L568.848 494.755C567.088 495.055 565.088 495.235 563.188 495.335C563.448 494.495 563.588 493.835 563.688 493.335ZM482.688 520.135H479.928C479.988 520.495 480.068 521.475 480.068 521.895C480.068 522.235 480.068 522.815 480.048 523.515C479.648 523.535 479.248 523.555 478.888 523.555C478.168 523.555 477.308 523.535 476.128 523.395L476.168 525.815C476.848 525.895 477.628 525.915 478.968 525.915C479.288 525.915 479.648 525.895 480.028 525.875C480.028 526.435 480.028 526.995 480.028 527.555C480.028 528.015 480.028 528.495 480.048 528.975C477.588 530.035 475.588 531.855 475.588 533.595C475.588 535.715 478.328 537.395 480.268 537.395C481.588 537.395 482.468 536.735 482.468 534.255C482.468 533.575 482.428 532.015 482.388 530.435C483.608 530.075 484.908 529.875 486.148 529.875C487.888 529.875 489.088 530.675 489.088 532.035C489.088 533.495 487.808 534.295 486.188 534.595C485.488 534.715 484.628 534.735 483.728 534.735L484.648 537.315C485.468 537.255 486.348 537.195 487.268 536.995C490.448 536.195 491.688 534.415 491.688 532.055C491.688 529.295 489.268 527.695 486.188 527.695C485.088 527.695 483.708 527.875 482.348 528.215C482.348 527.955 482.348 527.715 482.348 527.475C482.348 526.895 482.348 526.275 482.368 525.675C483.668 525.515 485.048 525.315 486.188 525.055L486.128 522.575C485.088 522.875 483.768 523.135 482.448 523.295C482.468 522.795 482.488 522.315 482.508 521.875C482.548 521.355 482.628 520.495 482.688 520.135ZM488.388 522.295L487.288 524.235C488.528 524.835 491.148 526.335 492.108 527.155L493.308 525.115C492.248 524.355 489.928 523.035 488.388 522.295ZM478.048 533.495C478.048 532.795 478.868 531.975 480.088 531.315C480.128 532.395 480.148 533.315 480.148 533.815C480.148 534.495 479.868 534.655 479.508 534.655C478.988 534.655 478.048 534.115 478.048 533.495ZM498.328 521.835V524.475C499.948 524.615 501.688 524.695 503.788 524.695C505.688 524.695 508.168 524.575 509.568 524.455V521.795C508.028 521.955 505.748 522.075 503.768 522.075C501.668 522.075 499.808 521.995 498.328 521.835ZM500.008 530.315L497.388 530.075C497.228 530.815 496.988 531.795 496.988 532.955C496.988 535.695 499.288 537.235 503.868 537.235C506.668 537.235 509.068 536.975 510.808 536.555L510.788 533.735C509.028 534.235 506.468 534.535 503.768 534.535C500.888 534.535 499.668 533.615 499.668 532.335C499.668 531.655 499.808 531.035 500.008 530.315ZM523.408 520.275L520.648 519.995C520.608 521.035 520.388 522.235 520.108 523.335C519.488 523.395 518.888 523.415 518.288 523.415C517.548 523.415 516.488 523.375 515.628 523.275L515.808 525.595C516.668 525.655 517.488 525.675 518.308 525.675C518.648 525.675 518.988 525.675 519.348 525.655C518.468 527.815 516.848 530.755 515.268 532.715L517.688 533.955C519.308 531.695 521.008 528.195 521.968 525.395C523.308 525.195 524.548 524.935 525.468 524.695L525.388 522.375C524.608 522.615 523.668 522.835 522.688 523.015C522.988 521.935 523.248 520.915 523.408 520.275ZM522.368 534.115C522.368 533.415 523.108 532.895 524.268 532.895C524.828 532.895 525.368 532.975 525.888 533.095C525.888 533.255 525.888 533.375 525.888 533.495C525.888 534.595 525.468 535.355 524.088 535.355C522.988 535.355 522.368 534.855 522.368 534.115ZM528.088 526.495H525.588C525.628 527.715 525.728 529.495 525.808 530.975C525.348 530.935 524.908 530.895 524.428 530.895C521.648 530.895 520.008 532.395 520.008 534.355C520.008 536.555 521.968 537.655 524.448 537.655C527.288 537.655 528.308 536.215 528.308 534.355C528.308 534.295 528.308 534.215 528.308 534.155C529.408 534.815 530.308 535.655 531.008 536.295L532.348 534.155C531.328 533.235 529.928 532.235 528.208 531.595C528.168 530.595 528.108 529.635 528.088 529.055C528.068 528.175 528.028 527.335 528.088 526.495ZM531.528 527.555L532.948 525.455C531.928 524.715 529.448 523.355 528.008 522.735L526.728 524.715C528.088 525.335 530.368 526.635 531.528 527.555ZM547.668 529.835C547.668 532.955 544.468 534.595 539.508 535.155L540.948 537.635C546.508 536.875 550.468 534.215 550.468 529.935C550.468 526.795 548.248 524.995 545.088 524.995C542.748 524.995 540.508 525.575 539.048 525.915C538.388 526.055 537.528 526.195 536.848 526.255L537.608 529.115C538.188 528.895 538.968 528.575 539.548 528.415C540.568 528.115 542.548 527.435 544.748 527.435C546.628 527.435 547.668 528.515 547.668 529.835ZM539.808 520.235L539.408 522.635C541.708 523.035 546.048 523.435 548.388 523.595L548.788 521.135C546.668 521.115 542.128 520.735 539.808 520.235Z" fill="white"/>
<path d="M524.824 405.793C524.824 407.571 524.456 409.12 523.72 410.439C523.015 411.727 522.08 412.8 520.914 413.659C519.749 414.487 518.43 415.1 516.958 415.499C515.517 415.928 514.045 416.143 512.542 416.143C511.07 416.143 509.629 415.974 508.218 415.637C506.838 415.299 505.566 414.793 504.4 414.119C503.266 413.413 502.269 412.524 501.41 411.451C500.552 410.347 499.908 409.028 499.478 407.495L506.654 405.609C506.961 406.682 507.59 407.633 508.54 408.461C509.491 409.258 510.702 409.657 512.174 409.657C512.726 409.657 513.278 409.58 513.83 409.427C514.413 409.273 514.919 409.043 515.348 408.737C515.808 408.399 516.176 407.97 516.452 407.449C516.759 406.927 516.912 406.283 516.912 405.517C516.912 404.689 516.713 403.999 516.314 403.447C515.946 402.895 515.44 402.465 514.796 402.159C514.183 401.821 513.478 401.591 512.68 401.469C511.883 401.315 511.086 401.239 510.288 401.239H508.218V395.581H510.472C511.208 395.581 511.914 395.535 512.588 395.443C513.263 395.32 513.861 395.121 514.382 394.845C514.934 394.538 515.364 394.139 515.67 393.649C516.008 393.158 516.176 392.514 516.176 391.717C516.176 390.551 515.762 389.662 514.934 389.049C514.106 388.435 513.156 388.129 512.082 388.129C510.978 388.129 510.012 388.466 509.184 389.141C508.387 389.785 507.866 390.659 507.62 391.763L500.444 390.107C500.843 388.727 501.441 387.531 502.238 386.519C503.036 385.476 503.971 384.617 505.044 383.943C506.148 383.237 507.344 382.716 508.632 382.379C509.92 382.011 511.239 381.827 512.588 381.827C514.03 381.827 515.425 382.011 516.774 382.379C518.154 382.747 519.381 383.314 520.454 384.081C521.528 384.847 522.386 385.813 523.03 386.979C523.705 388.113 524.042 389.463 524.042 391.027C524.042 392.836 523.521 394.369 522.478 395.627C521.466 396.853 520.163 397.681 518.568 398.111V398.249C519.488 398.463 520.332 398.816 521.098 399.307C521.865 399.767 522.524 400.334 523.076 401.009C523.628 401.653 524.058 402.389 524.364 403.217C524.671 404.014 524.824 404.873 524.824 405.793Z" fill="white"/>
<rect x="233" y="316" width="159" height="45" rx="22.5" fill="url(#paint4_linear)"/>
<path d="M271.622 342.344C270.35 343.952 267.806 345.92 265.55 347.12C266.222 347.576 267.278 348.488 267.902 349.112C270.206 347.744 272.846 345.584 274.646 343.52L271.622 342.344ZM277.958 343.688C280.094 345.32 282.95 347.648 284.27 349.112L287.102 347.432C285.59 345.968 282.614 343.736 280.574 342.272L277.958 343.688ZM273.542 334.04H279.062V338.648H273.542V334.04ZM282.038 338.648V334.04H286.526V331.28H282.038V326.84H279.062V331.28H273.542V326.84H270.566V331.28H266.246V334.04H270.566V338.648H265.406V341.432H287.27V338.648H282.038ZM294.83 331.328C295.454 330.68 296.006 330.032 296.51 329.408C297.206 329.96 297.95 330.656 298.646 331.328H294.83ZM298.67 336.08V336.944H293.75V336.08H298.67ZM293.678 339.56C293.702 339.248 293.726 338.936 293.726 338.648H298.67V339.56H293.678ZM299.126 344.552V346.256H295.07V344.552H299.126ZM299.318 333.248V332C299.822 332.528 300.254 333.008 300.59 333.392L302.414 331.28C301.262 330.032 299.078 328.256 297.398 326.96H294.854C293.726 328.928 291.686 331.16 288.83 332.816C289.382 333.248 290.198 334.208 290.534 334.832C290.798 334.664 291.062 334.472 291.326 334.304V337.568C291.326 340.28 291.062 344.12 288.95 346.88C289.454 347.168 290.462 348.104 290.822 348.584C291.638 347.576 292.238 346.352 292.67 345.08V349.04H295.07V348.296H299.126V348.968H301.598V342.512H293.318C293.39 342.2 293.438 341.864 293.486 341.552H301.238V334.088H291.638C292.43 333.512 293.126 332.936 293.774 332.336V333.248H299.318ZM305.342 329.576H302.654V343.088H305.342V329.576ZM307.886 327.152V345.656C307.886 346.064 307.718 346.208 307.286 346.208C306.83 346.208 305.438 346.208 303.998 346.16C304.406 346.976 304.814 348.272 304.934 349.064C306.998 349.064 308.486 348.968 309.398 348.488C310.358 348.056 310.67 347.264 310.67 345.68V327.152H307.886ZM316.886 333.176V331.28H331.574V333.176H325.598V331.808H322.742V333.176H316.886ZM334.862 343.208V340.736H325.382C325.502 340.232 325.55 339.728 325.574 339.224H332.126V336.92H325.598V335.48H332.606V333.896H334.526V328.784H325.742V326.696H322.814V328.784H314.054V333.896H316.19V335.48H322.742V336.92H316.574V339.224H322.718C322.67 339.728 322.598 340.232 322.478 340.736H313.862V343.208H321.086C319.766 344.624 317.462 345.872 313.43 346.784C314.054 347.384 314.87 348.464 315.206 349.088C320.102 347.768 322.766 345.872 324.182 343.736C326.078 346.712 328.934 348.416 333.494 349.136C333.854 348.368 334.598 347.24 335.174 346.64C331.382 346.232 328.694 345.128 326.99 343.208H334.862ZM338.27 347.744C339.254 346.4 339.494 344.168 339.614 341.984L338.03 341.672C337.934 343.712 337.646 345.728 336.83 346.952L338.27 347.744ZM339.83 342.176C339.998 343.592 340.07 345.416 339.998 346.616L341.294 346.448C341.366 345.296 341.27 343.448 341.054 342.056L339.83 342.176ZM341.462 342.056C341.846 343.304 342.158 344.912 342.206 345.944L343.454 345.68C343.382 344.648 343.046 343.064 342.662 341.816L341.462 342.056ZM344.486 338.432V336.944H346.574V334.784H344.486V333.344H346.574V332.792C346.982 333.392 347.438 334.208 347.702 334.832C348.35 334.448 348.95 333.968 349.55 333.464V334.76H351.998V336.056H347.918V342.392H351.326C350.678 344.072 349.382 345.656 346.91 346.904C347.174 345.632 347.318 343.328 347.486 339.368C347.51 339.056 347.51 338.432 347.51 338.432H344.486ZM340.574 336.944H342.206V338.432H340.574V336.944ZM342.206 333.344V334.784H340.574V333.344H342.206ZM342.206 329.864V331.184H340.574V329.864H342.206ZM350.486 332.576C351.566 331.472 352.502 330.248 353.126 329.168C353.798 330.272 354.806 331.52 355.934 332.576H350.486ZM356.39 338.12V340.328H354.422C354.494 339.608 354.518 338.912 354.518 338.216V338.12H356.39ZM350.246 340.328V338.12H351.998V338.192C351.998 338.888 351.974 339.608 351.854 340.328H350.246ZM358.814 342.392V336.056H354.518V334.76H356.918V333.44C357.422 333.872 357.95 334.232 358.478 334.544C358.838 333.8 359.39 332.768 359.894 332.096C357.782 331.088 355.694 328.904 354.254 326.696H351.806C350.822 328.688 348.734 331.16 346.574 332.456V331.184H344.486V329.864H347.054V327.56H338.222V340.64H345.086C345.038 341.672 344.99 342.56 344.942 343.28C344.726 342.632 344.438 341.936 344.126 341.336L342.998 341.72C343.454 342.68 343.934 343.976 344.078 344.816L344.846 344.528C344.726 345.776 344.606 346.376 344.438 346.616C344.246 346.856 344.078 346.928 343.79 346.928C343.478 346.928 342.95 346.904 342.326 346.832C342.662 347.432 342.878 348.368 342.902 349.04C343.766 349.088 344.534 349.064 345.014 348.968C345.614 348.896 346.046 348.68 346.454 348.128C346.574 347.984 346.67 347.768 346.766 347.456C347.27 347.936 347.87 348.656 348.158 349.136C351.014 347.744 352.622 345.944 353.486 344.024C354.518 346.232 355.982 348.032 357.974 349.064C358.382 348.344 359.198 347.336 359.774 346.808C357.758 345.944 356.246 344.336 355.286 342.392H358.814Z" fill="white"/>
<g clip-path="url(#clip4)" filter="url(#filter0_d)">
<path d="M363.958 207.888C365.041 208.779 365.196 210.374 364.305 211.457C363.413 212.541 361.819 212.696 360.735 211.805L358.934 210.322L356.322 208.174L354.174 210.786L340.996 226.805L339.492 228.633L340.687 230.667C348.457 243.867 347.126 260.68 337.395 272.509C324.571 288.098 301.441 290.348 285.852 277.524C270.263 264.7 268.026 241.58 280.85 225.992C290.581 214.163 306.835 209.627 321.272 214.696L323.498 215.476L325.002 213.648L338.181 197.628L340.329 195.017L337.718 192.869L335.916 191.387C334.832 190.495 334.677 188.901 335.569 187.817C336.46 186.734 338.067 186.589 339.151 187.481L340.953 188.963L362.169 206.416L363.958 207.888ZM366.106 205.277L364.304 203.794L343.088 186.341L341.286 184.859C338.766 182.786 335.03 183.149 332.957 185.669C330.884 188.189 331.261 191.936 333.781 194.009L335.583 195.491L322.404 211.511C306.996 206.104 289.205 210.513 278.239 223.843C264.201 240.908 266.653 266.108 283.717 280.146C300.781 294.184 325.982 291.732 340.02 274.668C350.986 261.338 351.883 243.03 343.62 228.964L356.799 212.944L358.6 214.427C361.12 216.5 364.856 216.136 366.929 213.616C369.002 211.096 368.625 207.35 366.106 205.277Z" fill="white"/>
<path d="M335.103 267.339C338.69 262.978 334.964 252.339 310.939 252.058C285.832 251.763 285.399 227.567 285.399 227.567C285.399 227.567 264.633 251.027 288.659 273.66C310.699 289.952 331.464 274.131 335.103 267.339Z" fill="#C322A4"/>
<g opacity="0.7">
<path d="M288.659 273.66C302.244 284.835 322.316 282.882 333.492 269.297C344.667 255.713 342.714 235.64 329.129 224.465C315.545 213.289 295.472 215.242 284.297 228.827C273.121 242.412 275.074 262.484 288.659 273.66Z" fill="url(#paint5_linear)"/>
</g>
<path d="M308.959 232.937C311.122 234.717 314.318 234.406 316.098 232.243C317.877 230.079 317.566 226.883 315.403 225.104C313.24 223.324 310.044 223.635 308.264 225.798C306.484 227.961 306.795 231.158 308.959 232.937Z" fill="white"/>
<path d="M298.671 232.137C299.753 233.026 301.351 232.871 302.241 231.789C303.131 230.708 302.975 229.11 301.894 228.22C300.812 227.33 299.214 227.486 298.324 228.567C297.434 229.649 297.59 231.247 298.671 232.137Z" fill="white"/>
</g>
<defs>
<filter id="filter0_d" x="240.827" y="157.661" width="161.766" height="165.897" filterUnits="userSpaceOnUse" color-interpolation-filters="sRGB">
<feFlood flood-opacity="0" result="BackgroundImageFix"/>
<feColorMatrix in="SourceAlpha" type="matrix" values="0 0 0 0 0 0 0 0 0 0 0 0 0 0 0 0 0 0 127 0"/>
<feOffset dx="3" dy="3"/>
<feGaussianBlur stdDeviation="7.5"/>
<feColorMatrix type="matrix" values="0 0 0 0 0.1375 0 0 0 0 0 0 0 0 0 0.275 0 0 0 0.6 0"/>
<feBlend mode="normal" in2="BackgroundImageFix" result="effect1_dropShadow"/>
<feBlend mode="normal" in="SourceGraphic" in2="effect1_dropShadow" result="shape"/>
</filter>
<linearGradient id="paint0_linear" x1="45.4569" y1="38.1917" x2="214.377" y2="207.112" gradientUnits="userSpaceOnUse">
<stop stop-color="#D9169B"/>
<stop offset="0.9999" stop-color="#6556CA"/>
</linearGradient>
<linearGradient id="paint1_linear" x1="438.57" y1="38.1917" x2="607.49" y2="207.112" gradientUnits="userSpaceOnUse">
<stop stop-color="#D9169B"/>
<stop offset="0.9999" stop-color="#6556CA"/>
</linearGradient>
<linearGradient id="paint2_linear" x1="45.457" y1="377.457" x2="214.377" y2="546.377" gradientUnits="userSpaceOnUse">
<stop stop-color="#D9169B"/>
<stop offset="0.9999" stop-color="#6556CA"/>
</linearGradient>
<linearGradient id="paint3_linear" x1="436.839" y1="377.457" x2="605.76" y2="546.377" gradientUnits="userSpaceOnUse">
<stop stop-color="#D9169B"/>
<stop offset="0.9999" stop-color="#6556CA"/>
</linearGradient>
<linearGradient id="paint4_linear" x1="262.462" y1="321.824" x2="278.9" y2="379.906" gradientUnits="userSpaceOnUse">
<stop stop-color="#6D52C7"/>
<stop offset="1" stop-color="#008DF2"/>
</linearGradient>
<linearGradient id="paint5_linear" x1="329.126" y1="224.466" x2="288.66" y2="273.656" gradientUnits="userSpaceOnUse">
<stop stop-color="#DA1C9E" stop-opacity="0"/>
<stop offset="1" stop-color="white"/>
</linearGradient>
<clipPath id="clip0">
<rect width="61.9497" height="34.6189" fill="white" transform="translate(287.12 110.688)"/>
</clipPath>
<clipPath id="clip1">
<rect width="61.9497" height="34.6189" fill="white" transform="translate(349.07 484.573) rotate(-180)"/>
</clipPath>
<clipPath id="clip2">
<rect width="61.9497" height="34.6189" fill="white" transform="translate(535.423 266.473) rotate(90)"/>
</clipPath>
<clipPath id="clip3">
<rect width="61.9497" height="34.6189" fill="white" transform="translate(106.142 328.423) rotate(-90)"/>
</clipPath>
<clipPath id="clip4">
<rect width="80" height="110.161" fill="white" transform="translate(322.812 169.661) rotate(39.4425)"/>
</clipPath>
</defs>
</svg>
