<svg width="210" height="37" viewBox="0 0 210 37" fill="none" xmlns="http://www.w3.org/2000/svg">
<g clip-path="url(#clip0)">
<path d="M24.8045 36.3462C17.5511 36.3462 11.0856 32.0979 8.18287 25.4828C3.81867 24.3904 1.07084 21.3626 0.949617 21.2345L0 20.1758L1.3133 19.6296C5.01074 18.0854 6.99753 14.0799 7.25346 13.5202L7.26693 13.473C7.31407 13.291 7.36795 13.1156 7.42183 12.9403C8.51961 9.27872 10.8162 5.98127 13.8806 3.66159C17.046 1.26773 20.8242 0 24.8045 0C34.8125 0 42.955 8.1526 42.955 18.1731C42.955 28.1936 34.8125 36.3462 24.8045 36.3462ZM3.44152 20.8097C4.55951 21.7335 6.55976 23.1024 9.11228 23.6351L9.6376 23.743L9.83965 24.242C12.3248 30.3716 18.1976 34.3367 24.8045 34.3367C33.7013 34.3367 40.9413 27.0877 40.9413 18.1798C40.9413 9.27198 33.7013 2.01623 24.8045 2.01623C21.262 2.01623 17.9013 3.14236 15.0861 5.27323C12.3585 7.33666 10.3178 10.2632 9.34127 13.5202C9.29412 13.6753 9.24698 13.8304 9.20657 13.9923L9.15269 14.1946L9.11901 14.2687C9.04493 14.4575 7.23325 18.5507 3.44152 20.8097Z" fill="white"/>
<path d="M34.597 19.5689C35.8901 17.5594 38.3618 16.7368 38.3618 16.7368C36.3009 15.0307 33.8697 15.3207 33.8697 15.3207C34.7991 13.0887 37.1563 12.3604 37.1563 12.3604C34.5431 10.7622 31.6404 11.3961 31.6404 11.3961C33.2433 9.11014 34.6442 8.66508 34.6442 8.66508C31.5865 7.12762 28.374 8.48976 28.374 8.48976C30.1453 6.20379 30.8457 5.97452 30.8457 5.97452C26.8991 4.42357 23.5047 6.65559 23.5047 6.65559C24.0502 5.1923 24.8853 4.43706 24.8853 4.43706C24.8853 4.43706 16.8102 3.84365 12.3181 12.6031C12.3181 12.6031 13.9142 12.738 15.3824 15.1858C15.8 14.8014 16.3523 14.5587 16.9651 14.5587C18.2515 14.5587 19.2887 15.5971 19.2887 16.8851C19.2887 18.1731 18.2515 19.2115 16.9651 19.2115C16.9584 19.2115 16.9449 19.2115 16.9382 19.2115C17.046 19.6431 17.908 27.3911 24.717 31.8282H24.7304C35.5736 31.4977 37.9308 21.6121 37.9308 21.6121L37.9712 21.5042C36.5501 19.987 34.597 19.5689 34.597 19.5689Z" fill="white"/>
<path d="M54.4717 7.24227H58.9167L57.9266 15.3005H66.5675L67.5575 7.24227H72.0025L69.5443 27.3102H65.0993L66.0893 19.2318H57.4485L56.4584 27.3102H52.0134L54.4717 7.24227Z" fill="white"/>
<path d="M87.0549 24.4915C86.2333 25.4019 85.25 26.1032 84.1051 26.5954C82.9601 27.0877 81.8085 27.3372 80.6433 27.3372C79.5388 27.3372 78.5219 27.1619 77.5857 26.8045C76.6563 26.4471 75.8683 25.9413 75.2285 25.2805C74.5887 24.6196 74.1172 23.8239 73.8209 22.8934C73.5178 21.9628 73.4438 20.9311 73.5785 19.7847C73.7199 18.6384 74.0499 17.6067 74.582 16.6761C75.1073 15.7455 75.774 14.9566 76.5755 14.289C77.3769 13.6281 78.2861 13.1224 79.3031 12.765C80.3201 12.4076 81.3842 12.2323 82.4887 12.2323C83.5124 12.2323 84.4216 12.4076 85.2163 12.765C86.011 13.1224 86.6576 13.6281 87.156 14.289C87.6543 14.9498 88.0045 15.7455 88.2066 16.6761C88.4086 17.6067 88.4423 18.6384 88.3009 19.7847L88.1325 21.1738H77.8416C77.9157 22.0235 78.2188 22.6978 78.7441 23.2036C79.2762 23.7093 79.9699 23.9588 80.8386 23.9588C81.566 23.9588 82.2058 23.797 82.7446 23.4733C83.2901 23.1496 83.7751 22.7315 84.2128 22.2123L87.0549 24.4915ZM84.0714 18.1529C84.1859 17.4044 84.0175 16.7638 83.5663 16.231C83.1218 15.6983 82.4887 15.4286 81.6805 15.4286C81.1889 15.4286 80.7444 15.5095 80.347 15.6646C79.9496 15.8197 79.6062 16.022 79.3098 16.2715C79.0135 16.521 78.771 16.8042 78.5825 17.1279C78.3939 17.4516 78.2659 17.7955 78.2053 18.1529H84.0714Z" fill="white"/>
<path d="M105.508 27.3035H101.427L101.697 25.0782H101.636C101.427 25.3344 101.164 25.5974 100.841 25.8604C100.525 26.1301 100.161 26.3661 99.7502 26.5887C99.3393 26.8045 98.8948 26.9865 98.4099 27.1214C97.9318 27.2563 97.4401 27.3304 96.9485 27.3304C95.8844 27.3304 94.9415 27.1484 94.1198 26.7842C93.2982 26.4201 92.618 25.9076 92.0724 25.2468C91.5336 24.5859 91.1497 23.8037 90.9275 22.8934C90.7052 21.983 90.6581 20.9918 90.7928 19.8994C90.914 18.8946 91.1834 17.9303 91.6077 17.0132C92.0253 16.0962 92.5573 15.2802 93.2106 14.5722C93.8572 13.8641 94.6115 13.291 95.4735 12.8661C96.3356 12.4413 97.2785 12.2323 98.3022 12.2323C99.2316 12.2323 100.073 12.3739 100.834 12.6638C101.596 12.9471 102.195 13.4393 102.619 14.1271H102.68L103.65 6.23078H108.088L105.508 27.3035ZM102.35 19.778C102.485 18.6923 102.282 17.8157 101.744 17.1414C101.205 16.467 100.377 16.1366 99.2518 16.1366C98.1271 16.1366 97.2111 16.4738 96.5107 17.1414C95.8103 17.8157 95.386 18.6923 95.258 19.778C95.1233 20.8636 95.3254 21.7403 95.8641 22.4146C96.4029 23.0889 97.2313 23.4193 98.356 23.4193C99.4808 23.4193 100.397 23.0822 101.097 22.4146C101.798 21.747 102.215 20.8636 102.35 19.778Z" fill="white"/>
<path d="M124.346 25.8536C124.009 28.5779 123.073 30.6481 121.531 32.0574C119.988 33.4668 117.813 34.1748 115.018 34.1748C113.739 34.1748 112.493 34.0332 111.287 33.7433C110.082 33.46 109.004 32.9004 108.061 32.0709L110.964 28.3959C111.583 28.969 112.25 29.4208 112.971 29.758C113.691 30.0952 114.5 30.2637 115.409 30.2637C116.769 30.2637 117.813 29.9333 118.534 29.2725C119.254 28.6116 119.679 27.7687 119.807 26.7438L119.975 25.3546H119.914C119.315 26.0492 118.621 26.5347 117.827 26.8179C117.032 27.1011 116.298 27.2495 115.631 27.2495C114.567 27.2495 113.624 27.0674 112.802 26.7033C111.981 26.3392 111.301 25.8267 110.755 25.1658C110.216 24.505 109.832 23.7228 109.61 22.8124C109.388 21.9021 109.341 20.9108 109.475 19.8184C109.59 18.8676 109.859 17.9438 110.277 17.0335C110.694 16.1231 111.226 15.3274 111.873 14.6329C112.52 13.9451 113.274 13.3854 114.136 12.9605C114.998 12.5357 115.941 12.3267 116.965 12.3267C117.598 12.3267 118.163 12.3941 118.668 12.5357C119.174 12.6773 119.618 12.8527 120.009 13.0684C120.399 13.2842 120.723 13.527 120.985 13.7967C121.248 14.0664 121.45 14.3227 121.598 14.5789H121.659L121.894 12.6841H125.976L124.346 25.8536ZM113.907 19.778C113.846 20.25 113.88 20.7018 114.008 21.1266C114.136 21.5515 114.338 21.9291 114.628 22.2527C114.91 22.5764 115.254 22.8394 115.658 23.035C116.055 23.2305 116.513 23.3317 117.025 23.3317C117.517 23.3317 117.995 23.2305 118.453 23.035C118.911 22.8394 119.322 22.5764 119.685 22.2527C120.049 21.9291 120.345 21.5515 120.581 21.1266C120.81 20.7018 120.952 20.25 121.012 19.778C121.073 19.3059 121.039 18.8541 120.911 18.4293C120.783 18.0045 120.581 17.6269 120.292 17.3032C120.009 16.9795 119.658 16.7165 119.248 16.521C118.837 16.3254 118.386 16.2243 117.894 16.2243C117.382 16.2243 116.897 16.3254 116.453 16.521C116.001 16.7165 115.597 16.9795 115.234 17.3032C114.87 17.6269 114.574 18.0045 114.338 18.4293C114.109 18.8609 113.968 19.3059 113.907 19.778Z" fill="white"/>
<path d="M141.156 24.4915C140.335 25.4019 139.351 26.1032 138.206 26.5954C137.061 27.0877 135.91 27.3372 134.745 27.3372C133.64 27.3372 132.623 27.1619 131.687 26.8045C130.758 26.4471 129.97 25.9413 129.33 25.2805C128.69 24.6196 128.218 23.8239 127.922 22.8934C127.619 21.9628 127.545 20.9311 127.68 19.7847C127.821 18.6384 128.151 17.6067 128.683 16.6761C129.209 15.7455 129.875 14.9566 130.677 14.289C131.478 13.6281 132.387 13.1224 133.404 12.765C134.421 12.4076 135.485 12.2323 136.59 12.2323C137.614 12.2323 138.523 12.4076 139.318 12.765C140.112 13.1224 140.759 13.6281 141.257 14.289C141.756 14.9498 142.106 15.7455 142.308 16.6761C142.51 17.6067 142.544 18.6384 142.402 19.7847L142.234 21.1738H131.943C132.017 22.0235 132.32 22.6978 132.845 23.2036C133.377 23.7093 134.071 23.9588 134.94 23.9588C135.667 23.9588 136.307 23.797 136.846 23.4733C137.391 23.1496 137.876 22.7315 138.314 22.2123L141.156 24.4915ZM138.173 18.1529C138.287 17.4044 138.119 16.7638 137.668 16.231C137.223 15.6983 136.59 15.4286 135.782 15.4286C135.29 15.4286 134.846 15.5095 134.448 15.6646C134.051 15.8197 133.707 16.022 133.411 16.2715C133.115 16.521 132.872 16.8042 132.684 17.1279C132.495 17.4516 132.367 17.7955 132.307 18.1529H138.173Z" fill="white"/>
<path d="M151.198 6.23078L150.093 15.2533H150.154C150.289 14.9768 150.491 14.7003 150.76 14.4238C151.029 14.1474 151.346 13.8979 151.71 13.6821C152.073 13.4663 152.484 13.2842 152.956 13.1494C153.427 13.0145 153.925 12.9403 154.457 12.9403C155.582 12.9403 156.464 13.1156 157.118 13.4596C157.764 13.8035 158.242 14.2822 158.552 14.8959C158.862 15.5095 159.037 16.231 159.071 17.0604C159.105 17.8899 159.064 18.7867 158.95 19.7578L158.027 27.3102H153.589L154.404 20.6479C154.457 20.2365 154.491 19.805 154.518 19.3599C154.545 18.9148 154.505 18.5035 154.404 18.1326C154.303 17.755 154.114 17.4516 153.838 17.2155C153.562 16.9795 153.137 16.8582 152.565 16.8582C151.993 16.8582 151.514 16.9593 151.137 17.1683C150.76 17.3774 150.45 17.6539 150.221 17.9978C149.992 18.3417 149.817 18.7328 149.709 19.1643C149.595 19.5959 149.514 20.0545 149.453 20.5265L148.625 27.3035H144.187L146.773 6.23078H151.198Z" fill="white"/>
<path d="M161.347 19.778C161.489 18.6316 161.819 17.5999 162.351 16.6693C162.876 15.7388 163.543 14.9498 164.344 14.2822C165.146 13.6214 166.055 13.1156 167.072 12.7582C168.089 12.4008 169.153 12.2255 170.258 12.2255C171.362 12.2255 172.379 12.4008 173.315 12.7582C174.245 13.1156 175.033 13.6214 175.672 14.2822C176.312 14.9431 176.784 15.7388 177.08 16.6693C177.383 17.5999 177.457 18.6316 177.322 19.778C177.181 20.9243 176.851 21.9628 176.319 22.8866C175.794 23.8172 175.127 24.6061 174.325 25.2737C173.524 25.9346 172.615 26.4403 171.598 26.7977C170.581 27.1551 169.517 27.3304 168.412 27.3304C167.308 27.3304 166.291 27.1551 165.355 26.7977C164.425 26.4403 163.637 25.9346 162.997 25.2737C162.358 24.6129 161.886 23.8172 161.59 22.8866C161.287 21.9628 161.206 20.9243 161.347 19.778ZM165.786 19.778C165.651 20.8636 165.853 21.7403 166.392 22.4146C166.931 23.0889 167.759 23.4193 168.884 23.4193C170.008 23.4193 170.924 23.0822 171.625 22.4146C172.325 21.747 172.749 20.8636 172.877 19.778C173.012 18.6923 172.81 17.8157 172.271 17.1414C171.732 16.467 170.904 16.1366 169.779 16.1366C168.655 16.1366 167.739 16.4738 167.038 17.1414C166.331 17.8157 165.914 18.6923 165.786 19.778Z" fill="white"/>
<path d="M194.16 25.8536C193.823 28.5779 192.887 30.6481 191.344 32.0574C189.802 33.4668 187.627 34.1748 184.832 34.1748C183.552 34.1748 182.306 34.0332 181.101 33.7433C179.895 33.46 178.818 32.9004 177.875 32.0709L180.777 28.3959C181.397 28.969 182.064 29.4208 182.784 29.758C183.505 30.0952 184.313 30.2637 185.222 30.2637C186.583 30.2637 187.627 29.9333 188.347 29.2725C189.068 28.6116 189.492 27.7687 189.62 26.7438L189.789 25.3546H189.728C189.129 26.0492 188.435 26.5347 187.64 26.8179C186.846 27.1011 186.111 27.2495 185.445 27.2495C184.381 27.2495 183.438 27.0674 182.616 26.7033C181.794 26.3392 181.114 25.8267 180.569 25.1658C180.03 24.505 179.646 23.7228 179.424 22.8124C179.201 21.9021 179.154 20.9108 179.289 19.8184C179.403 18.8676 179.673 17.9438 180.09 17.0335C180.508 16.1231 181.04 15.3274 181.687 14.6329C182.333 13.9451 183.087 13.3854 183.95 12.9605C184.812 12.5357 185.754 12.3267 186.778 12.3267C187.411 12.3267 187.977 12.3941 188.482 12.5357C188.987 12.6773 189.432 12.8527 189.822 13.0684C190.213 13.2842 190.536 13.527 190.799 13.7967C191.062 14.0664 191.264 14.3227 191.412 14.5789H191.472L191.708 12.6841H195.789L194.16 25.8536ZM183.721 19.778C183.66 20.25 183.694 20.7018 183.822 21.1266C183.95 21.5515 184.152 21.9291 184.441 22.2527C184.724 22.5764 185.068 22.8394 185.472 23.035C185.869 23.2305 186.327 23.3317 186.839 23.3317C187.33 23.3317 187.809 23.2305 188.267 23.035C188.725 22.8394 189.135 22.5764 189.499 22.2527C189.863 21.9291 190.159 21.5515 190.395 21.1266C190.624 20.7018 190.765 20.25 190.826 19.778C190.886 19.3059 190.853 18.8541 190.725 18.4293C190.597 18.0045 190.395 17.6269 190.105 17.3032C189.822 16.9795 189.472 16.7165 189.061 16.521C188.65 16.3254 188.199 16.2243 187.708 16.2243C187.196 16.2243 186.711 16.3254 186.266 16.521C185.815 16.7165 185.411 16.9795 185.047 17.3032C184.684 17.6269 184.387 18.0045 184.152 18.4293C183.923 18.8609 183.781 19.3059 183.721 19.778Z" fill="white"/>
<path d="M206.949 16.8177C206.397 16.0085 205.589 15.6039 204.525 15.6039C204.147 15.6039 203.777 15.6916 203.4 15.8737C203.023 16.049 202.807 16.3592 202.753 16.7907C202.713 17.1481 202.861 17.4111 203.205 17.573C203.548 17.7415 203.993 17.8899 204.538 18.018C205.084 18.1461 205.67 18.2877 206.289 18.4293C206.909 18.5777 207.488 18.807 208.007 19.1239C208.532 19.4408 208.943 19.8724 209.239 20.4119C209.535 20.9581 209.63 21.6796 209.522 22.5899C209.407 23.5205 209.111 24.2825 208.633 24.8826C208.155 25.4828 207.575 25.9683 206.902 26.3324C206.229 26.6966 205.488 26.9528 204.679 27.1012C203.871 27.2495 203.083 27.3237 202.316 27.3237C201.312 27.3237 200.315 27.1821 199.319 26.8921C198.329 26.6089 197.52 26.0964 196.901 25.3682L199.958 22.3742C200.309 22.8866 200.719 23.2778 201.191 23.5407C201.662 23.8037 202.228 23.9386 202.901 23.9386C203.413 23.9386 203.885 23.8644 204.316 23.7161C204.747 23.5677 204.989 23.298 205.036 22.9001C205.084 22.5225 204.935 22.246 204.592 22.0572C204.248 21.8684 203.804 21.7133 203.258 21.5852C202.713 21.4571 202.127 21.3155 201.507 21.1739C200.888 21.0255 200.309 20.803 199.783 20.5063C199.258 20.2096 198.847 19.7915 198.544 19.2453C198.248 18.6991 198.153 17.9776 198.261 17.0672C198.362 16.2176 198.625 15.4893 199.049 14.8757C199.467 14.262 199.985 13.763 200.598 13.3652C201.211 12.9673 201.891 12.6774 202.646 12.4885C203.4 12.2997 204.147 12.2053 204.895 12.2053C205.845 12.2053 206.781 12.3469 207.71 12.6167C208.64 12.8931 209.401 13.3854 209.987 14.1002L206.949 16.8177Z" fill="white"/>
</g>
<defs>
<clipPath id="clip0">
<rect width="210" height="36.3462" fill="white"/>
</clipPath>
</defs>
</svg>
