<svg enable-background="new 0 0 315 55" viewBox="0 0 315 55" xmlns="http://www.w3.org/2000/svg" xmlns:xlink="http://www.w3.org/1999/xlink"><linearGradient id="a"><stop offset="0" stop-color="#d9169b"/><stop offset=".1051" stop-color="#d3199d"/><stop offset=".2427" stop-color="#c322a4"/><stop offset=".3983" stop-color="#a831af"/><stop offset=".5673" stop-color="#8246be"/><stop offset=".747" stop-color="#5160d1"/><stop offset=".9331" stop-color="#1780e9"/><stop offset="1" stop-color="#008df2"/></linearGradient><linearGradient id="b" gradientUnits="userSpaceOnUse" x1="18.3454" x2="56.081" xlink:href="#a" y1="8.929" y2="46.6646"/><linearGradient id="c" gradientUnits="userSpaceOnUse" x1="25.4997" x2="53.7148" xlink:href="#a" y1="11.2432" y2="39.4583"/><path d="m37.73 53.78c-10.74 0-20.32-6.19-24.62-15.84-6.46-1.6-10.54-6-10.71-6.2l-1.4-1.54 1.94-.8c5.47-2.25 8.41-8.09 8.8-8.9l.02-.07c.07-.27.15-.53.22-.78 1.63-5.34 5.02-10.15 9.56-13.53 4.69-3.5 10.29-5.34 16.19-5.34 14.82 0 26.88 11.89 26.88 26.5s-12.05 26.5-26.88 26.5zm-31.63-22.66c1.66 1.35 4.62 3.34 8.4 4.12l.78.16.3.73c3.68 8.94 12.37 14.71 22.16 14.71 13.18 0 23.9-10.57 23.9-23.56s-10.73-23.56-23.91-23.56c-5.24 0-10.22 1.64-14.39 4.75-4.04 3.01-7.06 7.28-8.5 12.03-.07.23-.13.46-.2.69l-.08.3-.05.1c-.11.27-2.8 6.24-8.41 9.53z" fill="url(#b)"/><path d="m52.23 29.31c1.92-2.93 5.57-4.13 5.57-4.13-3.05-2.49-6.66-2.06-6.66-2.06 1.38-3.26 4.87-4.32 4.87-4.32-3.87-2.33-8.17-1.41-8.17-1.41 2.37-3.33 4.45-3.99 4.45-3.99-4.53-2.24-9.28-.25-9.28-.25 2.62-3.33 3.66-3.67 3.66-3.67-5.83-2.26-10.86 1-10.86 1 .81-2.14 2.05-3.23 2.05-3.23s-11.96-.86-18.62 11.9c0 0 2.36.2 4.54 3.77.61-.56 1.44-.91 2.34-.91 1.9 0 3.44 1.52 3.44 3.39s-1.54 3.39-3.44 3.39c-.01 0-.03 0-.04 0 .16.63 1.43 11.93 11.52 18.39h.02c16.06-.48 19.55-14.9 19.55-14.9l.06-.16c-2.1-2.19-5-2.81-5-2.81z" fill="url(#c)"/><g fill="#eeeeef"><path d="m83.66 11.34h6.59l-1.46 11.75h12.79l1.46-11.75h6.59l-3.65 29.27h-6.58l1.47-11.78h-12.8l-1.47 11.77h-6.59z"/><path d="m131.92 36.49c-1.22 1.32-2.67 2.35-4.37 3.07s-3.41 1.08-5.13 1.08c-1.64 0-3.14-.26-4.52-.78s-2.54-1.26-3.49-2.22-1.64-2.12-2.09-3.48c-.44-1.35-.56-2.86-.36-4.53.21-1.67.7-3.18 1.48-4.53s1.77-2.51 2.95-3.48c1.19-.96 2.53-1.71 4.04-2.22 1.51-.52 3.08-.78 4.72-.78 1.52 0 2.87.26 4.04.78 1.18.52 2.14 1.26 2.88 2.22s1.26 2.12 1.56 3.48c.3 1.35.34 2.86.14 4.53l-.25 2.03h-15.24c.11 1.24.56 2.22 1.34 2.96.78.73 1.82 1.1 3.1 1.1 1.08 0 2.02-.24 2.83-.71.8-.47 1.53-1.09 2.18-1.84zm-4.41-9.24c.17-1.09-.08-2.03-.75-2.81-.66-.78-1.59-1.17-2.79-1.17-.73 0-1.39.12-1.97.35s-1.09.53-1.53.89-.8.78-1.08 1.25c-.28.48-.46.97-.56 1.49z"/><path d="m159.25 40.59h-6.04l.4-3.24h-.09c-.31.37-.7.76-1.17 1.14-.47.39-1.01.74-1.62 1.06s-1.27.58-1.98.78-1.43.3-2.16.3c-1.58 0-2.98-.27-4.19-.8-1.22-.53-2.23-1.28-3.03-2.25-.8-.96-1.37-2.11-1.7-3.43s-.4-2.78-.2-4.36c.18-1.47.58-2.87 1.2-4.21s1.41-2.53 2.37-3.56c.96-1.04 2.08-1.86 3.35-2.48s2.67-.93 4.19-.93c1.37 0 2.62.21 3.75.63s2.01 1.13 2.65 2.14h.09l1.43-11.51h6.57zm-4.68-10.97c.2-1.58-.1-2.86-.9-3.84s-2.03-1.47-3.69-1.47-3.02.49-4.06 1.47-1.66 2.26-1.86 3.84.1 2.86.9 3.84 2.03 1.47 3.69 1.47 3.02-.49 4.06-1.47c1.05-.97 1.67-2.25 1.86-3.84z"/><path d="m187.14 38.48c-.49 3.97-1.89 6.99-4.17 9.05-2.29 2.06-5.5 3.09-9.65 3.09-1.9 0-3.74-.21-5.53-.63s-3.38-1.23-4.78-2.44l4.3-5.35c.92.83 1.91 1.5 2.97 1.99s2.27.73 3.61.73c2.01 0 3.56-.48 4.63-1.45 1.07-.96 1.7-2.2 1.88-3.69l.25-2.03h-.09c-.89 1.01-1.92 1.72-3.09 2.14-1.18.42-2.26.63-3.25.63-1.58 0-2.98-.27-4.19-.8-1.22-.53-2.23-1.28-3.03-2.25-.8-.96-1.37-2.11-1.7-3.43s-.4-2.78-.2-4.36c.17-1.38.57-2.73 1.18-4.06.62-1.32 1.41-2.49 2.36-3.5.96-1.01 2.07-1.82 3.35-2.44 1.27-.62 2.67-.93 4.19-.93.93 0 1.78.1 2.52.3.75.2 1.41.46 1.98.78s1.06.67 1.45 1.06.69.77.91 1.14h.09l.34-2.76h6.04zm-15.45-8.86c-.09.69-.04 1.35.15 1.96.19.62.49 1.17.91 1.64s.93.86 1.52 1.14c.59.29 1.27.43 2.03.43.73 0 1.43-.14 2.11-.43s1.29-.67 1.83-1.14.98-1.02 1.32-1.64.55-1.27.64-1.96.04-1.35-.15-1.96c-.19-.62-.49-1.17-.91-1.64s-.94-.86-1.54-1.14c-.61-.29-1.28-.43-2-.43-.76 0-1.47.14-2.13.43s-1.27.67-1.81 1.14-.98 1.02-1.32 1.64c-.35.62-.57 1.27-.65 1.96z"/><path d="m212.04 36.49c-1.22 1.32-2.67 2.35-4.37 3.07s-3.41 1.08-5.13 1.08c-1.64 0-3.14-.26-4.52-.78s-2.54-1.26-3.49-2.22-1.64-2.12-2.09-3.48c-.44-1.35-.56-2.86-.36-4.53.21-1.67.7-3.18 1.48-4.53s1.77-2.51 2.95-3.48c1.19-.96 2.53-1.71 4.04-2.22s3.08-.78 4.72-.78c1.52 0 2.87.26 4.04.78 1.18.52 2.14 1.26 2.88 2.22s1.26 2.12 1.56 3.48c.3 1.35.34 2.86.14 4.53l-.25 2.03h-15.24c.11 1.24.56 2.22 1.34 2.96.78.73 1.82 1.1 3.1 1.1 1.08 0 2.02-.24 2.83-.71.8-.47 1.53-1.09 2.18-1.84zm-4.41-9.24c.17-1.09-.08-2.03-.75-2.81-.66-.78-1.59-1.17-2.79-1.17-.73 0-1.39.12-1.97.35s-1.09.53-1.53.89-.8.78-1.08 1.25c-.28.48-.46.97-.56 1.49z"/><path d="m226.92 9.86-1.64 13.16h.09c.2-.4.49-.81.9-1.21.4-.4.87-.76 1.4-1.08.54-.32 1.15-.58 1.85-.78s1.44-.3 2.23-.3c1.66 0 2.98.25 3.94.76.96.5 1.67 1.2 2.13 2.09s.71 1.94.77 3.15c.05 1.21-.01 2.52-.18 3.93l-1.37 11.01h-6.57l1.21-9.71c.08-.6.13-1.23.17-1.88s-.02-1.24-.17-1.79-.43-.99-.84-1.34-1.04-.52-1.88-.52c-.85 0-1.55.15-2.12.45-.56.3-1.02.71-1.36 1.21s-.59 1.07-.76 1.71c-.17.63-.29 1.3-.38 1.99l-1.23 9.89h-6.57l3.83-30.73h6.55z"/><path d="m241.94 29.62c.21-1.67.7-3.18 1.48-4.53s1.77-2.51 2.95-3.48c1.19-.96 2.53-1.71 4.04-2.22s3.08-.78 4.72-.78c1.63 0 3.14.26 4.52.78s2.54 1.26 3.49 2.22 1.64 2.12 2.09 3.48c.44 1.35.56 2.86.35 4.53s-.7 3.18-1.48 4.53-1.77 2.51-2.95 3.48c-1.19.96-2.53 1.71-4.04 2.22-1.51.52-3.08.78-4.72.78s-3.14-.26-4.52-.78-2.54-1.26-3.49-2.22-1.64-2.12-2.09-3.48c-.44-1.35-.55-2.86-.35-4.53zm6.57 0c-.2 1.58.1 2.86.9 3.84s2.03 1.47 3.69 1.47 3.02-.49 4.06-1.47 1.66-2.26 1.86-3.84-.1-2.86-.9-3.84-2.03-1.47-3.69-1.47-3.02.49-4.06 1.47-1.66 2.26-1.86 3.84z"/><path d="m290.54 38.48c-.49 3.97-1.89 6.99-4.17 9.05-2.29 2.06-5.5 3.09-9.65 3.09-1.9 0-3.74-.21-5.53-.63s-3.38-1.23-4.78-2.44l4.3-5.35c.92.83 1.91 1.5 2.97 1.99s2.27.73 3.61.73c2.01 0 3.56-.48 4.63-1.45 1.07-.96 1.7-2.2 1.88-3.69l.25-2.03h-.09c-.89 1.01-1.92 1.72-3.09 2.14-1.18.42-2.26.63-3.25.63-1.58 0-2.98-.27-4.19-.8-1.22-.53-2.23-1.28-3.03-2.25-.8-.96-1.37-2.11-1.7-3.43s-.4-2.78-.2-4.36c.17-1.38.57-2.73 1.18-4.06.62-1.32 1.41-2.49 2.36-3.5.96-1.01 2.07-1.82 3.35-2.44 1.27-.62 2.67-.93 4.19-.93.93 0 1.78.1 2.52.3.75.2 1.41.46 1.98.78s1.06.67 1.45 1.06.69.77.91 1.14h.09l.34-2.76h6.04zm-15.46-8.86c-.09.69-.04 1.35.15 1.96.19.62.49 1.17.91 1.64.42.48.93.86 1.52 1.14.59.29 1.27.43 2.03.43.73 0 1.43-.14 2.11-.43s1.29-.67 1.83-1.14.98-1.02 1.32-1.64.55-1.27.64-1.96.04-1.35-.15-1.96c-.19-.62-.49-1.17-.91-1.64-.42-.48-.94-.86-1.54-1.14-.61-.29-1.28-.43-2-.43-.76 0-1.47.14-2.13.43s-1.27.67-1.81 1.14-.98 1.02-1.32 1.64c-.35.62-.56 1.27-.65 1.96z"/><path d="m309.48 25.31c-.82-1.18-2.01-1.77-3.59-1.77-.56 0-1.11.13-1.67.39s-.88.71-.95 1.34c-.06.52.16.9.67 1.14s1.17.46 1.98.65 1.67.39 2.6.6c.92.22 1.77.55 2.55 1.01.77.46 1.38 1.09 1.82 1.88s.58 1.85.41 3.17c-.17 1.35-.61 2.47-1.31 3.35-.71.88-1.56 1.58-2.56 2.12-1 .53-2.1.91-3.29 1.12-1.2.22-2.36.32-3.5.32-1.49 0-2.97-.21-4.43-.63-1.47-.42-2.66-1.16-3.58-2.22l4.53-4.36c.52.75 1.13 1.32 1.82 1.71.7.39 1.54.58 2.53.58.76 0 1.46-.11 2.1-.32.64-.22 1-.61 1.07-1.19.07-.55-.15-.96-.66-1.23s-1.16-.5-1.97-.69-1.68-.39-2.6-.6c-.92-.22-1.77-.54-2.55-.97s-1.39-1.04-1.83-1.84c-.44-.79-.58-1.85-.41-3.17.15-1.24.54-2.3 1.16-3.2.62-.89 1.39-1.63 2.29-2.2.9-.58 1.91-1 3.03-1.27 1.11-.27 2.23-.41 3.34-.41 1.4 0 2.79.2 4.17.6s2.5 1.12 3.37 2.16z"/></g></svg>