<svg width="450" height="483" viewBox="0 0 450 483" fill="none" xmlns="http://www.w3.org/2000/svg">
<g clip-path="url(#clip0)">
<path opacity="0.7" d="M338.307 237.897C358.233 237.897 374.387 228.568 374.387 217.061C374.387 205.553 358.233 196.225 338.307 196.225C318.38 196.225 302.227 205.553 302.227 217.061C302.227 228.568 318.38 237.897 338.307 237.897Z" fill="#181B26"/>
<path d="M334.944 30.3613C336.349 28.0955 347.107 26.6092 350.641 35.7176C351.983 39.1797 351.783 48.0071 352.907 53.5628C354.031 59.1185 356.668 62.2543 357.62 66.7586C358.572 71.263 357.022 78.8307 346.21 80.2082C335.397 81.5858 327.014 77.734 324.458 74.281C321.902 70.828 321.839 63.4687 324.503 59.5172C327.168 55.5657 329.189 52.3574 329.126 47.2186L334.944 30.3613Z" fill="#2D36A0"/>
<path d="M322.056 68.5259C322.056 68.5259 319.51 86.5071 324.322 99.3404C329.135 112.174 327.812 96.0415 327.812 96.0415L326.651 92.2259C326.651 92.2259 325.682 77.4893 326.08 73.8641C326.479 70.2389 326.389 67.1574 326.651 66.8674C326.914 66.5774 325.691 66.0064 325.183 65.9611C324.676 65.9158 322.056 68.5259 322.056 68.5259Z" fill="#FFCEA9"/>
<path d="M342.05 28.8115C342.05 28.8115 333.947 26.4823 329.035 30.8598C325.736 33.8959 324.395 38.5271 325.573 42.8593C326.225 45.4151 327.54 48.9044 329.57 49.0947C331.6 49.285 342.05 28.8115 342.05 28.8115Z" fill="#2D36A0"/>
<path d="M345.14 50.8983C345.14 50.8983 344.615 59.9613 344.778 60.5867C344.941 61.212 348.321 61.8918 349.264 62.6803C350.206 63.4687 344.361 72.6496 341.379 73.9819C338.397 75.3142 329.18 71.8702 328.546 67.2843C327.948 63.0609 331.183 59.7801 332.425 58.6381C333.268 58.5566 334.119 58.5294 334.971 58.5747L335.243 54.1972C339.276 52.9103 345.14 50.8983 345.14 50.8983Z" fill="#FFCEA9"/>
<path d="M346.382 61.4658C348.919 61.8555 351.82 63.215 352.209 64.6016C352.681 66.2239 353.678 73.855 351.484 79.6645C349.291 85.4739 347.814 89.1716 346.545 91.6731C346.545 91.6731 335.579 96.3859 326.733 90.8936C326.733 90.8936 326.117 84.6673 326.08 81.3321C317.924 74.2085 324.893 65.4264 331.817 58.6019C332.642 58.5294 333.485 58.5294 334.31 58.6019C334.31 58.6019 328.138 65.8523 332.425 70.0485C341.615 67.239 343.436 63.1153 346.382 61.4658Z" fill="#F4F4F4"/>
<path d="M328.283 39.7144C329.189 33.914 333.376 29.5366 339.358 29.89C345.72 30.2435 350.587 35.6904 350.234 42.0527C350.234 42.0617 350.234 42.0708 350.234 42.0799C350.016 45.6507 348.14 48.9134 345.167 50.8982C344.959 51.7774 344.66 52.6293 344.261 53.4359C342.131 55.9011 336.512 57.469 334.654 57.4871C333.05 57.4871 331.663 56.0098 330.123 53.5175C326.987 48.3334 327.784 42.5783 328.283 39.7144Z" fill="#FFCEA9"/>
<path d="M341.216 29.9897C345.412 30.8145 348.856 31.9927 349.998 36.1164C350.777 38.9531 351.811 44.3547 350.823 46.6386L350.225 48.279L345.14 50.8983C345.14 50.8983 342.775 48.9225 343.509 43.1312C343.482 42.3518 343.228 41.5905 342.793 40.9379C342.476 40.3941 342.24 39.805 342.095 39.1888C341.488 37.6299 340.319 36.352 338.805 35.627C335.017 33.5062 329.479 35.3369 328.709 36.1073C330.902 31.3673 336.122 28.8115 341.216 29.9897Z" fill="#2D36A0"/>
<path d="M352.554 103.636C353.46 97.7634 355.273 93.9479 354.439 90.7214C352.617 84.1869 350.225 77.8156 347.297 71.6889C345.485 68.0637 346.001 65.4898 347.923 64.0488C350.089 62.4265 352.155 63.1425 354.104 67.1846C356.551 72.278 359.315 77.5074 360.656 85.0932C361.318 88.7728 361.662 92.3437 360.475 99.9023C359.641 105.186 357.964 108.15 355.943 113.107C355.39 114.458 351.702 108.621 352.554 103.636Z" fill="#FFCEA9"/>
<path d="M348.838 213.236C346.717 214.967 343.4 213.771 343.255 213.934C341.089 216.1 337.872 217.985 335.47 219.87C334.147 220.913 332.089 222.308 332.461 224.302C333.132 227.882 338.859 226.785 341.016 225.689C343.173 224.592 344.941 222.78 346.989 221.511C348.439 220.604 349.88 220.133 350.107 218.293C350.243 217.179 349.21 213.2 348.838 213.236Z" fill="#DD9D50"/>
<path d="M350.08 217.55C349.799 219.363 348.385 219.798 346.935 220.695C344.859 221.991 343.028 223.849 340.871 224.946C338.868 225.952 333.893 226.958 332.488 224.402C333.249 227.855 338.878 226.767 341.016 225.689C343.155 224.61 344.941 222.78 346.989 221.511C348.439 220.604 349.88 220.133 350.107 218.293C350.125 218.049 350.116 217.795 350.08 217.55Z" fill="#7F582D"/>
<path d="M333.938 210.263C331.999 211.849 329.062 210.961 328.917 211.106C326.941 213.091 324.005 214.795 321.812 216.544C320.597 217.505 318.703 218.774 319.048 220.613C319.664 223.885 324.902 222.879 326.887 221.873C328.872 220.867 330.512 219.209 332.325 218.049C333.657 217.224 334.971 216.789 335.18 215.103C335.334 214.061 334.283 210.227 333.938 210.263Z" fill="#DD9D50"/>
<path d="M335.189 214.396C334.926 216.009 333.63 216.454 332.307 217.278C330.404 218.466 328.682 220.169 326.751 221.166C324.939 222.073 320.407 222.979 319.075 220.677C319.773 223.831 324.929 222.843 326.887 221.846C328.845 220.849 330.512 219.182 332.325 218.021C333.657 217.197 334.971 216.762 335.18 215.076C335.207 214.849 335.216 214.623 335.189 214.396Z" fill="#7F582D"/>
<path d="M322.492 111.503C323.398 104.189 326.117 93.5491 326.117 93.5491C328.682 94.7454 331.446 95.4342 334.274 95.5702C338.995 95.8149 346.554 94.3738 346.554 94.3738C347.868 96.6759 349.309 98.9054 350.868 101.053C352.98 103.981 357.076 110.406 356.088 121.617C355.436 128.949 351.33 160.072 351.33 160.072C352.934 165.329 353.777 170.785 353.859 176.277C353.814 180.808 352.626 188.494 351.285 195.608L348.838 213.272C348.838 213.272 345.575 215.629 343.255 213.97L343.545 196.678C343.264 192.445 342.838 186.201 342.575 182.177C342.131 175.688 340.971 165.374 340.636 162.8C340.3 160.226 339.476 155.731 339.077 150.683C338.678 145.635 336.784 120.022 336.784 120.022L336.521 124.826C336.521 124.826 336.276 132.611 335.153 142.227C334.029 151.843 333.639 156.102 333.639 156.102C333.639 156.102 335.588 159.673 335.832 162.311C336.032 164.386 338.406 180.817 336.983 189.174L334.074 210.427C332.597 211.442 330.73 211.686 329.044 211.088L327.331 189.672C326.18 181.515 323.706 164.241 323.371 161.993C322.881 159.039 322.464 157.58 321.921 148.29C321.377 139 321.558 118.826 322.492 111.503Z" fill="#FFCEA9"/>
<path d="M346.545 91.6731L352.889 104.361C352.889 104.361 362.505 118.445 352.545 154.634L354.366 165.773C354.366 165.773 335.497 177.881 322.872 165.773C322.872 165.773 318.495 132.33 320.824 116.905C322.12 108.032 324.087 99.277 326.706 90.7033C326.706 90.7033 329.796 94.1201 345.738 91.8634" fill="url(#paint0_linear)"/>
<path d="M357.856 74.281C357.856 74.281 353.478 78.6403 348.285 78.0965L345.793 69.6135C345.793 69.6135 344.17 65.1726 347.959 63.2693C351.747 61.3661 355.68 65.5895 357.856 74.281Z" fill="#EDEDED"/>
<path d="M331.817 58.6019C331.817 58.6019 326.806 57.0793 321.485 68.1725L323.47 69.3779C323.47 69.3779 328.709 61.4567 331.817 58.6019Z" fill="#EDEDED"/>
<path d="M36.0801 319.011C56.0066 319.011 72.1602 309.683 72.1602 298.175C72.1602 286.668 56.0066 277.339 36.0801 277.339C16.1536 277.339 0 286.668 0 298.175C0 309.683 16.1536 319.011 36.0801 319.011Z" fill="#181B26"/>
<path d="M17.5733 291.777C20.1563 293.879 23.9628 291.958 24.1531 292.148C27.1892 294.967 30.3704 297.613 33.6874 300.088C35.2916 301.356 37.8021 303.042 37.3127 305.48C36.497 309.83 29.5365 308.489 26.9083 307.157C24.28 305.825 22.132 303.622 19.6578 302.081C17.8452 300.976 16.1323 300.405 15.8604 298.166C15.7154 296.816 17.1111 291.722 17.5733 291.777Z" fill="#DD9D50"/>
<path d="M15.9238 297.26C16.2592 299.408 17.9811 299.979 19.7485 301.094C22.268 302.662 24.4975 304.927 27.1258 306.26C29.5547 307.483 35.6088 308.707 37.3127 305.598C36.4064 309.794 29.5456 308.48 26.9445 307.157C24.3434 305.834 22.1683 303.622 19.6941 302.081C17.8815 300.976 16.1685 300.405 15.8966 298.166C15.8695 297.867 15.8785 297.559 15.9238 297.26Z" fill="#7F582D"/>
<path d="M39.9862 283.448C42.5602 285.55 47.0826 283.248 47.2367 283.448C49.9284 286.167 52.7652 288.732 55.7469 291.133C57.3602 292.402 59.8707 294.088 59.3722 296.526C58.5565 300.876 51.5961 299.535 48.9678 298.202C46.3395 296.87 44.1915 294.668 41.7173 293.127C39.9047 292.021 38.2008 291.45 37.9289 289.212C37.8202 287.862 39.524 283.393 39.9862 283.448Z" fill="#DD9D50"/>
<path d="M38.0649 288.659C38.4093 290.807 40.1313 291.378 41.8896 292.493C44.4182 294.061 46.6477 296.326 49.2669 297.659C51.6958 298.882 57.759 300.106 59.4629 296.997C58.5566 301.193 51.6868 299.879 49.0856 298.556C46.4845 297.233 44.3185 295.021 41.8352 293.481C40.0679 292.375 38.3187 291.804 38.0468 289.565C38.0196 289.266 38.0287 288.958 38.0649 288.659Z" fill="#7F582D"/>
<path d="M18.0265 194.82C18.1533 198.726 19.3678 215.665 19.9116 224.665C20.4554 233.664 20.5822 244.603 20.5822 244.603C20.5822 244.603 19.0325 251.147 18.0265 258.832C17.0205 266.518 18.0265 290.78 18.0265 290.78C20.0385 292.076 22.6305 292.076 24.6425 290.78C24.6425 290.78 28.7753 271.367 30.6876 262.621C32.5999 253.875 32.9352 248.827 33.9322 243.407C35.1285 236.845 37.7205 206.249 37.7205 206.249L38.7537 206.312L41.4726 240.869C40.6207 243.416 40.0407 246.044 39.7325 248.709C38.9803 254.337 40.521 282.659 40.521 282.659C42.7687 283.91 45.5329 283.801 47.6718 282.369C47.6718 282.369 54.5779 244.857 54.5779 239.147C54.5779 235.377 53.9344 185.594 53.9344 185.594L18.0265 194.82Z" fill="url(#paint1_linear)"/>
<path d="M26.7814 120.992C26.7814 120.992 27.2255 129.502 27.0351 130.255C26.8448 131.007 23.1199 133.508 22.0414 134.405C20.9629 135.303 27.9324 142.173 31.3129 143.722C34.6934 145.272 45.4422 141.185 45.6326 135.91C45.8229 130.635 43.82 126.203 42.1433 125.941C40.4666 125.678 26.7814 120.992 26.7814 120.992Z" fill="#FFCEA9"/>
<path d="M50.1007 136.78C50.5991 133.028 48.1249 129.457 50.5266 126.466C58.9281 134.705 57.8587 156.51 59.771 170.458C66.0064 176.984 78.5497 183.41 82.0843 184.959C82.7277 185.249 83.2806 185.557 83.1537 186.255C82.6462 188.974 81.8577 190.007 80.2354 192.599C71.9336 189.02 65.952 186.962 55.5838 177.111C54.5959 176.05 53.7168 174.899 52.9555 173.667C49.9919 164.857 49.2487 143.26 50.1007 136.78Z" fill="#FFCEA9"/>
<path d="M25.8298 131.723C25.8298 131.723 32.0108 140.931 40.6298 141.837C43.3487 139.118 43.5934 129.62 39.8322 126.575C39.8322 126.575 43.2943 123.784 45.6598 124.327C48.1975 125.868 50.0916 128.279 50.9798 131.116C53.1731 137.451 54.1972 144.13 54.016 150.828C53.8709 159.891 54.016 187.461 54.016 187.461C54.016 187.461 52.8106 193.297 45.0163 197.639C37.2221 201.98 31.4217 202.406 26.1379 201.173C21.7695 200.158 18.1624 198.617 16.667 195.454C17.0567 189.11 19.8844 172.597 18.824 164.64C17.7636 156.683 16.1051 150.728 15.6519 144.293C15.1988 137.858 16.5039 137.949 19.7303 135.692C21.6698 134.224 23.709 132.901 25.8298 131.723Z" fill="#F4F4F4"/>
<path d="M46.0495 108.304C45.0344 101.697 40.2763 96.6849 33.4609 97.0656C26.2104 97.4734 20.6638 103.673 21.0626 110.923C21.2892 114.992 23.4009 118.717 26.7814 120.992C27.017 121.998 27.3795 122.968 27.8418 123.883C30.2435 126.702 37.5393 128.415 39.6238 128.143C42.3427 127.762 43.7747 126.638 45.0616 123.702C47.3183 118.491 46.6114 111.557 46.0495 108.304Z" fill="#FFCEA9"/>
<path d="M26.7813 120.992L27.4066 115.228C27.4066 115.228 22.6576 103.011 33.8324 105.358C41.1735 106.899 43.0223 107.57 45.2609 102.639C47.4995 97.7091 39.6055 93.2772 30.2434 94.4826C23.5548 95.1895 18.5248 100.89 18.6608 107.615C18.9055 111.267 19.8752 118.609 26.7813 120.992Z" fill="#2D36A0"/>
<path d="M13.7487 140.451C16.9751 139.544 14.519 140.296 16.9751 139.544C25.3766 147.792 24.3343 161.912 26.2376 175.869C30.8779 183.536 46.5479 192.5 46.5479 192.5C46.7655 193.986 48.8862 195.853 47.0283 198.853C38.7356 195.273 30.6876 192.183 20.3194 182.34C19.9116 181.95 19.3134 181.851 19.1412 181.316C16.1776 172.407 12.8877 146.94 13.7487 140.451Z" fill="#FFCEA9"/>
<path d="M82.3652 177.41L76.4379 199.361C76.3745 199.623 76.2023 199.841 75.9757 199.95L64.2843 205.324C63.6952 205.596 63.079 204.989 63.224 204.273L67.683 182.92C67.7464 182.639 67.9186 182.404 68.1543 182.295L80.9604 176.358C81.5676 176.068 82.5464 176.685 82.3652 177.41Z" fill="#757575"/>
<path d="M53.6081 142.363C53.6081 142.363 56.7802 142.2 58.0943 140.351C57.8496 137.188 53.7984 125.179 45.6598 124.282C47.8802 125.832 49.6385 127.962 50.7532 130.427C52.2305 134.043 53.6081 142.363 53.6081 142.363Z" fill="#EDEDED"/>
<path d="M12.2804 158.232C12.2804 158.232 20.3828 161.024 26.0926 156.329C26.7179 155.251 22.7845 141.466 22.7845 141.466C22.7845 141.466 19.3859 134.415 14.0658 137.215C8.74582 140.016 12.2804 158.232 12.2804 158.232Z" fill="#EDEDED"/>
<path d="M46.548 192.5L55.3482 191.648C55.3482 191.648 60.8495 193.225 61.9008 193.751C62.8343 194.022 63.6319 196.261 61.1123 195.844C60.1245 195.681 60.2151 195.717 59.0913 195.418C57.1065 194.902 55.3482 194.34 55.3482 194.34C55.3482 194.34 56.7167 197.575 54.5325 198.554C52.3483 199.533 52.1218 201.998 47.0193 198.844L46.548 192.5Z" fill="#FFCEA9"/>
<path d="M63.2058 204.3C63.2058 204.3 63.0336 206.611 66.0154 205.614Z" fill="#757575"/>
<path d="M81.1327 176.286C81.1327 176.286 83.6069 175.534 83.5978 177.954Z" fill="#757575"/>
<path d="M83.5978 177.954L77.9425 199.868C77.87 200.131 77.6978 200.348 77.4712 200.457L65.6167 205.832C65.0185 206.103 64.3932 205.496 64.5472 204.78L69.0697 183.428C69.1332 183.147 69.3054 182.911 69.5501 182.802L82.5375 176.866C83.1537 176.576 83.7882 177.229 83.5978 177.954Z" fill="#AFAFAF"/>
<path d="M73.8096 190.723H74.2175C73.7734 190.379 73.7009 189.736 74.0453 189.301C74.2265 189.074 74.4984 188.929 74.7884 188.911C75.4229 188.911 81.6129 187.615 81.6129 187.615L82.3561 185.068C82.3561 184.923 83.4346 185.576 83.4709 185.603C84.5313 186.301 85.2201 187.443 85.3379 188.702C85.4013 190.47 84.7488 192.192 83.5253 193.479C82.4105 194.602 80.906 195.255 79.329 195.291C78.5768 195.337 77.8518 195.373 77.2083 195.427C76.6101 195.427 76.1298 194.947 76.1298 194.349V194.34H75.9395C75.7944 194.376 75.6404 194.376 75.4954 194.34H75.1782C74.1268 194.34 74.0453 193.035 74.7613 192.527C74.4259 192.527 74.0815 192.59 73.7462 192.59C72.432 192.672 72.5046 190.714 73.8096 190.723Z" fill="#FFCEA9"/>
<path d="M56.1276 293.182C54.9132 292.348 54.9404 291.351 56.2183 290.49L245.827 176.567C247.096 175.797 249.126 175.769 250.358 176.494L370.544 247.821C372.32 248.872 372.329 251.428 370.562 252.488L182.621 365.441C181.198 366.293 179.413 366.302 177.981 365.46L56.1276 293.182Z" fill="white" fill-opacity="0.6" stroke="white" stroke-width="2" stroke-miterlimit="10"/>
<path d="M189.826 233.501L186.183 231.353C185.603 230.991 185.557 230.556 186.065 230.157L248.274 192.781C248.8 192.473 249.715 192.509 250.268 192.835L253.911 194.983C254.5 195.346 254.546 195.781 254.029 196.179L191.82 233.556C191.312 233.873 190.415 233.846 189.826 233.501Z" fill="#E9EAF2"/>
<path d="M214.432 228.988L212.62 227.918C212.031 227.565 211.985 227.121 212.484 226.731L258.434 199.125C258.95 198.808 259.884 198.853 260.437 199.179L262.249 200.249C262.838 200.611 262.875 201.046 262.358 201.436L216.408 229.042C215.901 229.368 215.021 229.332 214.432 228.988Z" fill="#E9EAF2"/>
<path d="M221.311 233.066L219.499 231.997C218.91 231.634 218.873 231.199 219.381 230.809L265.313 203.194C265.829 202.877 266.763 202.922 267.315 203.249L269.137 204.327C269.726 204.69 269.762 205.125 269.246 205.514L223.269 233.102C222.77 233.429 221.9 233.402 221.311 233.066Z" fill="#E9EAF2"/>
<path d="M236.818 231.906L235.006 230.837C234.416 230.474 234.38 230.03 234.897 229.64L272.173 207.245C272.69 206.928 273.623 206.974 274.176 207.3L275.989 208.369C276.578 208.732 276.614 209.167 276.098 209.557L238.821 231.96C238.296 232.278 237.398 232.25 236.818 231.906Z" fill="#2D36A0"/>
<path d="M261.941 276.116L258.298 273.968C257.718 273.605 257.672 273.17 258.18 272.771L320.389 235.395C320.914 235.087 321.803 235.105 322.383 235.45L326.026 237.598C326.615 237.96 326.66 238.395 326.144 238.794L263.935 276.17C263.427 276.487 262.53 276.46 261.941 276.116Z" fill="#E9EAF2"/>
<path d="M286.538 271.611L284.726 270.542C284.146 270.179 284.1 269.744 284.608 269.346L330.585 241.758C331.101 241.44 331.999 241.468 332.588 241.812L334.4 242.881C334.989 243.244 335.026 243.688 334.509 244.078L288.532 271.666C288.016 271.974 287.136 271.947 286.538 271.611Z" fill="#E9EAF2"/>
<path d="M293.381 275.654L291.568 274.584C290.988 274.222 290.943 273.787 291.45 273.388L337.427 245.8C337.944 245.483 338.868 245.528 339.43 245.854L341.243 246.924C341.823 247.286 341.868 247.721 341.352 248.111L295.402 275.717C294.885 276.034 294.006 276.007 293.381 275.654Z" fill="#E9EAF2"/>
<path d="M308.933 274.521L307.121 273.451C306.531 273.089 306.495 272.645 307.012 272.255L344.288 249.86C344.805 249.543 345.702 249.57 346.291 249.914L348.104 250.984C348.693 251.346 348.729 251.79 348.213 252.18L310.936 274.575C310.401 274.883 309.522 274.865 308.933 274.521Z" fill="#2D36A0"/>
<path d="M248.845 286.285L270.334 298.982L183.156 351.312L131.088 320.543C138.511 315.966 148.227 318.504 159.483 320.28C170.739 322.057 175.688 321.993 180.89 318.866C186.092 315.74 186.174 312.024 186.174 312.024C185.875 300.296 192.4 298.094 195.971 296C199.533 293.907 206.149 290.272 221.511 290.925C242.818 291.713 248.174 286.692 248.174 286.692L248.845 286.285Z" fill="#F5F6FF"/>
<path d="M252.216 267.651L223.341 250.594C222.752 250.232 222.716 249.788 223.233 249.398L282.822 213.571C283.348 213.263 284.272 213.3 284.825 213.626L313.682 230.683C314.271 231.045 314.308 231.489 313.791 231.879L254.201 267.705C253.685 268.013 252.796 267.986 252.216 267.651Z" fill="#E9EAF2"/>
<path d="M131.115 320.561L183.192 351.33L270.324 298.982L247.975 285.768" stroke="#E9EAF2" stroke-width="0.31" stroke-miterlimit="10"/>
<path d="M236.03 319.519L196.424 296.118" stroke="#E9EAF2" stroke-width="0.31" stroke-miterlimit="10"/>
<path d="M209.366 335.542L181.896 319.31" stroke="#E9EAF2" stroke-width="0.31" stroke-miterlimit="10"/>
<path d="M131.115 320.561C144.085 312.767 168.048 326.579 180.473 319.111C192.899 311.643 178.824 306.087 195.663 295.973C212.502 285.859 233.927 295.91 248.836 286.294" stroke="#E9EAF2" stroke-width="1.53" stroke-miterlimit="10"/>
<path d="M196.504 297.818C198.08 297.759 199.329 296.95 199.294 296.009C199.259 295.069 197.954 294.354 196.378 294.412C194.802 294.471 193.553 295.28 193.588 296.22C193.623 297.161 194.928 297.876 196.504 297.818Z" fill="#D3199D"/>
<path d="M129.955 323.016C131.541 322.96 132.8 322.149 132.767 321.204C132.734 320.258 131.422 319.537 129.836 319.592C128.25 319.647 126.992 320.458 127.024 321.404C127.057 322.349 128.37 323.071 129.955 323.016Z" fill="#D3199D"/>
<path d="M180.455 321.468C182.041 321.413 183.3 320.602 183.267 319.656C183.234 318.711 181.922 317.989 180.336 318.045C178.75 318.1 177.492 318.911 177.524 319.856C177.557 320.802 178.87 321.524 180.455 321.468Z" fill="#D3199D"/>
<path d="M248.914 287.982C250.49 287.924 251.739 287.115 251.704 286.174C251.669 285.234 250.364 284.519 248.788 284.577C247.213 284.636 245.964 285.445 245.999 286.385C246.033 287.326 247.339 288.041 248.914 287.982Z" fill="#D3199D"/>
<path d="M204.753 264.316L190.279 255.76C189.726 255.398 189.708 254.963 190.234 254.582L193.796 252.434C194.321 252.126 195.219 252.144 195.799 252.488L210.245 261.026C210.834 261.388 210.871 261.832 210.354 262.222L206.783 264.37C206.267 264.678 205.342 264.66 204.753 264.316Z" fill="#E9EAF2"/>
<path d="M196.524 269.264L167.069 251.863C166.48 251.5 166.443 251.056 166.96 250.667L170.522 248.519C171.038 248.201 171.972 248.247 172.525 248.573L201.98 265.974C202.569 266.337 202.605 266.772 202.089 267.161L198.527 269.309C198.037 269.627 197.14 269.599 196.524 269.264Z" fill="#2D36A0"/>
<path d="M180.12 279.134L153.529 263.418C152.939 263.056 152.903 262.612 153.42 262.222L156.991 260.074C157.516 259.766 158.414 259.784 158.994 260.128L185.585 275.835C186.174 276.197 186.219 276.641 185.693 277.031L182.123 279.179C181.597 279.505 180.7 279.478 180.12 279.134Z" fill="#E9EAF2"/>
<path d="M171.881 284.073L149.849 271.059C149.26 270.696 149.224 270.261 149.74 269.871L153.302 267.723C153.828 267.415 154.752 267.451 155.305 267.778L177.337 280.792C177.926 281.155 177.963 281.599 177.446 281.989L173.875 284.137C173.368 284.445 172.47 284.427 171.881 284.073Z" fill="#2D36A0"/>
<path d="M155.513 293.916L144.629 287.481C144.049 287.118 144.003 286.683 144.511 286.285L148.091 284.137C148.607 283.819 149.495 283.847 150.085 284.191L160.969 290.626C161.558 290.988 161.604 291.423 161.087 291.822L157.507 293.97C156.991 294.287 156.102 294.26 155.513 293.916Z" fill="#E9EAF2"/>
<path d="M147.248 298.864L110.216 276.986C109.627 276.623 109.591 276.179 110.107 275.79L113.678 273.642C114.195 273.324 115.092 273.352 115.681 273.696L152.713 295.574C153.302 295.937 153.338 296.372 152.822 296.761L149.296 298.9C148.77 299.227 147.873 299.208 147.248 298.864Z" fill="#2D36A0"/>
<path d="M127.227 310.918L116.343 304.483C115.754 304.121 115.708 303.677 116.234 303.287L119.796 301.139C120.321 300.831 121.219 300.849 121.799 301.193L132.692 307.628C133.282 307.991 133.318 308.426 132.801 308.815L129.239 310.963C128.705 311.281 127.807 311.262 127.227 310.918Z" fill="#E9EAF2"/>
<path d="M119.016 315.866L104.543 307.311C103.953 306.948 103.917 306.504 104.434 306.115L108.005 303.967C108.53 303.658 109.428 303.677 110.008 304.021L124.454 312.558C125.043 312.921 125.089 313.365 124.563 313.755L121.001 315.903C120.485 316.229 119.596 316.211 119.016 315.866Z" fill="#2D36A0"/>
<path opacity="0.7" d="M283.801 482.41C303.728 482.41 319.881 473.081 319.881 461.574C319.881 450.066 303.728 440.738 283.801 440.738C263.875 440.738 247.721 450.066 247.721 461.574C247.721 473.081 263.875 482.41 283.801 482.41Z" fill="#181B26"/>
<path d="M313.048 303.223C313.456 306.849 317.752 322.337 316.827 327.648C315.903 332.959 301.248 341.859 301.248 341.859L299.218 332.796L307.374 324.839L305.127 309.731L313.048 303.223Z" fill="#FFCEA9"/>
<path d="M301.71 287.934C304.665 286.565 308.172 287.626 309.867 290.399C312.024 293.97 314.262 306.223 314.471 308.317C314.471 308.317 311.444 312.495 306.903 311.797L301.71 287.934Z" fill="#EDEDED"/>
<path d="M284.961 460.948C281.771 461.836 278.364 461.419 275.472 459.797C273.188 459.87 260.781 454.559 259.095 459.018C257.618 462.924 262.993 466.54 265.866 467.238C272.128 468.751 276.741 471.878 279.279 472.404C281.155 472.803 283.584 473.066 285.079 471.588C286.874 469.821 286.72 463.277 284.961 460.948Z" fill="#DD9D50"/>
<path d="M279.279 471.325C276.768 470.8 272.128 467.7 265.865 466.15C263.455 465.57 259.313 462.933 258.896 459.806C258.334 463.431 263.183 466.594 265.865 467.247C272.128 468.761 276.741 471.887 279.279 472.413C281.155 472.812 283.584 473.075 285.079 471.597C285.469 471.171 285.75 470.655 285.904 470.102C284.019 471.534 281.563 471.987 279.279 471.325Z" fill="#7F582D"/>
<path d="M305.127 451.912C301.936 452.791 298.529 452.384 295.638 450.77C293.354 450.834 280.946 445.523 279.261 449.982C277.783 453.888 283.158 457.504 286.031 458.202C292.293 459.716 296.906 462.842 299.444 463.377C301.329 463.767 303.749 464.03 305.244 462.552C306.994 460.785 306.84 454.242 305.127 451.912Z" fill="#DD9D50"/>
<path d="M299.399 462.29C296.888 461.764 292.248 458.664 285.985 457.115C283.575 456.535 279.433 453.906 279.016 450.77C278.454 454.396 283.303 457.55 285.985 458.202C292.248 459.716 296.861 462.842 299.399 463.377C301.284 463.767 303.704 464.03 305.199 462.552C305.589 462.126 305.87 461.61 306.024 461.057C304.139 462.489 301.683 462.942 299.399 462.29Z" fill="#7F582D"/>
<path d="M305.326 418.207C304.791 413.594 303.84 409.044 302.462 404.612C302.462 404.612 303.323 392.884 303.749 381.764C304.239 369.148 308.607 358.046 305.154 347.977L266.228 356.632C266.228 356.632 268.584 406.932 269.11 413.023C269.4 417.754 269.98 422.466 270.85 427.125C272.663 436.886 275.518 460.114 275.518 460.114C279.632 462.507 285.034 461.184 285.034 461.184C285.034 461.184 284.744 431.81 284.472 424.777C284.155 416.186 283.892 416.838 283.892 416.838L285.188 395.467L286.031 384.827C286.031 384.827 287.109 392.64 287.843 399.618C288.451 405.7 289.919 411.201 291.559 422.53C292.982 432.354 295.293 452.094 295.293 452.094C299.408 454.495 305 452.501 305 452.501C305 452.501 306.441 426.726 305.326 418.207Z" fill="url(#paint2_linear)"/>
<path d="M299.689 288.142C296.725 288.287 294.523 289.049 294.151 288.142C293.834 286.611 293.608 285.07 293.472 283.511C293.816 282.65 294.106 281.699 294.106 281.699C297.831 279.406 299.009 275.354 299.499 270.696C300.332 262.684 296 255.679 287.998 254.836C280.466 254.056 274.929 259.367 273.451 266.618C272.654 270.243 271.068 276.986 273.216 282.931C274.412 286.23 275.935 288.849 277.493 289.357C278.989 289.321 280.475 289.185 281.952 288.967C281.952 288.967 282.351 291.197 282.632 292.592C282.913 293.988 282.795 294.777 279.959 296.526C277.122 298.275 284.254 301.882 288.922 301.52C293.589 301.157 298.783 298.429 300.215 295.375C301.819 292.012 301.683 288.043 299.689 288.142Z" fill="#FFCEA9"/>
<path d="M295.357 288.587C296.172 290.626 294.088 293.118 288.523 294.885C282.958 296.653 282.451 294.387 282.451 294.387C282.451 294.387 274.294 298.103 271.63 299.961C268.294 302.299 266.808 309.024 266.355 320.47C265.838 333.675 265.793 353.261 266.228 356.641C266.228 356.641 272.472 362.868 280.466 362.215C288.46 361.562 301.909 354.484 305.172 349.019C305.081 337.446 303.722 335.561 305.598 328.89C309.894 313.619 312.151 307.365 310.066 297.215C308.344 288.849 305.933 287.816 302.634 287.898C300.205 287.997 297.777 288.224 295.357 288.587Z" fill="#F4F4F4"/>
<path d="M253.793 331.382C260.355 333.041 261.896 328.899 262.757 325.482C264.841 317.19 265.965 309.704 267.524 304.991C269.337 299.444 271.276 298.565 273.968 297.477C277.14 296.209 279.859 298.882 278.808 305.951C277.557 314.308 275.926 320.171 272.799 330.059C271.983 332.642 270.152 337.228 267.415 339.449C264.026 342.168 258.932 342.068 251.22 340.146C247.93 339.331 244.323 337.364 238.105 334.464C236.438 333.684 235.133 333.168 231.933 331.672C228.734 330.177 225.39 327.685 223.713 325.256C222.036 322.827 221.81 321.631 222.154 321.123C222.58 320.425 223.342 320.579 224.239 321.603C225.535 323.334 227.13 324.821 228.961 325.972C228.961 325.972 226.885 323.833 225.761 322.446C224.755 321.214 223.922 319.845 223.278 318.386C222.689 316.972 223.912 315.051 224.837 316.057C225.761 317.063 226.215 318.096 227.909 320.126C228.797 321.214 229.822 322.183 230.945 323.026C229.894 321.594 228.961 320.081 228.145 318.495C227.42 317.262 227.066 315.848 227.121 314.425C227.166 313.682 228.217 312.803 229.196 314.208C230.103 315.468 230.664 317.443 232.722 319.591C234.217 321.141 235.495 322.038 235.531 321.603C235.568 321.168 234.625 320.325 234.09 318.513C233.556 316.7 234.09 314.788 235.096 314.58C236.102 314.371 235.903 314.425 236.701 316.12C237.498 317.815 238.74 319.066 239.682 321.558C240.199 323.307 241.132 324.893 242.401 326.198C243.996 327.92 247.558 329.815 253.793 331.382Z" fill="#FFCEA9"/>
<path d="M276.397 296.345C272.019 295.701 268.929 297.668 266.989 304.311C265.05 310.954 263.708 316.392 263.708 316.392C265.44 318.894 268.059 320.634 271.041 321.259C276.279 322.528 278.164 320.026 278.164 320.026C278.164 320.026 279.623 313.075 280.53 308.344C281.436 303.613 281.817 297.142 276.397 296.345Z" fill="#EDEDED"/>
<path d="M273.66 265.612C273.66 265.612 266.736 255.099 281.735 252.923C292.547 251.383 299.499 258.361 300.296 265.865C301.067 273.071 296.626 280.548 293.426 283.52C291.867 284.073 288.496 284.427 284.082 282.387C283.901 280.43 283.838 278.454 283.874 276.487C283.874 276.487 289.149 265.421 273.66 265.612Z" fill="#2D36A0"/>
<path d="M242.12 170.966C240.879 170.232 238.83 170.259 237.552 171.038L46.6386 286.321C45.3607 287.2 45.3245 288.206 46.548 289.049L58.6291 295.81L253.712 177.446L242.12 170.966Z" fill="white"/>
<path d="M59.4628 289.855C61.9655 289.855 63.9944 288.261 63.9944 286.294C63.9944 284.327 61.9655 282.732 59.4628 282.732C56.9601 282.732 54.9313 284.327 54.9313 286.294C54.9313 288.261 56.9601 289.855 59.4628 289.855Z" fill="#D3199D"/>
<path d="M70.3385 283.23C72.8412 283.23 74.8701 281.636 74.8701 279.668C74.8701 277.701 72.8412 276.107 70.3385 276.107C67.8358 276.107 65.807 277.701 65.807 279.668C65.807 281.636 67.8358 283.23 70.3385 283.23Z" fill="#FFD72E"/>
<path d="M80.8064 277.339C83.3091 277.339 85.338 275.745 85.338 273.777C85.338 271.81 83.3091 270.216 80.8064 270.216C78.3037 270.216 76.2749 271.81 76.2749 273.777C76.2749 275.745 78.3037 277.339 80.8064 277.339Z" fill="#1BAA3D"/>
<path d="M223.864 153.131C225.015 146.041 220.2 139.36 213.11 138.21C206.02 137.059 199.339 141.874 198.189 148.964C197.038 156.054 201.853 162.734 208.943 163.885C216.033 165.036 222.714 160.221 223.864 153.131Z" fill="#2D36A0"/>
<path d="M211.016 157.199C206.085 157.199 201.3 156.075 197.901 154.109C195.065 152.477 193.46 150.411 193.46 148.453C193.46 146.496 195.092 144.438 197.901 142.798C201.3 140.831 206.04 139.707 211.016 139.707C215.991 139.707 220.722 140.84 224.13 142.798C226.967 144.429 228.571 146.496 228.571 148.453C228.571 150.411 226.949 152.468 224.13 154.109C220.758 156.075 215.946 157.199 211.016 157.199Z" fill="white"/>
<path d="M211.016 154.961C206.085 154.961 201.3 153.837 197.901 151.879C195.065 150.248 193.46 148.181 193.46 146.224C193.46 144.266 195.092 142.209 197.901 140.568C201.3 138.611 206.04 137.487 211.016 137.487C215.991 137.487 220.722 138.611 224.13 140.568C226.967 142.209 228.571 144.266 228.571 146.224C228.571 148.181 226.949 150.239 224.13 151.879C220.758 153.837 215.946 154.961 211.016 154.961Z" fill="#2D36A0"/>
<path d="M211.016 152.939C204.626 152.939 198.436 151.462 193.995 148.934C190.297 146.813 188.213 144.139 188.213 141.602C188.213 139.064 190.316 136.427 193.995 134.279C198.4 131.732 204.59 130.273 211.016 130.273C217.441 130.273 223.595 131.75 228.036 134.279C231.734 136.39 233.818 139.064 233.818 141.602C233.818 144.139 231.707 146.777 228.036 148.934C223.604 151.48 217.414 152.939 211.016 152.939Z" fill="white"/>
<path d="M211.016 150.039C204.626 150.039 198.436 148.562 193.995 146.033C190.297 143.922 188.213 141.239 188.213 138.71C188.213 136.182 190.316 133.535 193.995 131.378C198.4 128.832 204.59 127.373 211.016 127.373C217.441 127.373 223.595 128.85 228.036 131.378C231.734 133.499 233.818 136.173 233.818 138.71C233.818 141.248 231.707 143.885 228.036 146.033C223.604 148.58 217.414 150.039 211.016 150.039Z" fill="#2D36A0"/>
<path d="M211.016 147.338C203.221 147.338 195.672 145.562 190.297 142.463C185.82 139.87 183.255 136.617 183.255 133.526C183.255 130.436 185.82 127.182 190.297 124.599C195.672 121.5 203.212 119.714 211.016 119.714C218.819 119.714 226.35 121.5 231.734 124.599C236.211 127.182 238.776 130.436 238.776 133.526C238.776 136.617 236.211 139.87 231.734 142.463C226.359 145.562 218.81 147.338 211.016 147.338Z" fill="white"/>
<path d="M211.016 143.804C203.221 143.804 195.672 142.028 190.297 138.928C185.82 136.345 183.255 133.082 183.255 129.992C183.255 126.901 185.82 123.648 190.297 121.065C195.672 117.965 203.212 116.189 211.016 116.189C218.819 116.189 226.35 117.965 231.734 121.065C236.211 123.648 238.776 126.91 238.776 130.001C238.776 133.091 236.211 136.345 231.734 138.928C226.359 142.028 218.81 143.804 211.016 143.804Z" fill="#2D36A0"/>
<path d="M211.016 140.151C202.061 140.151 193.397 138.121 187.234 134.55C182.095 131.587 179.15 127.844 179.15 124.3C179.15 120.747 182.114 117.013 187.234 114.041C193.397 110.479 202.07 108.449 211.016 108.449C219.961 108.449 228.634 110.479 234.806 114.05C239.945 117.013 242.891 120.756 242.891 124.3C242.891 127.853 239.927 131.587 234.806 134.55C228.634 138.121 219.961 140.151 211.016 140.151Z" fill="white"/>
<path d="M211.016 136.1C202.061 136.1 193.397 134.061 187.234 130.499C182.095 127.536 179.15 123.793 179.15 120.249C179.15 116.696 182.114 112.953 187.234 109.99C193.397 106.428 202.07 104.389 211.016 104.389C219.961 104.389 228.634 106.428 234.806 109.99C239.945 112.953 242.891 116.696 242.891 120.249C242.891 123.802 239.927 127.536 234.806 130.499C228.634 134.079 219.961 136.1 211.016 136.1Z" fill="#2D36A0"/>
<path d="M211.016 130.807C229.556 130.807 244.585 122.558 244.585 112.382C244.585 102.206 229.556 93.9569 211.016 93.9569C192.476 93.9569 177.446 102.206 177.446 112.382C177.446 122.558 192.476 130.807 211.016 130.807Z" fill="#FFFF9B"/>
<path d="M211.016 96.2227C219.807 96.2227 228 98.1622 234.09 101.679C239.32 104.697 242.319 108.603 242.319 112.391C242.319 116.18 239.32 120.077 234.09 123.104C228 126.62 219.807 128.56 211.016 128.56C202.224 128.56 194.031 126.62 187.941 123.104C182.712 120.086 179.712 116.18 179.712 112.391C179.712 108.603 182.712 104.706 187.941 101.679C194.031 98.1622 202.233 96.2227 211.016 96.2227ZM211.016 91.6912C191.222 91.6912 175.18 100.954 175.18 112.382C175.18 123.811 191.222 133.073 211.016 133.073C230.809 133.073 246.851 123.811 246.851 112.382C246.86 100.954 230.809 91.6912 211.016 91.6912Z" fill="white"/>
<path d="M201.871 61.3933H198.699V110.733H201.871V61.3933Z" fill="#FFBC36"/>
<path d="M223.604 61.3933H220.432V110.733H223.604V61.3933Z" fill="#FFBC36"/>
<path d="M210.934 64.6107L206.276 60.342L200.566 64.1666L198.699 61.4024L206.584 56.2274L211.106 60.3601L216.526 56.1548L223.604 61.4024L221.393 63.94L216.517 60.2786L210.934 64.6107Z" fill="#FFBC36"/>
<path d="M245.328 113.47C245.392 108.82 247.667 95.108 258.579 76.2024C271.484 53.8347 258.026 0.906311 210.925 0.906311C163.824 0.906311 150.365 53.8347 163.271 76.2024C172.706 92.5431 176.241 107.044 176.667 113.678" fill="url(#paint3_linear)"/>
<path d="M245.328 113.47C245.392 108.82 247.667 95.108 258.579 76.2024C271.484 53.8347 258.026 0.906311 210.925 0.906311C163.824 0.906311 150.365 53.8347 163.271 76.2024C172.706 92.5431 176.241 107.044 176.667 113.678" stroke="white" stroke-width="2" stroke-miterlimit="10" stroke-linecap="round" stroke-linejoin="round"/>
<path d="M241.35 107.57C241.404 103.464 243.416 91.3558 253.05 74.6526C264.452 54.9041 252.57 8.15678 210.961 8.15678C169.353 8.15678 157.471 54.9041 168.872 74.6526C177.201 89.0901 180.328 101.896 180.709 107.751" fill="url(#paint4_linear)" fill-opacity="0.5"/>
<path d="M228.698 33.0349C231.901 33.0349 234.498 30.438 234.498 27.2346C234.498 24.0311 231.901 21.4342 228.698 21.4342C225.494 21.4342 222.897 24.0311 222.897 27.2346C222.897 30.438 225.494 33.0349 228.698 33.0349Z" fill="white"/>
<path d="M239.292 38.7265C240.949 38.7265 242.292 37.3835 242.292 35.7267C242.292 34.0699 240.949 32.7268 239.292 32.7268C237.636 32.7268 236.293 34.0699 236.293 35.7267C236.293 37.3835 237.636 38.7265 239.292 38.7265Z" fill="white"/>
<path d="M443.592 68.0093L367.671 27.6424C364.127 25.7573 361.263 27.1077 361.263 30.6423V45.3335C361.263 48.8772 364.136 53.2637 367.671 55.1488L375.882 59.5172C378.719 66.233 373.055 67.4746 373.055 67.4746C379.371 70.828 383.93 67.0396 385.879 64.8373L443.592 95.5249C447.136 97.41 450 96.0596 450 92.525V77.8247C450 74.2901 447.127 69.8945 443.592 68.0093Z" fill="url(#paint5_linear)"/>
<path d="M129.511 58.8103L65.1363 95.978C62.1365 97.7091 59.6985 101.552 59.6985 104.552V117.013C59.6985 120.013 62.1274 121.047 65.1363 119.306L72.0968 115.282C74.4985 118.309 69.7041 124.681 69.7041 124.681C75.0604 121.59 78.9213 114.086 80.5708 110.388L129.502 82.1387C132.502 80.4076 134.94 76.5649 134.94 73.565V61.1124C134.94 58.1125 132.511 57.0793 129.511 58.8103Z" fill="url(#paint6_linear)"/>
<path d="M390.256 233.492L325.881 270.66C322.881 272.391 320.443 276.234 320.443 279.233V291.695C320.443 294.695 322.872 295.728 325.881 293.988L332.842 289.964C335.243 292.991 330.449 299.363 330.449 299.363C335.805 296.272 339.666 288.768 341.316 285.07L390.247 256.82C393.247 255.089 395.685 251.247 395.685 248.247V235.785C395.694 232.794 393.265 231.761 390.256 233.492Z" fill="url(#paint7_linear)"/>
</g>
<defs>
<linearGradient id="paint0_linear" x1="312.937" y1="155.836" x2="361.823" y2="106.95" gradientUnits="userSpaceOnUse">
<stop stop-color="#500081"/>
<stop offset="1" stop-color="#D9169B"/>
</linearGradient>
<linearGradient id="paint1_linear" x1="17.5808" y1="238.671" x2="54.5794" y2="238.671" gradientUnits="userSpaceOnUse">
<stop stop-color="#00A7FF"/>
<stop offset="1" stop-color="#054EFF"/>
</linearGradient>
<linearGradient id="paint2_linear" x1="266.232" y1="404.759" x2="306.476" y2="404.759" gradientUnits="userSpaceOnUse">
<stop stop-color="#054EFF"/>
<stop offset="1" stop-color="#00A7FF"/>
</linearGradient>
<linearGradient id="paint3_linear" x1="210.923" y1="9.7894" x2="210.923" y2="110.846" gradientUnits="userSpaceOnUse">
<stop stop-color="#FCEE21" stop-opacity="0"/>
<stop offset="1" stop-color="#FFFF9B"/>
</linearGradient>
<linearGradient id="paint4_linear" x1="210.964" y1="8.15832" x2="210.964" y2="107.755" gradientUnits="userSpaceOnUse">
<stop stop-color="white"/>
<stop offset="1" stop-color="white" stop-opacity="0"/>
</linearGradient>
<linearGradient id="paint5_linear" x1="361.26" y1="61.5818" x2="450" y2="61.5818" gradientUnits="userSpaceOnUse">
<stop offset="0.00841784" stop-color="#93005F"/>
<stop offset="1" stop-color="#D9169B"/>
</linearGradient>
<linearGradient id="paint6_linear" x1="59.7041" y1="91.3288" x2="134.944" y2="91.3288" gradientUnits="userSpaceOnUse">
<stop offset="0.00841784" stop-color="#93005F"/>
<stop offset="1" stop-color="#D9169B"/>
</linearGradient>
<linearGradient id="paint7_linear" x1="320.453" y1="266.011" x2="395.693" y2="266.011" gradientUnits="userSpaceOnUse">
<stop offset="0.00841784" stop-color="#93005F"/>
<stop offset="1" stop-color="#D9169B"/>
</linearGradient>
<clipPath id="clip0">
<rect width="450" height="482.41" fill="white"/>
</clipPath>
</defs>
</svg>
