<svg width="20" height="17" viewBox="0 0 20 17" fill="none" xmlns="http://www.w3.org/2000/svg">
<path d="M9.83857 5.04066C9.84498 5.04066 9.85139 5.04226 9.8586 5.04226C9.7881 4.74184 9.75205 4.4286 9.75205 4.10655C9.75205 1.83857 11.5906 0 13.8586 0C15.0395 0 16.1065 0.499099 16.8556 1.29702C17.6247 1.1456 18.3521 0.882836 19.029 0.534348C19.1716 0.465452 19.315 0.396555 19.4552 0.320449C19.2117 1.06789 18.7551 1.7152 18.1622 2.20549C18.002 2.33206 17.837 2.45384 17.6551 2.55317C17.6671 2.55157 17.6791 2.54917 17.692 2.54757C17.6799 2.55478 17.6703 2.56519 17.6575 2.5724C18.3305 2.49149 18.9762 2.32806 19.589 2.09653C19.726 2.04927 19.8638 2.0012 20 1.94833C19.452 2.76227 18.7623 3.47847 17.9667 4.05207C17.9748 4.22832 17.9788 4.40537 17.9788 4.58322C17.9788 10.01 13.8482 16.2668 6.29521 16.2668C3.97597 16.2668 1.81774 15.5874 0 14.4218C0.32125 14.4594 0.648107 14.4787 0.979772 14.4787C2.51312 14.4787 3.94472 14.0565 5.17605 13.3299C5.48608 13.1512 5.78971 12.9581 6.07891 12.7402C6.0709 12.7402 6.06369 12.7378 6.05568 12.7378C6.06289 12.7322 6.0717 12.7266 6.07891 12.721C4.52313 12.6922 3.18045 11.7965 2.50831 10.4979C2.40817 10.2984 2.32245 10.0893 2.25516 9.87062C2.5027 9.91708 2.75586 9.94272 3.01622 9.94272C3.2878 9.94272 3.55057 9.90747 3.80693 9.8578C3.90306 9.84418 4 9.83297 4.09453 9.81774C4.08171 9.81534 4.0713 9.80973 4.05848 9.80733C4.0713 9.80412 4.08572 9.80252 4.09854 9.79932C2.21991 9.42199 0.804326 7.76207 0.804326 5.77288C0.804326 5.75686 0.804326 5.74164 0.804326 5.72642L0.805928 5.72241C1.24815 5.96755 1.74244 6.13018 2.26637 6.19828C2.39535 6.21991 2.52433 6.23994 2.65331 6.25115C2.6445 6.24554 2.63649 6.23833 2.62848 6.23192C2.6405 6.23273 2.65251 6.23513 2.66453 6.23513C1.56299 5.4989 0.837973 4.24194 0.837973 2.81674C0.837973 2.16463 0.997396 1.55177 1.26818 1.00461C1.31144 0.922091 1.34989 0.837973 1.39956 0.758662C3.21891 2.98738 5.84739 4.52153 8.83397 4.93651C9.16723 4.98458 9.5013 5.02784 9.83937 5.04787C9.83937 5.04466 9.83937 5.04226 9.83857 5.04066Z" fill="white"/>
</svg>
