<svg width="440" height="408" viewBox="0 0 440 408" fill="none" xmlns="http://www.w3.org/2000/svg">
<path d="M196.771 215.607C205.701 199.425 216.12 188.638 220.214 185.267C224.307 189.761 234.726 202.122 243.656 215.607C252.587 229.091 255.564 247.445 255.936 254.937C251.471 256.435 238.075 259.656 220.214 260.555C202.352 261.454 187.468 257.184 182.258 254.937C183.375 248.569 187.84 231.788 196.771 215.607Z" fill="url(#paint0_linear)" fill-opacity="0.5"/>
<path d="M188.154 65.6421C187.958 69.3381 188.35 82.0501 177.178 88.2381C178.298 89.0221 179.39 90.0301 179.978 90.8981C185.886 87.2861 188.826 81.8821 190.338 76.8421C191.906 81.9941 195.042 87.7621 201.37 90.8981C201.902 90.0021 202.91 88.8541 203.946 88.0701C193.502 83.1701 192.102 71.1021 191.878 67.2381C191.906 66.6501 191.934 66.0901 191.962 65.6421H188.154ZM214.362 68.4701V69.9541H210.05V68.4701H214.362ZM210.05 73.7901V72.1941H214.362V73.7901H210.05ZM217.47 76.1701V66.0621H206.746V91.1501H210.05V76.1701H217.47ZM222.566 73.8461V72.1941H227.018V73.8461H222.566ZM227.018 68.4701V69.9541H222.566V68.4701H227.018ZM216.098 86.1101V84.3741H220.718V86.1101H216.098ZM220.718 81.9941H216.098V80.3141H220.718V81.9941ZM230.378 66.0621H219.402V76.2261H227.018V87.1741C227.018 87.6221 226.85 87.7901 226.346 87.7901C225.982 87.8181 224.946 87.8181 223.854 87.7901V77.8781L214.446 77.8501V77.8781H213.074V89.9741H216.098V88.5461H223.042C223.378 89.4141 223.686 90.4501 223.77 91.1501C226.178 91.1501 227.802 91.0661 228.894 90.5061C230.014 89.9741 230.378 88.9941 230.378 87.2021V66.0621ZM252.806 87.0901V81.4901H257.93V78.3821H252.806V73.7901H258.518V70.6541H252.806V65.1661H249.474V70.6541H247.234C247.514 69.3941 247.738 68.0781 247.934 66.7621L244.686 66.3141C244.406 68.6941 243.902 71.1021 243.202 73.1461C242.81 72.0541 242.222 70.7101 241.662 69.6181L240.038 70.2901V64.9981H236.706V70.7101L234.354 70.3741C234.158 72.6701 233.654 75.8061 232.982 77.6541L235.446 78.5501C236.09 76.5621 236.538 73.4821 236.706 71.1301V91.1501H240.038V72.0261C240.514 73.1741 240.934 74.4061 241.102 75.2461L242.698 74.5181C242.418 75.1061 242.138 75.6381 241.858 76.1421C242.642 76.4781 244.154 77.2341 244.826 77.6541C245.414 76.5901 245.974 75.2461 246.394 73.7901H249.474V78.3821H244.07V81.4901H249.474V87.0901H241.998V90.2541H259.414V87.0901H252.806Z" fill="white"/>
<path d="M184.302 111.174C184.302 109.547 184.535 107.981 185.002 106.474C185.482 104.954 186.229 103.587 187.242 102.374H189.382C188.462 103.627 187.769 105.007 187.302 106.514C186.835 108.021 186.602 109.567 186.602 111.154C186.602 112.701 186.835 114.221 187.302 115.714C187.769 117.207 188.455 118.574 189.362 119.814H187.242C186.229 118.641 185.482 117.314 185.002 115.834C184.535 114.341 184.302 112.787 184.302 111.174ZM195.186 102.354L192.106 102.314C192.226 102.934 192.266 103.794 192.266 104.354C192.266 105.574 192.286 107.914 192.486 109.754C193.046 115.114 194.946 117.094 197.146 117.094C198.746 117.094 200.006 115.874 201.326 112.394L199.326 109.954C198.946 111.554 198.146 113.894 197.206 113.894C195.946 113.894 195.346 111.914 195.066 109.034C194.946 107.594 194.926 106.094 194.946 104.794C194.946 104.234 195.046 103.074 195.186 102.354ZM205.186 102.814L202.646 103.634C204.826 106.114 205.886 110.974 206.206 114.194L208.826 113.174C208.606 110.114 207.086 105.114 205.186 102.814ZM215.186 102.354L212.106 102.314C212.226 102.934 212.266 103.794 212.266 104.354C212.266 105.574 212.286 107.914 212.486 109.754C213.046 115.114 214.946 117.094 217.146 117.094C218.746 117.094 220.006 115.874 221.326 112.394L219.326 109.954C218.946 111.554 218.146 113.894 217.206 113.894C215.946 113.894 215.346 111.914 215.066 109.034C214.946 107.594 214.926 106.094 214.946 104.794C214.946 104.234 215.046 103.074 215.186 102.354ZM225.186 102.814L222.646 103.634C224.826 106.114 225.886 110.974 226.206 114.194L228.826 113.174C228.606 110.114 227.086 105.114 225.186 102.814ZM236.766 105.874C236.526 107.994 236.086 109.834 235.446 111.394C234.786 110.934 234.126 110.494 233.486 110.094C233.866 108.754 234.226 107.314 234.606 105.874H236.766ZM237.726 103.634L237.326 103.674H235.126C235.446 102.394 235.726 101.154 235.986 99.9941L233.726 99.7341C233.506 100.954 233.206 102.314 232.906 103.674H230.766V105.874H232.386C231.846 108.054 231.286 110.134 230.806 111.674L232.666 112.914L232.866 112.274C233.366 112.634 233.886 113.014 234.386 113.394C233.466 114.814 232.286 115.854 230.846 116.514C231.306 116.974 231.926 117.834 232.246 118.434C233.866 117.554 235.166 116.414 236.186 114.894C236.866 115.514 237.466 116.114 237.866 116.634L239.126 114.534C238.686 114.014 238.066 113.414 237.326 112.814C238.346 110.534 238.926 107.614 239.166 103.874L237.726 103.634ZM247.486 101.034L247.066 101.114H239.306V103.314H246.466C246.026 106.194 245.226 108.674 244.126 110.714C243.166 108.774 242.586 106.414 242.146 103.434L240.026 103.774C240.586 107.594 241.346 110.514 242.686 112.894C241.466 114.434 240.006 115.594 238.306 116.354C238.846 116.814 239.506 117.734 239.846 118.354C241.486 117.494 242.906 116.394 244.106 115.014C245.146 116.274 246.426 117.394 248.026 118.454C248.346 117.754 249.046 116.934 249.646 116.474C247.926 115.474 246.606 114.374 245.566 113.054C247.386 110.174 248.546 106.394 249.026 101.454L247.486 101.034ZM255.666 111.174C255.666 112.787 255.426 114.341 254.946 115.834C254.48 117.314 253.74 118.641 252.726 119.814H250.606C251.513 118.574 252.2 117.207 252.666 115.714C253.146 114.221 253.386 112.701 253.386 111.154C253.386 109.567 253.146 108.021 252.666 106.514C252.2 105.007 251.506 103.627 250.586 102.374H252.726C253.74 103.587 254.48 104.954 254.946 106.474C255.426 107.981 255.666 109.547 255.666 111.174Z" fill="white"/>
<path d="M292.961 279.119H290.973V276.851H292.961V279.119ZM299.849 281.219C299.653 282.899 299.317 284.467 298.925 285.867C298.449 284.579 298.057 283.207 297.777 281.835L295.593 282.339V281.219H299.849ZM295.593 282.479C296.097 284.831 296.769 287.127 297.665 289.143C297.077 290.263 296.377 291.243 295.593 291.999V282.479ZM290.973 289.759V286.567H292.961V289.367L290.973 289.759ZM292.961 284.047H290.973V281.639H292.961V284.047ZM285.149 289.423H287.613V286.511H285.149V283.991H287.781V281.051H284.673V278.755H287.333V276.851H288.397V290.263C287.753 290.375 287.165 290.487 286.633 290.571L287.193 293.287C288.929 292.867 290.917 292.391 292.961 291.915V294.855H295.593V292.307C296.181 292.811 296.965 293.847 297.273 294.463C297.973 293.791 298.645 293.007 299.233 292.055C299.933 293.091 300.717 293.987 301.585 294.715C302.005 293.987 302.817 293.007 303.461 292.503C302.369 291.719 301.389 290.627 300.577 289.311C301.697 286.567 302.425 283.095 302.789 279.007L301.137 278.531L300.633 278.615H295.593V276.851H300.521V274.051H287.165V275.871H284.673V273.043H281.677V275.871H278.065V278.755H281.677V281.051H277.449V283.991H282.265V291.831C281.761 291.047 281.341 290.095 280.977 288.919C281.005 287.827 280.977 286.735 280.949 285.699L278.233 285.559C278.373 289.423 278.289 293.903 276.581 297.207C277.253 297.515 278.289 298.495 278.709 299.167C279.577 297.627 280.109 295.919 280.473 294.127C282.769 297.711 286.269 298.439 291.701 298.439H302.033C302.229 297.459 302.789 295.919 303.293 295.191C300.885 295.275 293.745 295.247 291.729 295.247C289.013 295.247 286.857 295.079 285.149 294.295V289.423ZM311.273 278.671V288.947H308.921V278.671H311.273ZM314.269 292.195V275.479H305.869V294.435H308.921V292.195H314.269ZM331.041 287.043V283.879H324.405V280.407H330.145V277.243H324.405V273.267H321.045V277.243H315.921V280.407H321.045V283.879H315.025V287.043H320.149C318.581 290.291 315.949 293.287 312.925 294.855C313.653 295.499 314.689 296.703 315.193 297.487C317.461 296.059 319.449 293.875 321.045 291.299V299.139H324.405V291.495C325.721 293.903 327.261 296.059 328.913 297.543C329.501 296.647 330.621 295.415 331.377 294.771C328.969 293.063 326.701 290.095 325.245 287.043H331.041ZM346.077 282.535C344.117 282.535 342.493 284.159 342.493 286.119C342.493 288.079 344.117 289.703 346.077 289.703C348.037 289.703 349.661 288.079 349.661 286.119C349.661 284.159 348.037 282.535 346.077 282.535ZM382.197 291.691V292.895H374.105V291.691H382.197ZM374.105 296.143V294.911H382.197V296.143H374.105ZM371.081 299.195H374.105V298.383H382.197V299.195H385.361V289.451H371.081V299.195ZM366.545 288.667H364.641V278.839H366.545V288.667ZM377.913 277.355H380.769C380.153 277.859 379.509 278.335 378.865 278.811H377.913V277.355ZM386.985 281.303V278.811H383.205C384.353 277.803 385.445 276.683 386.341 275.535L383.653 274.359C383.121 275.087 382.477 275.787 381.777 276.431V275.003H377.913V273.099H374.749V275.003H370.773V277.355H374.749V278.811H369.821V281.303H374.385C372.789 282.059 371.053 282.703 369.317 283.235V275.871H361.953V294.043H364.641V291.607H369.317V284.747C369.709 285.139 370.073 285.559 370.297 285.867C371.417 285.475 372.593 285.027 373.713 284.551V285.251C373.713 287.687 374.581 288.415 378.053 288.415H383.289C385.753 288.415 386.593 287.771 386.901 285.307C386.117 285.167 385.025 284.831 384.381 284.439C384.297 285.811 384.073 286.035 383.037 286.035H378.333C376.961 286.035 376.653 285.951 376.597 285.391C379.565 285.055 382.897 284.523 385.305 283.739L383.317 281.947C381.721 282.507 379.117 283.011 376.597 283.403V283.179C377.717 282.591 378.809 282.003 379.845 281.303H386.985ZM396.841 281.667C396.505 284.523 395.973 287.043 395.161 289.227C394.461 288.723 393.761 288.247 393.089 287.827C393.537 285.867 393.985 283.795 394.433 281.667H396.841ZM398.157 278.531L397.597 278.615H395.077C395.441 276.795 395.777 275.003 396.057 273.351L392.921 273.071C392.669 274.779 392.333 276.683 391.969 278.615H389.197V281.667H391.381C390.709 284.915 390.009 288.051 389.365 290.347L392.109 291.775L392.333 290.907C392.837 291.271 393.341 291.663 393.845 292.055C392.669 294.099 391.157 295.667 389.281 296.647C389.953 297.263 390.821 298.439 391.269 299.279C393.341 297.991 395.021 296.339 396.365 294.155C397.373 295.107 398.241 296.031 398.829 296.815L400.845 294.127C400.145 293.231 399.053 292.223 397.821 291.215C399.109 287.995 399.865 283.935 400.173 278.839L398.157 278.531ZM415.181 284.131H409.021V282.535C410.981 280.687 413.053 278.083 414.537 275.899L412.353 274.275L411.681 274.443H400.733V277.523H409.441C408.657 278.699 407.677 279.931 406.753 280.883H405.717V284.131H399.809V287.267H405.717V295.443C405.717 295.835 405.577 295.947 405.101 295.947C404.653 295.975 403.169 295.947 401.741 295.891C402.217 296.815 402.777 298.243 402.945 299.167C404.989 299.195 406.501 299.083 407.621 298.551C408.713 298.047 409.021 297.151 409.021 295.471V287.267H415.181V284.131Z" fill="white"/>
<path d="M309.377 319.719C309.377 318.092 309.61 316.525 310.077 315.019C310.557 313.499 311.304 312.132 312.317 310.919H314.457C313.537 312.172 312.844 313.552 312.377 315.059C311.91 316.565 311.677 318.112 311.677 319.699C311.677 321.245 311.91 322.765 312.377 324.259C312.844 325.752 313.53 327.119 314.437 328.359H312.317C311.304 327.185 310.557 325.859 310.077 324.379C309.61 322.885 309.377 321.332 309.377 319.719ZM320.261 310.899L317.181 310.859C317.301 311.479 317.341 312.339 317.341 312.899C317.341 314.119 317.361 316.459 317.561 318.299C318.121 323.659 320.021 325.639 322.221 325.639C323.821 325.639 325.081 324.419 326.401 320.939L324.401 318.499C324.021 320.099 323.221 322.439 322.281 322.439C321.021 322.439 320.421 320.459 320.141 317.579C320.021 316.139 320.001 314.639 320.021 313.339C320.021 312.779 320.121 311.619 320.261 310.899ZM330.261 311.359L327.721 312.179C329.901 314.659 330.961 319.519 331.281 322.739L333.901 321.719C333.681 318.659 332.161 313.659 330.261 311.359ZM340.261 310.899L337.181 310.859C337.301 311.479 337.341 312.339 337.341 312.899C337.341 314.119 337.361 316.459 337.561 318.299C338.121 323.659 340.021 325.639 342.221 325.639C343.821 325.639 345.081 324.419 346.401 320.939L344.401 318.499C344.021 320.099 343.221 322.439 342.281 322.439C341.021 322.439 340.421 320.459 340.141 317.579C340.021 316.139 340.001 314.639 340.021 313.339C340.021 312.779 340.121 311.619 340.261 310.899ZM350.261 311.359L347.721 312.179C349.901 314.659 350.961 319.519 351.281 322.739L353.901 321.719C353.681 318.659 352.161 313.659 350.261 311.359ZM361.841 314.419C361.601 316.539 361.161 318.379 360.521 319.939C359.861 319.479 359.201 319.039 358.561 318.639C358.941 317.299 359.301 315.859 359.681 314.419H361.841ZM362.801 312.179L362.401 312.219H360.201C360.521 310.939 360.801 309.699 361.061 308.539L358.801 308.279C358.581 309.499 358.281 310.859 357.981 312.219H355.841V314.419H357.461C356.921 316.599 356.361 318.679 355.881 320.219L357.741 321.459L357.941 320.819C358.441 321.179 358.961 321.559 359.461 321.939C358.541 323.359 357.361 324.399 355.921 325.059C356.381 325.519 357.001 326.379 357.321 326.979C358.941 326.099 360.241 324.959 361.261 323.439C361.941 324.059 362.541 324.659 362.941 325.179L364.201 323.079C363.761 322.559 363.141 321.959 362.401 321.359C363.421 319.079 364.001 316.159 364.241 312.419L362.801 312.179ZM372.561 309.579L372.141 309.659H364.381V311.859H371.541C371.101 314.739 370.301 317.219 369.201 319.259C368.241 317.319 367.661 314.959 367.221 311.979L365.101 312.319C365.661 316.139 366.421 319.059 367.761 321.439C366.541 322.979 365.081 324.139 363.381 324.899C363.921 325.359 364.581 326.279 364.921 326.899C366.561 326.039 367.981 324.939 369.181 323.559C370.221 324.819 371.501 325.939 373.101 326.999C373.421 326.299 374.121 325.479 374.721 325.019C373.001 324.019 371.681 322.919 370.641 321.599C372.461 318.719 373.621 314.939 374.101 309.999L372.561 309.579ZM380.741 319.719C380.741 321.332 380.501 322.885 380.021 324.379C379.555 325.859 378.815 327.185 377.801 328.359H375.681C376.588 327.119 377.275 325.752 377.741 324.259C378.221 322.765 378.461 321.245 378.461 319.699C378.461 318.112 378.221 316.565 377.741 315.059C377.275 313.552 376.581 312.172 375.661 310.919H377.801C378.815 312.132 379.555 313.499 380.021 315.019C380.501 316.525 380.741 318.092 380.741 319.719Z" fill="white"/>
<circle cx="219.234" cy="130.314" r="128.588" stroke="url(#paint1_linear)" stroke-width="3.45122"/>
<circle cx="309.686" cy="277.492" r="128.588" stroke="url(#paint2_linear)" stroke-width="3.45122"/>
<circle cx="130.314" cy="277.492" r="128.588" stroke="url(#paint3_linear)" stroke-width="3.45122"/>
<path d="M68.0954 279.119L65.2954 276.823C64.7074 277.019 63.7554 277.131 62.6914 277.131H47.1514C46.1994 277.131 44.6594 276.991 43.9314 276.879V280.799C44.5194 280.743 46.0314 280.603 47.1514 280.603H61.9634C60.6474 282.899 58.0154 286.147 54.8514 288.667C53.0874 287.127 51.2394 285.615 50.1194 284.775L47.1514 287.155C48.8314 288.359 51.6874 290.879 53.3114 292.531C55.1314 294.379 57.4834 297.011 58.6594 298.579L61.9354 295.975C60.8434 294.659 59.1914 292.839 57.5954 291.243C61.5434 288.051 65.1274 283.571 67.1434 280.295C67.3674 279.931 67.7034 279.567 68.0954 279.119ZM71.1474 285.867L72.9114 289.395C76.3554 288.387 79.9114 286.875 82.7954 285.363V294.323C82.7954 295.555 82.7114 297.319 82.5994 297.991H87.0234C86.8274 297.291 86.7714 295.555 86.7714 294.323V283.011C89.4874 281.219 92.1754 279.035 94.3034 276.935L91.2794 274.051C89.4594 276.263 86.2674 279.063 83.3834 280.855C80.2754 282.759 76.1594 284.579 71.1474 285.867ZM104.159 275.479L101.527 278.279C103.571 279.707 107.071 282.759 108.527 284.327L111.383 281.415C109.759 279.707 106.119 276.795 104.159 275.479ZM100.659 294.127L103.011 297.823C106.959 297.151 110.571 295.583 113.399 293.875C117.907 291.159 121.631 287.295 123.759 283.515L121.575 279.567C119.811 283.347 116.171 287.631 111.383 290.459C108.667 292.083 105.027 293.511 100.659 294.127ZM144.507 275.927L142.155 276.907C143.191 278.363 143.807 279.483 144.619 281.247L147.055 280.155C146.411 278.895 145.291 277.103 144.507 275.927ZM148.175 274.387L145.851 275.479C146.887 276.879 147.559 277.915 148.455 279.679L150.807 278.531C150.163 277.271 148.987 275.507 148.175 274.387ZM133.335 294.491C133.335 295.583 133.223 297.291 133.055 298.383H137.451C137.311 297.235 137.171 295.275 137.171 294.491V286.567C140.195 287.575 144.395 289.199 147.307 290.739L148.875 286.847C146.299 285.587 140.895 283.599 137.171 282.479V278.391C137.171 277.215 137.311 275.983 137.423 275.003H133.055C133.251 276.011 133.335 277.383 133.335 278.391V294.491Z" fill="white"/>
<path d="M61.8164 319.719C61.8164 318.092 62.0497 316.525 62.5164 315.019C62.9964 313.499 63.7431 312.132 64.7564 310.919H66.8964C65.9764 312.172 65.2831 313.552 64.8164 315.059C64.3497 316.565 64.1164 318.112 64.1164 319.699C64.1164 321.245 64.3497 322.765 64.8164 324.259C65.2831 325.752 65.9697 327.119 66.8764 328.359H64.7564C63.7431 327.185 62.9964 325.859 62.5164 324.379C62.0497 322.885 61.8164 321.332 61.8164 319.719ZM72.7008 310.899L69.6208 310.859C69.7408 311.479 69.7808 312.339 69.7808 312.899C69.7808 314.119 69.8008 316.459 70.0008 318.299C70.5608 323.659 72.4608 325.639 74.6608 325.639C76.2608 325.639 77.5208 324.419 78.8408 320.939L76.8408 318.499C76.4608 320.099 75.6608 322.439 74.7208 322.439C73.4608 322.439 72.8608 320.459 72.5808 317.579C72.4608 316.139 72.4408 314.639 72.4608 313.339C72.4608 312.779 72.5608 311.619 72.7008 310.899ZM82.7008 311.359L80.1608 312.179C82.3408 314.659 83.4008 319.519 83.7208 322.739L86.3408 321.719C86.1208 318.659 84.6008 313.659 82.7008 311.359ZM92.7008 310.899L89.6208 310.859C89.7408 311.479 89.7808 312.339 89.7808 312.899C89.7808 314.119 89.8008 316.459 90.0008 318.299C90.5608 323.659 92.4608 325.639 94.6608 325.639C96.2608 325.639 97.5208 324.419 98.8408 320.939L96.8408 318.499C96.4608 320.099 95.6608 322.439 94.7208 322.439C93.4608 322.439 92.8608 320.459 92.5808 317.579C92.4608 316.139 92.4408 314.639 92.4608 313.339C92.4608 312.779 92.5608 311.619 92.7008 310.899ZM102.701 311.359L100.161 312.179C102.341 314.659 103.401 319.519 103.721 322.739L106.341 321.719C106.121 318.659 104.601 313.659 102.701 311.359ZM114.281 314.419C114.041 316.539 113.601 318.379 112.961 319.939C112.301 319.479 111.641 319.039 111.001 318.639C111.381 317.299 111.741 315.859 112.121 314.419H114.281ZM115.241 312.179L114.841 312.219H112.641C112.961 310.939 113.241 309.699 113.501 308.539L111.241 308.279C111.021 309.499 110.721 310.859 110.421 312.219H108.281V314.419H109.901C109.361 316.599 108.801 318.679 108.321 320.219L110.181 321.459L110.381 320.819C110.881 321.179 111.401 321.559 111.901 321.939C110.981 323.359 109.801 324.399 108.361 325.059C108.821 325.519 109.441 326.379 109.761 326.979C111.381 326.099 112.681 324.959 113.701 323.439C114.381 324.059 114.981 324.659 115.381 325.179L116.641 323.079C116.201 322.559 115.581 321.959 114.841 321.359C115.861 319.079 116.441 316.159 116.681 312.419L115.241 312.179ZM125.001 309.579L124.581 309.659H116.821V311.859H123.981C123.541 314.739 122.741 317.219 121.641 319.259C120.681 317.319 120.101 314.959 119.661 311.979L117.541 312.319C118.101 316.139 118.861 319.059 120.201 321.439C118.981 322.979 117.521 324.139 115.821 324.899C116.361 325.359 117.021 326.279 117.361 326.899C119.001 326.039 120.421 324.939 121.621 323.559C122.661 324.819 123.941 325.939 125.541 326.999C125.861 326.299 126.561 325.479 127.161 325.019C125.441 324.019 124.121 322.919 123.081 321.599C124.901 318.719 126.061 314.939 126.541 309.999L125.001 309.579ZM133.181 319.719C133.181 321.332 132.941 322.885 132.461 324.379C131.994 325.859 131.254 327.185 130.241 328.359H128.121C129.027 327.119 129.714 325.752 130.181 324.259C130.661 322.765 130.901 321.245 130.901 319.699C130.901 318.112 130.661 316.565 130.181 315.059C129.714 313.552 129.021 312.172 128.101 310.919H130.241C131.254 312.132 131.994 313.499 132.461 315.019C132.941 316.525 133.181 318.092 133.181 319.719Z" fill="white"/>
<defs>
<linearGradient id="paint0_linear" x1="204.585" y1="203.246" x2="255.151" y2="253.48" gradientUnits="userSpaceOnUse">
<stop offset="0.0932171" stop-color="#D9169B"/>
<stop offset="1" stop-color="#008DF2"/>
</linearGradient>
<linearGradient id="paint1_linear" x1="137.213" y1="33.7282" x2="318.885" y2="215.401" gradientUnits="userSpaceOnUse">
<stop stop-color="#D9169B"/>
<stop offset="0.9999" stop-color="#6556CA"/>
</linearGradient>
<linearGradient id="paint2_linear" x1="227.665" y1="180.906" x2="409.338" y2="362.579" gradientUnits="userSpaceOnUse">
<stop stop-color="#6D52C7"/>
<stop offset="1" stop-color="#008DF2"/>
</linearGradient>
<linearGradient id="paint3_linear" x1="48.2927" y1="180.906" x2="229.965" y2="362.579" gradientUnits="userSpaceOnUse">
<stop stop-color="#D9169B"/>
<stop offset="1" stop-color="#6D52C7"/>
</linearGradient>
</defs>
</svg>
